<svg width="209" height="85" viewBox="0 0 209 85" fill="none" xmlns="http://www.w3.org/2000/svg">
<g filter="url(#filter0_d_183_514)">
<rect x="6" y="2" width="197" height="73" rx="6" fill="#242424"/>
<rect x="6.5" y="2.5" width="196" height="72" rx="5.5" stroke="#FFFCFC"/>
</g>
<line x1="32" y1="34.2314" x2="175" y2="34.2314" stroke="white"/>
<path d="M126.5 15.5C135.309 15.5 142.5 23.083 142.5 32.5C142.5 41.917 135.309 49.5 126.5 49.5C117.691 49.5 110.5 41.917 110.5 32.5C110.5 23.083 117.691 15.5 126.5 15.5Z" fill="#51D924" stroke="#FFFCFC"/>
<path d="M173.5 15.5C182.309 15.5 189.5 23.083 189.5 32.5C189.5 41.917 182.309 49.5 173.5 49.5C164.691 49.5 157.5 41.917 157.5 32.5C157.5 23.083 164.691 15.5 173.5 15.5Z" fill="#51D924" stroke="#FFFCFC"/>
<path d="M79.5 15.5C88.3092 15.5 95.5 23.083 95.5 32.5C95.5 41.917 88.3092 49.5 79.5 49.5C70.6908 49.5 63.5 41.917 63.5 32.5C63.5 23.083 70.6908 15.5 79.5 15.5Z" fill="#51D924" stroke="#FFFCFC"/>
<path d="M32.5 15.5C41.3092 15.5 48.5 23.083 48.5 32.5C48.5 41.917 41.3092 49.5 32.5 49.5C23.6908 49.5 16.5 41.917 16.5 32.5C16.5 23.083 23.6908 15.5 32.5 15.5Z" fill="#51D924" stroke="#FFFCFC"/>
<path d="M22.2197 62C22.0791 62 22.0332 61.9355 22.082 61.8066L23.5176 58.0361C23.5781 57.8779 23.6699 57.7988 23.793 57.7988H24.2031C24.3262 57.7988 24.418 57.8779 24.4785 58.0361L25.9141 61.8066C25.9629 61.9355 25.917 62 25.7764 62H25.3105C25.1816 62 25.0918 61.9326 25.041 61.7979L24.7422 61.0098H23.2539L22.9551 61.7979C22.9043 61.9326 22.8145 62 22.6855 62H22.2197ZM23.5264 60.2832H24.4697L24.1094 59.3516C24.0664 59.2422 24.04 59.1631 24.0303 59.1143C24.0225 59.0635 24.0137 58.9893 24.0039 58.8916H23.9922C23.9824 58.9893 23.9727 59.0635 23.9629 59.1143C23.9551 59.1631 23.9297 59.2422 23.8867 59.3516L23.5264 60.2832ZM26.541 63.1719C26.4238 63.1719 26.3652 63.1133 26.3652 62.9961V59.0996C26.3652 58.9824 26.4238 58.9238 26.541 58.9238H27.0039C27.1016 58.9238 27.1543 58.9824 27.1621 59.0996L27.1738 59.2695H27.1855C27.2871 59.1016 27.4004 58.9922 27.5254 58.9414C27.6504 58.8906 27.8008 58.8652 27.9766 58.8652C28.4355 58.8652 28.7578 59.0244 28.9434 59.3428C29.1309 59.6592 29.2246 60.0322 29.2246 60.4619C29.2246 60.8916 29.1309 61.2656 28.9434 61.584C28.7578 61.9004 28.4355 62.0586 27.9766 62.0586C27.8008 62.0586 27.6504 62.0332 27.5254 61.9824C27.4004 61.9316 27.2871 61.8223 27.1855 61.6543H27.1738C27.1816 61.7324 27.1855 61.8105 27.1855 61.8887V62.9961C27.1855 63.1133 27.127 63.1719 27.0098 63.1719H26.541ZM27.1855 60.5938C27.1855 60.8574 27.2373 61.0723 27.3408 61.2383C27.4463 61.4023 27.5723 61.4844 27.7188 61.4844C27.9824 61.4844 28.1543 61.3926 28.2344 61.209C28.3164 61.0234 28.3574 60.7744 28.3574 60.4619C28.3574 60.1494 28.3164 59.9014 28.2344 59.7178C28.1543 59.5322 27.9824 59.4395 27.7188 59.4395C27.5723 59.4395 27.4463 59.5225 27.3408 59.6885C27.2373 59.8525 27.1855 60.0664 27.1855 60.3301V60.5938ZM30.0332 63.1719C29.916 63.1719 29.8574 63.1133 29.8574 62.9961V59.0996C29.8574 58.9824 29.916 58.9238 30.0332 58.9238H30.4961C30.5938 58.9238 30.6465 58.9824 30.6543 59.0996L30.666 59.2695H30.6777C30.7793 59.1016 30.8926 58.9922 31.0176 58.9414C31.1426 58.8906 31.293 58.8652 31.4688 58.8652C31.9277 58.8652 32.25 59.0244 32.4355 59.3428C32.623 59.6592 32.7168 60.0322 32.7168 60.4619C32.7168 60.8916 32.623 61.2656 32.4355 61.584C32.25 61.9004 31.9277 62.0586 31.4688 62.0586C31.293 62.0586 31.1426 62.0332 31.0176 61.9824C30.8926 61.9316 30.7793 61.8223 30.6777 61.6543H30.666C30.6738 61.7324 30.6777 61.8105 30.6777 61.8887V62.9961C30.6777 63.1133 30.6191 63.1719 30.502 63.1719H30.0332ZM30.6777 60.5938C30.6777 60.8574 30.7295 61.0723 30.833 61.2383C30.9385 61.4023 31.0645 61.4844 31.2109 61.4844C31.4746 61.4844 31.6465 61.3926 31.7266 61.209C31.8086 61.0234 31.8496 60.7744 31.8496 60.4619C31.8496 60.1494 31.8086 59.9014 31.7266 59.7178C31.6465 59.5322 31.4746 59.4395 31.2109 59.4395C31.0645 59.4395 30.9385 59.5225 30.833 59.6885C30.7295 59.8525 30.6777 60.0664 30.6777 60.3301V60.5938ZM33.5254 62C33.4082 62 33.3496 61.9414 33.3496 61.8242V58.3643C33.3496 58.2764 33.3701 58.1963 33.4111 58.124L33.6367 57.7285C33.6797 57.6543 33.7305 57.6172 33.7891 57.6172H33.9941C34.1113 57.6172 34.1699 57.6758 34.1699 57.793V61.8242C34.1699 61.9414 34.1113 62 33.9941 62H33.5254ZM35.1426 62C35.0254 62 34.9668 61.9414 34.9668 61.8242V59.0996C34.9668 58.9824 35.0254 58.9238 35.1426 58.9238H35.6113C35.7285 58.9238 35.7871 58.9824 35.7871 59.0996V61.8242C35.7871 61.9414 35.7285 62 35.6113 62H35.1426ZM35.1426 58.4727C35.0254 58.4727 34.9668 58.4141 34.9668 58.2969V57.9219C34.9668 57.8047 35.0254 57.7461 35.1426 57.7461H35.6113C35.7285 57.7461 35.7871 57.8047 35.7871 57.9219V58.2969C35.7871 58.4141 35.7285 58.4727 35.6113 58.4727H35.1426ZM36.4199 60.4619C36.4199 59.9678 36.543 59.5781 36.7891 59.293C37.0371 59.0078 37.3867 58.8652 37.8379 58.8652C38.3613 58.8652 38.75 59 39.0039 59.2695C39.2578 59.5391 39.3848 59.9727 39.3848 60.5703C39.3848 60.6875 39.3301 60.7461 39.2207 60.7461H37.2871C37.3184 61.0703 37.3984 61.2744 37.5273 61.3584C37.6562 61.4424 37.8057 61.4844 37.9756 61.4844C38.1377 61.4844 38.2617 61.4629 38.3477 61.4199C38.4336 61.377 38.5059 61.3184 38.5645 61.2441C38.6309 61.1582 38.7129 61.1445 38.8105 61.2031L39.1035 61.3818C39.2188 61.4521 39.2354 61.5361 39.1533 61.6338C39.0342 61.7764 38.8945 61.8828 38.7344 61.9531C38.5742 62.0234 38.3213 62.0586 37.9756 62.0586C37.415 62.0586 37.0156 61.916 36.7773 61.6309C36.5391 61.3457 36.4199 60.9561 36.4199 60.4619ZM37.29 60.1602H38.5645C38.5645 59.9492 38.5117 59.7773 38.4062 59.6445C38.3008 59.5098 38.1328 59.4424 37.9023 59.4424C37.7188 59.4424 37.5732 59.5068 37.4658 59.6357C37.3584 59.7627 37.2998 59.9375 37.29 60.1602ZM39.8594 60.4619C39.8594 60.0322 39.9521 59.6592 40.1377 59.3428C40.3252 59.0244 40.6484 58.8652 41.1074 58.8652C41.2832 58.8652 41.4336 58.8906 41.5586 58.9414C41.6836 58.9922 41.7969 59.1016 41.8984 59.2695H41.9102C41.9023 59.1914 41.8984 59.1133 41.8984 59.0352V57.8516C41.8984 57.7344 41.957 57.6758 42.0742 57.6758H42.543C42.6602 57.6758 42.7188 57.7344 42.7188 57.8516V61.8242C42.7188 61.9414 42.6602 62 42.543 62H42.0801C41.9824 62 41.9297 61.9414 41.9219 61.8242L41.9102 61.6543H41.8984C41.7969 61.8223 41.6836 61.9316 41.5586 61.9824C41.4336 62.0332 41.2832 62.0586 41.1074 62.0586C40.6484 62.0586 40.3252 61.9004 40.1377 61.584C39.9521 61.2656 39.8594 60.8916 39.8594 60.4619ZM40.7266 60.4619C40.7266 60.7744 40.7666 61.0234 40.8467 61.209C40.9287 61.3926 41.1016 61.4844 41.3652 61.4844C41.5117 61.4844 41.6367 61.4023 41.7402 61.2383C41.8457 61.0723 41.8984 60.8574 41.8984 60.5938V60.3301C41.8984 60.0664 41.8457 59.8525 41.7402 59.6885C41.6367 59.5225 41.5117 59.4395 41.3652 59.4395C41.1016 59.4395 40.9287 59.5322 40.8467 59.7178C40.7666 59.9014 40.7266 60.1494 40.7266 60.4619Z" fill="white"/>
<path d="M68.542 62C68.4053 62 68.3369 61.9268 68.3369 61.7803V58.0186C68.3369 57.8721 68.4053 57.7988 68.542 57.7988H69.8984C70.502 57.7988 70.9424 57.8926 71.2197 58.0801C71.4971 58.2656 71.6357 58.5684 71.6357 58.9883C71.6357 59.3008 71.5234 59.5498 71.2988 59.7354C71.0742 59.9209 70.7891 60.0439 70.4434 60.1045V60.1104C70.6309 60.1807 70.7725 60.2783 70.8682 60.4033C70.9639 60.5283 71.042 60.6377 71.1025 60.7314L71.7471 61.748C71.8545 61.916 71.8174 62 71.6357 62H71.126C71.0186 62 70.9307 61.9424 70.8623 61.8271L70.2705 60.8398C70.2061 60.7344 70.0879 60.6191 69.916 60.4941C69.7461 60.3672 69.5771 60.3037 69.4092 60.3037H69.1924V61.7803C69.1924 61.9268 69.124 62 68.9873 62H68.542ZM69.1924 59.5771H69.7168C70.1074 59.5771 70.3848 59.5332 70.5488 59.4453C70.7148 59.3555 70.7979 59.2139 70.7979 59.0205C70.7979 58.8096 70.7178 58.6729 70.5576 58.6104C70.3994 58.5459 70.166 58.5137 69.8574 58.5137H69.1924V59.5771ZM72.2861 60.4619C72.2861 59.9678 72.4092 59.5781 72.6553 59.293C72.9033 59.0078 73.2529 58.8652 73.7041 58.8652C74.2275 58.8652 74.6162 59 74.8701 59.2695C75.124 59.5391 75.251 59.9727 75.251 60.5703C75.251 60.6875 75.1963 60.7461 75.0869 60.7461H73.1533C73.1846 61.0703 73.2646 61.2744 73.3936 61.3584C73.5225 61.4424 73.6719 61.4844 73.8418 61.4844C74.0039 61.4844 74.1279 61.4629 74.2139 61.4199C74.2998 61.377 74.3721 61.3184 74.4307 61.2441C74.4971 61.1582 74.5791 61.1445 74.6768 61.2031L74.9697 61.3818C75.085 61.4521 75.1016 61.5361 75.0195 61.6338C74.9004 61.7764 74.7607 61.8828 74.6006 61.9531C74.4404 62.0234 74.1875 62.0586 73.8418 62.0586C73.2812 62.0586 72.8818 61.916 72.6436 61.6309C72.4053 61.3457 72.2861 60.9561 72.2861 60.4619ZM73.1562 60.1602H74.4307C74.4307 59.9492 74.3779 59.7773 74.2725 59.6445C74.167 59.5098 73.999 59.4424 73.7686 59.4424C73.585 59.4424 73.4395 59.5068 73.332 59.6357C73.2246 59.7627 73.166 59.9375 73.1562 60.1602ZM75.6875 59.1523C75.6387 59 75.6709 58.9238 75.7842 58.9238H76.3086C76.4004 58.9238 76.459 58.9736 76.4844 59.0732L76.9385 60.79C76.9639 60.8857 76.9844 60.9805 77 61.0742C77.0176 61.168 77.0283 61.2441 77.0322 61.3027H77.0498C77.0537 61.2441 77.0635 61.168 77.0791 61.0742C77.0967 60.9805 77.1182 60.8857 77.1436 60.79L77.5977 59.0732C77.623 58.9736 77.6816 58.9238 77.7734 58.9238H78.2979C78.4111 58.9238 78.4434 59 78.3945 59.1523L77.5449 61.8037C77.5039 61.9346 77.4326 62 77.3311 62H76.751C76.6494 62 76.5781 61.9346 76.5371 61.8037L75.6875 59.1523ZM79.0186 62C78.9014 62 78.8428 61.9414 78.8428 61.8242V59.0996C78.8428 58.9824 78.9014 58.9238 79.0186 58.9238H79.4873C79.6045 58.9238 79.6631 58.9824 79.6631 59.0996V61.8242C79.6631 61.9414 79.6045 62 79.4873 62H79.0186ZM79.0186 58.4727C78.9014 58.4727 78.8428 58.4141 78.8428 58.2969V57.9219C78.8428 57.8047 78.9014 57.7461 79.0186 57.7461H79.4873C79.6045 57.7461 79.6631 57.8047 79.6631 57.9219V58.2969C79.6631 58.4141 79.6045 58.4727 79.4873 58.4727H79.0186ZM80.2959 60.4619C80.2959 59.9678 80.4189 59.5781 80.665 59.293C80.9131 59.0078 81.2627 58.8652 81.7139 58.8652C82.2373 58.8652 82.626 59 82.8799 59.2695C83.1338 59.5391 83.2607 59.9727 83.2607 60.5703C83.2607 60.6875 83.2061 60.7461 83.0967 60.7461H81.1631C81.1943 61.0703 81.2744 61.2744 81.4033 61.3584C81.5322 61.4424 81.6816 61.4844 81.8516 61.4844C82.0137 61.4844 82.1377 61.4629 82.2236 61.4199C82.3096 61.377 82.3818 61.3184 82.4404 61.2441C82.5068 61.1582 82.5889 61.1445 82.6865 61.2031L82.9795 61.3818C83.0947 61.4521 83.1113 61.5361 83.0293 61.6338C82.9102 61.7764 82.7705 61.8828 82.6104 61.9531C82.4502 62.0234 82.1973 62.0586 81.8516 62.0586C81.291 62.0586 80.8916 61.916 80.6533 61.6309C80.415 61.3457 80.2959 60.9561 80.2959 60.4619ZM81.166 60.1602H82.4404C82.4404 59.9492 82.3877 59.7773 82.2822 59.6445C82.1768 59.5098 82.0088 59.4424 81.7783 59.4424C81.5947 59.4424 81.4492 59.5068 81.3418 59.6357C81.2344 59.7627 81.1758 59.9375 81.166 60.1602ZM83.6885 59.1523C83.6455 59 83.6777 58.9238 83.7852 58.9238H84.2803C84.374 58.9238 84.4326 58.9736 84.4561 59.0732L84.8516 60.79C84.875 60.8896 84.8955 60.9854 84.9131 61.0771C84.9307 61.1689 84.9414 61.2441 84.9453 61.3027H84.9629C84.9668 61.2441 84.9775 61.168 84.9951 61.0742C85.0127 60.9785 85.0332 60.8838 85.0566 60.79L85.4727 59.0732C85.4961 58.9736 85.5547 58.9238 85.6484 58.9238H86.1816C86.2754 58.9238 86.334 58.9736 86.3574 59.0732L86.7734 60.79C86.7969 60.8838 86.8174 60.9785 86.835 61.0742C86.8525 61.168 86.8633 61.2441 86.8672 61.3027H86.8848C86.8887 61.2441 86.8994 61.1689 86.917 61.0771C86.9346 60.9854 86.9551 60.8896 86.9785 60.79L87.374 59.0732C87.3975 58.9736 87.4561 58.9238 87.5498 58.9238H88.0449C88.1523 58.9238 88.1846 59 88.1416 59.1523L87.3799 61.8037C87.3428 61.9346 87.2715 62 87.166 62H86.6357C86.5244 62 86.4531 61.9346 86.4219 61.8037L85.9971 60.0664C85.9717 59.9668 85.9531 59.8867 85.9414 59.8262C85.9316 59.7656 85.9248 59.6982 85.9209 59.624H85.9092C85.9053 59.6982 85.8975 59.7656 85.8857 59.8262C85.876 59.8867 85.8584 59.9668 85.833 60.0664L85.4082 61.8037C85.377 61.9346 85.3057 62 85.1943 62H84.6641C84.5586 62 84.4873 61.9346 84.4502 61.8037L83.6885 59.1523ZM88.4346 60.4619C88.4346 59.9678 88.5576 59.5781 88.8037 59.293C89.0518 59.0078 89.4014 58.8652 89.8525 58.8652C90.376 58.8652 90.7646 59 91.0186 59.2695C91.2725 59.5391 91.3994 59.9727 91.3994 60.5703C91.3994 60.6875 91.3447 60.7461 91.2354 60.7461H89.3018C89.333 61.0703 89.4131 61.2744 89.542 61.3584C89.6709 61.4424 89.8203 61.4844 89.9902 61.4844C90.1523 61.4844 90.2764 61.4629 90.3623 61.4199C90.4482 61.377 90.5205 61.3184 90.5791 61.2441C90.6455 61.1582 90.7275 61.1445 90.8252 61.2031L91.1182 61.3818C91.2334 61.4521 91.25 61.5361 91.168 61.6338C91.0488 61.7764 90.9092 61.8828 90.749 61.9531C90.5889 62.0234 90.3359 62.0586 89.9902 62.0586C89.4297 62.0586 89.0303 61.916 88.792 61.6309C88.5537 61.3457 88.4346 60.9561 88.4346 60.4619ZM89.3047 60.1602H90.5791C90.5791 59.9492 90.5264 59.7773 90.4209 59.6445C90.3154 59.5098 90.1475 59.4424 89.917 59.4424C89.7334 59.4424 89.5879 59.5068 89.4805 59.6357C89.373 59.7627 89.3145 59.9375 89.3047 60.1602ZM91.874 60.4619C91.874 60.0322 91.9668 59.6592 92.1523 59.3428C92.3398 59.0244 92.6631 58.8652 93.1221 58.8652C93.2979 58.8652 93.4482 58.8906 93.5732 58.9414C93.6982 58.9922 93.8115 59.1016 93.9131 59.2695H93.9248C93.917 59.1914 93.9131 59.1133 93.9131 59.0352V57.8516C93.9131 57.7344 93.9717 57.6758 94.0889 57.6758H94.5576C94.6748 57.6758 94.7334 57.7344 94.7334 57.8516V61.8242C94.7334 61.9414 94.6748 62 94.5576 62H94.0947C93.9971 62 93.9443 61.9414 93.9365 61.8242L93.9248 61.6543H93.9131C93.8115 61.8223 93.6982 61.9316 93.5732 61.9824C93.4482 62.0332 93.2979 62.0586 93.1221 62.0586C92.6631 62.0586 92.3398 61.9004 92.1523 61.584C91.9668 61.2656 91.874 60.8916 91.874 60.4619ZM92.7412 60.4619C92.7412 60.7744 92.7812 61.0234 92.8613 61.209C92.9434 61.3926 93.1162 61.4844 93.3799 61.4844C93.5264 61.4844 93.6514 61.4023 93.7549 61.2383C93.8604 61.0723 93.9131 60.8574 93.9131 60.5938V60.3301C93.9131 60.0664 93.8604 59.8525 93.7549 59.6885C93.6514 59.5225 93.5264 59.4395 93.3799 59.4395C93.1162 59.4395 92.9434 59.5322 92.8613 59.7178C92.7812 59.9014 92.7412 60.1494 92.7412 60.4619Z" fill="white"/>
<path d="M115.442 62C115.302 62 115.256 61.9355 115.305 61.8066L116.74 58.0361C116.801 57.8779 116.893 57.7988 117.016 57.7988H117.426C117.549 57.7988 117.641 57.8779 117.701 58.0361L119.137 61.8066C119.186 61.9355 119.14 62 118.999 62H118.533C118.404 62 118.314 61.9326 118.264 61.7979L117.965 61.0098H116.477L116.178 61.7979C116.127 61.9326 116.037 62 115.908 62H115.442ZM116.749 60.2832H117.692L117.332 59.3516C117.289 59.2422 117.263 59.1631 117.253 59.1143C117.245 59.0635 117.236 58.9893 117.227 58.8916H117.215C117.205 58.9893 117.195 59.0635 117.186 59.1143C117.178 59.1631 117.152 59.2422 117.109 59.3516L116.749 60.2832ZM119.764 63.1719C119.646 63.1719 119.588 63.1133 119.588 62.9961V59.0996C119.588 58.9824 119.646 58.9238 119.764 58.9238H120.227C120.324 58.9238 120.377 58.9824 120.385 59.0996L120.396 59.2695H120.408C120.51 59.1016 120.623 58.9922 120.748 58.9414C120.873 58.8906 121.023 58.8652 121.199 58.8652C121.658 58.8652 121.98 59.0244 122.166 59.3428C122.354 59.6592 122.447 60.0322 122.447 60.4619C122.447 60.8916 122.354 61.2656 122.166 61.584C121.98 61.9004 121.658 62.0586 121.199 62.0586C121.023 62.0586 120.873 62.0332 120.748 61.9824C120.623 61.9316 120.51 61.8223 120.408 61.6543H120.396C120.404 61.7324 120.408 61.8105 120.408 61.8887V62.9961C120.408 63.1133 120.35 63.1719 120.232 63.1719H119.764ZM120.408 60.5938C120.408 60.8574 120.46 61.0723 120.563 61.2383C120.669 61.4023 120.795 61.4844 120.941 61.4844C121.205 61.4844 121.377 61.3926 121.457 61.209C121.539 61.0234 121.58 60.7744 121.58 60.4619C121.58 60.1494 121.539 59.9014 121.457 59.7178C121.377 59.5322 121.205 59.4395 120.941 59.4395C120.795 59.4395 120.669 59.5225 120.563 59.6885C120.46 59.8525 120.408 60.0664 120.408 60.3301V60.5938ZM123.256 63.1719C123.139 63.1719 123.08 63.1133 123.08 62.9961V59.0996C123.08 58.9824 123.139 58.9238 123.256 58.9238H123.719C123.816 58.9238 123.869 58.9824 123.877 59.0996L123.889 59.2695H123.9C124.002 59.1016 124.115 58.9922 124.24 58.9414C124.365 58.8906 124.516 58.8652 124.691 58.8652C125.15 58.8652 125.473 59.0244 125.658 59.3428C125.846 59.6592 125.939 60.0322 125.939 60.4619C125.939 60.8916 125.846 61.2656 125.658 61.584C125.473 61.9004 125.15 62.0586 124.691 62.0586C124.516 62.0586 124.365 62.0332 124.24 61.9824C124.115 61.9316 124.002 61.8223 123.9 61.6543H123.889C123.896 61.7324 123.9 61.8105 123.9 61.8887V62.9961C123.9 63.1133 123.842 63.1719 123.725 63.1719H123.256ZM123.9 60.5938C123.9 60.8574 123.952 61.0723 124.056 61.2383C124.161 61.4023 124.287 61.4844 124.434 61.4844C124.697 61.4844 124.869 61.3926 124.949 61.209C125.031 61.0234 125.072 60.7744 125.072 60.4619C125.072 60.1494 125.031 59.9014 124.949 59.7178C124.869 59.5322 124.697 59.4395 124.434 59.4395C124.287 59.4395 124.161 59.5225 124.056 59.6885C123.952 59.8525 123.9 60.0664 123.9 60.3301V60.5938ZM126.748 62C126.631 62 126.572 61.9414 126.572 61.8242V59.0996C126.572 58.9824 126.631 58.9238 126.748 58.9238H127.211C127.328 58.9238 127.387 58.9824 127.387 59.0996V59.3398H127.398C127.449 59.2148 127.534 59.1045 127.653 59.0088C127.772 58.9131 127.913 58.8652 128.075 58.8652C128.187 58.8652 128.278 58.8789 128.351 58.9062C128.419 58.9316 128.445 58.9785 128.43 59.0469L128.348 59.3955C128.33 59.4736 128.277 59.4971 128.189 59.4658C128.139 59.4482 128.09 59.4395 128.043 59.4395C127.855 59.4395 127.7 59.5518 127.577 59.7764C127.454 60.001 127.393 60.3281 127.393 60.7578V61.8242C127.393 61.9414 127.334 62 127.217 62H126.748ZM128.711 60.4619C128.711 59.9639 128.839 59.5732 129.095 59.29C129.353 59.0068 129.735 58.8652 130.243 58.8652C130.751 58.8652 131.133 59.0068 131.389 59.29C131.646 59.5732 131.775 59.9639 131.775 60.4619C131.775 60.96 131.646 61.3506 131.389 61.6338C131.133 61.917 130.751 62.0586 130.243 62.0586C129.735 62.0586 129.353 61.917 129.095 61.6338C128.839 61.3506 128.711 60.96 128.711 60.4619ZM129.578 60.4619C129.578 60.833 129.635 61.0967 129.748 61.2529C129.863 61.4072 130.028 61.4844 130.243 61.4844C130.458 61.4844 130.622 61.4072 130.735 61.2529C130.851 61.0967 130.908 60.833 130.908 60.4619C130.908 60.0908 130.851 59.8281 130.735 59.6738C130.622 59.5176 130.458 59.4395 130.243 59.4395C130.028 59.4395 129.863 59.5176 129.748 59.6738C129.635 59.8281 129.578 60.0908 129.578 60.4619ZM132.206 59.1523C132.157 59 132.189 58.9238 132.303 58.9238H132.827C132.919 58.9238 132.978 58.9736 133.003 59.0732L133.457 60.79C133.482 60.8857 133.503 60.9805 133.519 61.0742C133.536 61.168 133.547 61.2441 133.551 61.3027H133.568C133.572 61.2441 133.582 61.168 133.598 61.0742C133.615 60.9805 133.637 60.8857 133.662 60.79L134.116 59.0732C134.142 58.9736 134.2 58.9238 134.292 58.9238H134.816C134.93 58.9238 134.962 59 134.913 59.1523L134.063 61.8037C134.022 61.9346 133.951 62 133.85 62H133.27C133.168 62 133.097 61.9346 133.056 61.8037L132.206 59.1523ZM135.197 60.4619C135.197 59.9678 135.32 59.5781 135.566 59.293C135.814 59.0078 136.164 58.8652 136.615 58.8652C137.139 58.8652 137.527 59 137.781 59.2695C138.035 59.5391 138.162 59.9727 138.162 60.5703C138.162 60.6875 138.107 60.7461 137.998 60.7461H136.064C136.096 61.0703 136.176 61.2744 136.305 61.3584C136.434 61.4424 136.583 61.4844 136.753 61.4844C136.915 61.4844 137.039 61.4629 137.125 61.4199C137.211 61.377 137.283 61.3184 137.342 61.2441C137.408 61.1582 137.49 61.1445 137.588 61.2031L137.881 61.3818C137.996 61.4521 138.013 61.5361 137.931 61.6338C137.812 61.7764 137.672 61.8828 137.512 61.9531C137.352 62.0234 137.099 62.0586 136.753 62.0586C136.192 62.0586 135.793 61.916 135.555 61.6309C135.316 61.3457 135.197 60.9561 135.197 60.4619ZM136.067 60.1602H137.342C137.342 59.9492 137.289 59.7773 137.184 59.6445C137.078 59.5098 136.91 59.4424 136.68 59.4424C136.496 59.4424 136.351 59.5068 136.243 59.6357C136.136 59.7627 136.077 59.9375 136.067 60.1602ZM138.637 60.4619C138.637 60.0322 138.729 59.6592 138.915 59.3428C139.103 59.0244 139.426 58.8652 139.885 58.8652C140.061 58.8652 140.211 58.8906 140.336 58.9414C140.461 58.9922 140.574 59.1016 140.676 59.2695H140.688C140.68 59.1914 140.676 59.1133 140.676 59.0352V57.8516C140.676 57.7344 140.734 57.6758 140.852 57.6758H141.32C141.438 57.6758 141.496 57.7344 141.496 57.8516V61.8242C141.496 61.9414 141.438 62 141.32 62H140.857C140.76 62 140.707 61.9414 140.699 61.8242L140.688 61.6543H140.676C140.574 61.8223 140.461 61.9316 140.336 61.9824C140.211 62.0332 140.061 62.0586 139.885 62.0586C139.426 62.0586 139.103 61.9004 138.915 61.584C138.729 61.2656 138.637 60.8916 138.637 60.4619ZM139.504 60.4619C139.504 60.7744 139.544 61.0234 139.624 61.209C139.706 61.3926 139.879 61.4844 140.143 61.4844C140.289 61.4844 140.414 61.4023 140.518 61.2383C140.623 61.0723 140.676 60.8574 140.676 60.5938V60.3301C140.676 60.0664 140.623 59.8525 140.518 59.6885C140.414 59.5225 140.289 59.4395 140.143 59.4395C139.879 59.4395 139.706 59.5322 139.624 59.7178C139.544 59.9014 139.504 60.1494 139.504 60.4619Z" fill="white"/>
<path d="M162.346 59.8994C162.346 59.2256 162.517 58.6904 162.858 58.2939C163.2 57.8975 163.693 57.6992 164.338 57.6992C164.709 57.6992 165.023 57.7568 165.281 57.8721C165.539 57.9873 165.721 58.1543 165.826 58.373C165.896 58.5176 165.885 58.6152 165.791 58.666L165.439 58.8535C165.316 58.9199 165.215 58.8828 165.135 58.7422C165.084 58.6523 164.989 58.5713 164.851 58.499C164.714 58.4268 164.553 58.3906 164.367 58.3906C163.957 58.3906 163.67 58.5205 163.506 58.7803C163.342 59.0381 163.26 59.4111 163.26 59.8994C163.26 60.3877 163.342 60.7617 163.506 61.0215C163.67 61.2793 163.957 61.4082 164.367 61.4082C164.588 61.4082 164.773 61.3584 164.924 61.2588C165.076 61.1592 165.182 61.0645 165.24 60.9746C165.336 60.8281 165.438 60.791 165.545 60.8633L165.896 61.0977C165.992 61.1621 166.002 61.2598 165.926 61.3906C165.812 61.5859 165.618 61.7529 165.343 61.8916C165.067 62.0303 164.732 62.0996 164.338 62.0996C163.703 62.0996 163.212 61.9014 162.864 61.5049C162.519 61.1084 162.346 60.5732 162.346 59.8994ZM166.482 60.4619C166.482 59.9639 166.61 59.5732 166.866 59.29C167.124 59.0068 167.507 58.8652 168.015 58.8652C168.522 58.8652 168.904 59.0068 169.16 59.29C169.418 59.5732 169.547 59.9639 169.547 60.4619C169.547 60.96 169.418 61.3506 169.16 61.6338C168.904 61.917 168.522 62.0586 168.015 62.0586C167.507 62.0586 167.124 61.917 166.866 61.6338C166.61 61.3506 166.482 60.96 166.482 60.4619ZM167.35 60.4619C167.35 60.833 167.406 61.0967 167.52 61.2529C167.635 61.4072 167.8 61.4844 168.015 61.4844C168.229 61.4844 168.394 61.4072 168.507 61.2529C168.622 61.0967 168.68 60.833 168.68 60.4619C168.68 60.0908 168.622 59.8281 168.507 59.6738C168.394 59.5176 168.229 59.4395 168.015 59.4395C167.8 59.4395 167.635 59.5176 167.52 59.6738C167.406 59.8281 167.35 60.0908 167.35 60.4619ZM170.355 62C170.238 62 170.18 61.9414 170.18 61.8242V58.3643C170.18 58.2764 170.2 58.1963 170.241 58.124L170.467 57.7285C170.51 57.6543 170.561 57.6172 170.619 57.6172H170.824C170.941 57.6172 171 57.6758 171 57.793V61.8242C171 61.9414 170.941 62 170.824 62H170.355ZM171.973 62C171.855 62 171.797 61.9414 171.797 61.8242V58.3643C171.797 58.2764 171.817 58.1963 171.858 58.124L172.084 57.7285C172.127 57.6543 172.178 57.6172 172.236 57.6172H172.441C172.559 57.6172 172.617 57.6758 172.617 57.793V61.8242C172.617 61.9414 172.559 62 172.441 62H171.973ZM173.25 60.4619C173.25 59.9678 173.373 59.5781 173.619 59.293C173.867 59.0078 174.217 58.8652 174.668 58.8652C175.191 58.8652 175.58 59 175.834 59.2695C176.088 59.5391 176.215 59.9727 176.215 60.5703C176.215 60.6875 176.16 60.7461 176.051 60.7461H174.117C174.148 61.0703 174.229 61.2744 174.357 61.3584C174.486 61.4424 174.636 61.4844 174.806 61.4844C174.968 61.4844 175.092 61.4629 175.178 61.4199C175.264 61.377 175.336 61.3184 175.395 61.2441C175.461 61.1582 175.543 61.1445 175.641 61.2031L175.934 61.3818C176.049 61.4521 176.065 61.5361 175.983 61.6338C175.864 61.7764 175.725 61.8828 175.564 61.9531C175.404 62.0234 175.151 62.0586 174.806 62.0586C174.245 62.0586 173.846 61.916 173.607 61.6309C173.369 61.3457 173.25 60.9561 173.25 60.4619ZM174.12 60.1602H175.395C175.395 59.9492 175.342 59.7773 175.236 59.6445C175.131 59.5098 174.963 59.4424 174.732 59.4424C174.549 59.4424 174.403 59.5068 174.296 59.6357C174.188 59.7627 174.13 59.9375 174.12 60.1602ZM176.689 60.4619C176.689 59.9639 176.814 59.5732 177.064 59.29C177.314 59.0068 177.698 58.8652 178.216 58.8652C178.519 58.8652 178.754 58.9053 178.922 58.9854C179.09 59.0654 179.225 59.1826 179.326 59.3369C179.387 59.4287 179.377 59.501 179.297 59.5537L178.986 59.7588C178.898 59.8174 178.821 59.7949 178.755 59.6914C178.722 59.6406 178.658 59.5859 178.564 59.5273C178.471 59.4688 178.354 59.4395 178.216 59.4395C177.995 59.4395 177.83 59.5176 177.721 59.6738C177.611 59.8281 177.557 60.0908 177.557 60.4619C177.557 60.833 177.611 61.0967 177.721 61.2529C177.83 61.4072 177.995 61.4844 178.216 61.4844C178.374 61.4844 178.502 61.4512 178.6 61.3848C178.697 61.3184 178.789 61.2324 178.875 61.127C178.949 61.0371 179.027 61.0244 179.109 61.0889L179.382 61.3027C179.464 61.3672 179.469 61.4531 179.396 61.5605C179.32 61.6738 179.19 61.7852 179.007 61.8945C178.825 62.0039 178.562 62.0586 178.216 62.0586C177.698 62.0586 177.314 61.917 177.064 61.6338C176.814 61.3506 176.689 60.96 176.689 60.4619ZM179.933 59.5098C179.817 59.5098 179.76 59.4609 179.76 59.3633V59.0703C179.76 58.9727 179.817 58.9238 179.933 58.9238H180.132V58.8213C180.132 58.7334 180.152 58.6533 180.193 58.5811L180.419 58.1855C180.462 58.1113 180.513 58.0742 180.571 58.0742H180.776C180.894 58.0742 180.952 58.1328 180.952 58.25V58.9238H181.427C181.542 58.9238 181.6 58.9727 181.6 59.0703V59.3633C181.6 59.4609 181.542 59.5098 181.427 59.5098H180.952V60.9629C180.952 61.1621 180.966 61.3057 180.993 61.3936C181.022 61.4795 181.097 61.5225 181.216 61.5225C181.276 61.5225 181.345 61.5127 181.421 61.4932C181.497 61.4717 181.557 61.4512 181.6 61.4316C181.668 61.4004 181.713 61.4229 181.734 61.499L181.822 61.833C181.84 61.8994 181.814 61.9482 181.746 61.9795C181.682 62.0088 181.593 62.0352 181.479 62.0586C181.368 62.084 181.256 62.0967 181.143 62.0967C180.863 62.0967 180.625 62.0391 180.428 61.9238C180.23 61.8086 180.132 61.5713 180.132 61.2119V59.5098H179.933ZM182.209 60.4619C182.209 59.9678 182.332 59.5781 182.578 59.293C182.826 59.0078 183.176 58.8652 183.627 58.8652C184.15 58.8652 184.539 59 184.793 59.2695C185.047 59.5391 185.174 59.9727 185.174 60.5703C185.174 60.6875 185.119 60.7461 185.01 60.7461H183.076C183.107 61.0703 183.188 61.2744 183.316 61.3584C183.445 61.4424 183.595 61.4844 183.765 61.4844C183.927 61.4844 184.051 61.4629 184.137 61.4199C184.223 61.377 184.295 61.3184 184.354 61.2441C184.42 61.1582 184.502 61.1445 184.6 61.2031L184.893 61.3818C185.008 61.4521 185.024 61.5361 184.942 61.6338C184.823 61.7764 184.684 61.8828 184.523 61.9531C184.363 62.0234 184.11 62.0586 183.765 62.0586C183.204 62.0586 182.805 61.916 182.566 61.6309C182.328 61.3457 182.209 60.9561 182.209 60.4619ZM183.079 60.1602H184.354C184.354 59.9492 184.301 59.7773 184.195 59.6445C184.09 59.5098 183.922 59.4424 183.691 59.4424C183.508 59.4424 183.362 59.5068 183.255 59.6357C183.147 59.7627 183.089 59.9375 183.079 60.1602ZM185.648 60.4619C185.648 60.0322 185.741 59.6592 185.927 59.3428C186.114 59.0244 186.438 58.8652 186.896 58.8652C187.072 58.8652 187.223 58.8906 187.348 58.9414C187.473 58.9922 187.586 59.1016 187.688 59.2695H187.699C187.691 59.1914 187.688 59.1133 187.688 59.0352V57.8516C187.688 57.7344 187.746 57.6758 187.863 57.6758H188.332C188.449 57.6758 188.508 57.7344 188.508 57.8516V61.8242C188.508 61.9414 188.449 62 188.332 62H187.869C187.771 62 187.719 61.9414 187.711 61.8242L187.699 61.6543H187.688C187.586 61.8223 187.473 61.9316 187.348 61.9824C187.223 62.0332 187.072 62.0586 186.896 62.0586C186.438 62.0586 186.114 61.9004 185.927 61.584C185.741 61.2656 185.648 60.8916 185.648 60.4619ZM186.516 60.4619C186.516 60.7744 186.556 61.0234 186.636 61.209C186.718 61.3926 186.891 61.4844 187.154 61.4844C187.301 61.4844 187.426 61.4023 187.529 61.2383C187.635 61.0723 187.688 60.8574 187.688 60.5938V60.3301C187.688 60.0664 187.635 59.8525 187.529 59.6885C187.426 59.5225 187.301 59.4395 187.154 59.4395C186.891 59.4395 186.718 59.5322 186.636 59.7178C186.556 59.9014 186.516 60.1494 186.516 60.4619Z" fill="white"/>
<path d="M40.6079 25.214C40.4955 25.0812 40.3619 24.9758 40.2147 24.9039C40.0674 24.832 39.9095 24.7949 39.75 24.7949C39.5904 24.7949 39.4325 24.832 39.2853 24.9039C39.138 24.9758 39.0044 25.0812 38.892 25.214L29.89 35.7823L26.1079 31.334C25.9912 31.2019 25.8536 31.098 25.7027 31.0283C25.5518 30.9586 25.3907 30.9244 25.2286 30.9277C25.0665 30.931 24.9065 30.9717 24.7577 31.0475C24.609 31.1233 24.4745 31.2326 24.3618 31.3694C24.2492 31.5061 24.1606 31.6675 24.1011 31.8444C24.0417 32.0213 24.0125 32.2102 24.0153 32.4003C24.0181 32.5904 24.0528 32.7779 24.1175 32.9523C24.1821 33.1267 24.2754 33.2844 24.392 33.4165L29.032 38.8565C29.1444 38.9893 29.278 39.0946 29.4253 39.1666C29.5725 39.2385 29.7304 39.2755 29.89 39.2755C30.0495 39.2755 30.2074 39.2385 30.3547 39.1666C30.5019 39.0946 30.6355 38.9893 30.7479 38.8565L40.6079 27.2965C40.7305 27.1638 40.8284 27.0028 40.8954 26.8236C40.9623 26.6444 40.9969 26.4509 40.9969 26.2552C40.9969 26.0596 40.9623 25.8661 40.8954 25.6868C40.8284 25.5076 40.7305 25.3466 40.6079 25.214Z" fill="#FFFCFC"/>
<path d="M87.6079 25.214C87.4955 25.0812 87.3619 24.9758 87.2147 24.9039C87.0674 24.832 86.9095 24.7949 86.75 24.7949C86.5904 24.7949 86.4325 24.832 86.2853 24.9039C86.138 24.9758 86.0044 25.0812 85.892 25.214L76.89 35.7823L73.1079 31.334C72.9912 31.2019 72.8536 31.098 72.7027 31.0283C72.5518 30.9586 72.3907 30.9244 72.2286 30.9277C72.0665 30.931 71.9065 30.9717 71.7577 31.0475C71.609 31.1233 71.4745 31.2326 71.3618 31.3694C71.2492 31.5061 71.1606 31.6675 71.1011 31.8444C71.0417 32.0213 71.0125 32.2102 71.0153 32.4003C71.0181 32.5904 71.0528 32.7779 71.1175 32.9523C71.1821 33.1267 71.2754 33.2844 71.392 33.4165L76.032 38.8565C76.1444 38.9893 76.278 39.0946 76.4253 39.1666C76.5725 39.2385 76.7304 39.2755 76.89 39.2755C77.0495 39.2755 77.2074 39.2385 77.3547 39.1666C77.5019 39.0946 77.6355 38.9893 77.7479 38.8565L87.6079 27.2965C87.7305 27.1638 87.8284 27.0028 87.8954 26.8236C87.9623 26.6444 87.9969 26.4509 87.9969 26.2552C87.9969 26.0596 87.9623 25.8661 87.8954 25.6868C87.8284 25.5076 87.7305 25.3466 87.6079 25.214Z" fill="#FFFCFC"/>
<path d="M134.608 25.214C134.496 25.0812 134.362 24.9758 134.215 24.9039C134.067 24.832 133.909 24.7949 133.75 24.7949C133.59 24.7949 133.433 24.832 133.285 24.9039C133.138 24.9758 133.004 25.0812 132.892 25.214L123.89 35.7823L120.108 31.334C119.991 31.2019 119.854 31.098 119.703 31.0283C119.552 30.9586 119.391 30.9244 119.229 30.9277C119.066 30.931 118.906 30.9717 118.758 31.0475C118.609 31.1233 118.474 31.2326 118.362 31.3694C118.249 31.5061 118.161 31.6675 118.101 31.8444C118.042 32.0213 118.013 32.2102 118.015 32.4003C118.018 32.5904 118.053 32.7779 118.117 32.9523C118.182 33.1267 118.275 33.2844 118.392 33.4165L123.032 38.8565C123.144 38.9893 123.278 39.0946 123.425 39.1666C123.573 39.2385 123.73 39.2755 123.89 39.2755C124.049 39.2755 124.207 39.2385 124.355 39.1666C124.502 39.0946 124.636 38.9893 124.748 38.8565L134.608 27.2965C134.731 27.1638 134.828 27.0028 134.895 26.8236C134.962 26.6444 134.997 26.4509 134.997 26.2552C134.997 26.0596 134.962 25.8661 134.895 25.6868C134.828 25.5076 134.731 25.3466 134.608 25.214Z" fill="#FFFCFC"/>
<path d="M180.608 25.214C180.496 25.0812 180.362 24.9758 180.215 24.9039C180.067 24.832 179.909 24.7949 179.75 24.7949C179.59 24.7949 179.433 24.832 179.285 24.9039C179.138 24.9758 179.004 25.0812 178.892 25.214L169.89 35.7823L166.108 31.334C165.991 31.2019 165.854 31.098 165.703 31.0283C165.552 30.9586 165.391 30.9244 165.229 30.9277C165.066 30.931 164.906 30.9717 164.758 31.0475C164.609 31.1233 164.474 31.2326 164.362 31.3694C164.249 31.5061 164.161 31.6675 164.101 31.8444C164.042 32.0213 164.013 32.2102 164.015 32.4003C164.018 32.5904 164.053 32.7779 164.117 32.9523C164.182 33.1267 164.275 33.2844 164.392 33.4165L169.032 38.8565C169.144 38.9893 169.278 39.0946 169.425 39.1666C169.573 39.2385 169.73 39.2755 169.89 39.2755C170.049 39.2755 170.207 39.2385 170.355 39.1666C170.502 39.0946 170.636 38.9893 170.748 38.8565L180.608 27.2965C180.731 27.1638 180.828 27.0028 180.895 26.8236C180.962 26.6444 180.997 26.4509 180.997 26.2552C180.997 26.0596 180.962 25.8661 180.895 25.6868C180.828 25.5076 180.731 25.3466 180.608 25.214Z" fill="#FFFCFC"/>
<defs>
<filter id="filter0_d_183_514" x="0" y="0" width="209" height="85" filterUnits="userSpaceOnUse" color-interpolation-filters="sRGB">
<feFlood flood-opacity="0" result="BackgroundImageFix"/>
<feColorMatrix in="SourceAlpha" type="matrix" values="0 0 0 0 0 0 0 0 0 0 0 0 0 0 0 0 0 0 127 0" result="hardAlpha"/>
<feMorphology radius="2" operator="dilate" in="SourceAlpha" result="effect1_dropShadow_183_514"/>
<feOffset dy="4"/>
<feGaussianBlur stdDeviation="2"/>
<feComposite in2="hardAlpha" operator="out"/>
<feColorMatrix type="matrix" values="0 0 0 0 0 0 0 0 0 0 0 0 0 0 0 0 0 0 0.25 0"/>
<feBlend mode="normal" in2="BackgroundImageFix" result="effect1_dropShadow_183_514"/>
<feBlend mode="normal" in="SourceGraphic" in2="effect1_dropShadow_183_514" result="shape"/>
</filter>
</defs>
</svg>
