<svg width="240" height="198" viewBox="0 0 240 198" fill="none" xmlns="http://www.w3.org/2000/svg">
<g filter="url(#filter0_d_403_2)">
<rect x="5" y="25" width="226" height="161" rx="22" fill="#35A7FF"/>
<rect x="5.5" y="25.5" width="225" height="160" rx="21.5" stroke="#FFFCFC"/>
</g>
<g filter="url(#filter1_d_403_2)">
<rect x="28" y="1" width="47" height="47" rx="12" fill="#35A7FF"/>
<rect x="28.5" y="1.5" width="46" height="46" rx="11.5" stroke="#FFFCFC"/>
</g>
<path d="M56.5625 27.8H46.4375C45.9899 27.8 45.5607 27.9738 45.2443 28.2833C44.9278 28.5927 44.75 29.0124 44.75 29.45C44.75 29.8876 44.9278 30.3073 45.2443 30.6167C45.5607 30.9262 45.9899 31.1 46.4375 31.1H56.5625C57.0101 31.1 57.4393 30.9262 57.7557 30.6167C58.0722 30.3073 58.25 29.8876 58.25 29.45C58.25 29.0124 58.0722 28.5927 57.7557 28.2833C57.4393 27.9738 57.0101 27.8 56.5625 27.8ZM56.5625 21.2H49.8125C49.3649 21.2 48.9357 21.3738 48.6193 21.6833C48.3028 21.9927 48.125 22.4124 48.125 22.85C48.125 23.2876 48.3028 23.7073 48.6193 24.0167C48.9357 24.3262 49.3649 24.5 49.8125 24.5H56.5625C57.0101 24.5 57.4393 24.3262 57.7557 24.0167C58.0722 23.7073 58.25 23.2876 58.25 22.85C58.25 22.4124 58.0722 21.9927 57.7557 21.6833C57.4393 21.3738 57.0101 21.2 56.5625 21.2ZM59.9375 11.3H57.9462C57.5981 10.3371 56.9539 9.50315 56.1019 8.91235C55.25 8.32155 54.232 8.00287 53.1875 8H49.8125C48.768 8.00287 47.75 8.32155 46.8981 8.91235C46.0461 9.50315 45.4019 10.3371 45.0538 11.3H43.0625C41.7198 11.3 40.4322 11.8215 39.4828 12.7498C38.5334 13.6781 38 14.9372 38 16.25V36.05C38 37.3628 38.5334 38.6219 39.4828 39.5502C40.4322 40.4785 41.7198 41 43.0625 41H59.9375C61.2802 41 62.5678 40.4785 63.5172 39.5502C64.4666 38.6219 65 37.3628 65 36.05V16.25C65 14.9372 64.4666 13.6781 63.5172 12.7498C62.5678 11.8215 61.2802 11.3 59.9375 11.3ZM48.125 12.95C48.125 12.5124 48.3028 12.0927 48.6193 11.7833C48.9357 11.4738 49.3649 11.3 49.8125 11.3H53.1875C53.6351 11.3 54.0643 11.4738 54.3807 11.7833C54.6972 12.0927 54.875 12.5124 54.875 12.95V14.6H48.125V12.95ZM61.625 36.05C61.625 36.4876 61.4472 36.9073 61.1307 37.2167C60.8143 37.5262 60.3851 37.7 59.9375 37.7H43.0625C42.6149 37.7 42.1857 37.5262 41.8693 37.2167C41.5528 36.9073 41.375 36.4876 41.375 36.05V16.25C41.375 15.8124 41.5528 15.3927 41.8693 15.0833C42.1857 14.7738 42.6149 14.6 43.0625 14.6H44.75V16.25C44.75 16.6876 44.9278 17.1073 45.2443 17.4167C45.5607 17.7262 45.9899 17.9 46.4375 17.9H56.5625C57.0101 17.9 57.4393 17.7262 57.7557 17.4167C58.0722 17.1073 58.25 16.6876 58.25 16.25V14.6H59.9375C60.3851 14.6 60.8143 14.7738 61.1307 15.0833C61.4472 15.3927 61.625 15.8124 61.625 16.25V36.05Z" fill="white"/>
<path d="M34.7969 72C34.4323 72 34.25 71.8047 34.25 71.4141V61.3828C34.25 60.9922 34.4323 60.7969 34.7969 60.7969H35.9531C36.401 60.7969 36.7396 60.9792 36.9688 61.3438L40.9531 67.7422H41.0078C40.9818 67.4297 40.9688 67.1172 40.9688 66.8047V61.3828C40.9688 60.9922 41.151 60.7969 41.5156 60.7969H42.7031C43.0677 60.7969 43.25 60.9922 43.25 61.3828V71.4141C43.25 71.8047 43.0677 72 42.7031 72H41.625C41.1771 72 40.8385 71.8177 40.6094 71.4531L36.5469 64.9375H36.4922C36.5182 65.25 36.5312 65.5625 36.5312 65.875V71.4141C36.5312 71.8047 36.349 72 35.9844 72H34.7969ZM45.125 67.8984C45.125 66.5703 45.4661 65.5286 46.1484 64.7734C46.8359 64.0182 47.8568 63.6406 49.2109 63.6406C50.5651 63.6406 51.5833 64.0182 52.2656 64.7734C52.9531 65.5286 53.2969 66.5703 53.2969 67.8984C53.2969 69.2266 52.9531 70.2682 52.2656 71.0234C51.5833 71.7786 50.5651 72.1562 49.2109 72.1562C47.8568 72.1562 46.8359 71.7786 46.1484 71.0234C45.4661 70.2682 45.125 69.2266 45.125 67.8984ZM47.4375 67.8984C47.4375 68.888 47.5885 69.5911 47.8906 70.0078C48.1979 70.4193 48.638 70.625 49.2109 70.625C49.7839 70.625 50.2214 70.4193 50.5234 70.0078C50.8307 69.5911 50.9844 68.888 50.9844 67.8984C50.9844 66.9089 50.8307 66.2083 50.5234 65.7969C50.2214 65.3802 49.7839 65.1719 49.2109 65.1719C48.638 65.1719 48.1979 65.3802 47.8906 65.7969C47.5885 66.2083 47.4375 66.9089 47.4375 67.8984ZM54.7109 65.3594C54.4036 65.3594 54.25 65.2292 54.25 64.9688V64.1875C54.25 63.9271 54.4036 63.7969 54.7109 63.7969H55.2422V63.5234C55.2422 63.2891 55.2969 63.0755 55.4062 62.8828L56.0078 61.8281C56.1224 61.6302 56.2578 61.5312 56.4141 61.5312H56.9609C57.2734 61.5312 57.4297 61.6875 57.4297 62V63.7969H58.6953C59.0026 63.7969 59.1562 63.9271 59.1562 64.1875V64.9688C59.1562 65.2292 59.0026 65.3594 58.6953 65.3594H57.4297V69.2344C57.4297 69.7656 57.4661 70.1484 57.5391 70.3828C57.6172 70.612 57.8151 70.7266 58.1328 70.7266C58.2943 70.7266 58.4766 70.7005 58.6797 70.6484C58.8828 70.5911 59.0417 70.5365 59.1562 70.4844C59.3385 70.401 59.4583 70.4609 59.5156 70.6641L59.75 71.5547C59.7969 71.7318 59.7292 71.862 59.5469 71.9453C59.375 72.0234 59.138 72.0938 58.8359 72.1562C58.5391 72.224 58.2396 72.2578 57.9375 72.2578C57.1927 72.2578 56.5573 72.1042 56.0312 71.7969C55.5052 71.4896 55.2422 70.8568 55.2422 69.8984V65.3594H54.7109ZM60.7812 67.8984C60.7812 66.5807 61.1094 65.5417 61.7656 64.7812C62.4271 64.0208 63.3594 63.6406 64.5625 63.6406C65.9583 63.6406 66.9948 64 67.6719 64.7188C68.349 65.4375 68.6875 66.5938 68.6875 68.1875C68.6875 68.5 68.5417 68.6562 68.25 68.6562H63.0938C63.1771 69.5208 63.3906 70.0651 63.7344 70.2891C64.0781 70.513 64.4766 70.625 64.9297 70.625C65.362 70.625 65.6927 70.5677 65.9219 70.4531C66.151 70.3385 66.3438 70.1823 66.5 69.9844C66.6771 69.7552 66.8958 69.7188 67.1562 69.875L67.9375 70.3516C68.2448 70.5391 68.2891 70.763 68.0703 71.0234C67.7526 71.4036 67.3802 71.6875 66.9531 71.875C66.526 72.0625 65.8516 72.1562 64.9297 72.1562C63.4349 72.1562 62.3698 71.776 61.7344 71.0156C61.099 70.2552 60.7812 69.2161 60.7812 67.8984ZM63.1016 67.0938H66.5C66.5 66.5312 66.3594 66.0729 66.0781 65.7188C65.7969 65.3594 65.349 65.1797 64.7344 65.1797C64.2448 65.1797 63.8568 65.3516 63.5703 65.6953C63.2839 66.0339 63.1276 66.5 63.1016 67.0938ZM70.2266 71.4531C69.9714 71.2708 69.901 71.0755 70.0156 70.8672L70.4141 70.1406C70.5547 69.8802 70.7734 69.849 71.0703 70.0469C71.3672 70.2448 71.7161 70.3906 72.1172 70.4844C72.5234 70.5781 72.8932 70.625 73.2266 70.625C73.4609 70.625 73.6797 70.6016 73.8828 70.5547C74.0859 70.5078 74.2578 70.4167 74.3984 70.2812C74.5391 70.1458 74.6094 69.9479 74.6094 69.6875C74.6094 69.5312 74.5677 69.3984 74.4844 69.2891C74.401 69.1797 74.2943 69.0964 74.1641 69.0391C74.0339 68.9818 73.8958 68.9349 73.75 68.8984C73.5573 68.8516 73.2786 68.7734 72.9141 68.6641C72.5547 68.5547 72.2083 68.4271 71.875 68.2812C71.599 68.1615 71.3281 67.9948 71.0625 67.7812C70.8021 67.5625 70.6094 67.3203 70.4844 67.0547C70.3646 66.7891 70.3047 66.4609 70.3047 66.0703C70.3047 65.5443 70.4557 65.0833 70.7578 64.6875C71.0651 64.2917 71.4609 64.0182 71.9453 63.8672C72.4297 63.7161 73.0339 63.6406 73.7578 63.6406C74.2474 63.6406 74.724 63.7109 75.1875 63.8516C75.651 63.9922 75.9818 64.125 76.1797 64.25C76.4922 64.4479 76.5703 64.6589 76.4141 64.8828L75.9375 65.5781C75.7917 65.7865 75.5573 65.8021 75.2344 65.625C74.9896 65.4896 74.7474 65.3802 74.5078 65.2969C74.2734 65.2135 74.0104 65.1719 73.7188 65.1719C73.5208 65.1719 73.3307 65.1927 73.1484 65.2344C72.9661 65.276 72.8099 65.3542 72.6797 65.4688C72.5547 65.5833 72.4922 65.7344 72.4922 65.9219C72.4922 66.1198 72.5495 66.276 72.6641 66.3906C72.7839 66.5 72.9193 66.5807 73.0703 66.6328C73.2266 66.6849 73.375 66.7344 73.5156 66.7812C73.8073 66.875 74.1016 66.9661 74.3984 67.0547C74.6953 67.138 74.9974 67.2396 75.3047 67.3594C75.5703 67.4635 75.8281 67.612 76.0781 67.8047C76.3281 67.9974 76.5104 68.2422 76.625 68.5391C76.7396 68.8359 76.7969 69.1745 76.7969 69.5547C76.7969 70.0599 76.6458 70.5286 76.3438 70.9609C76.0417 71.3932 75.6432 71.7005 75.1484 71.8828C74.6536 72.0651 74.0781 72.1562 73.4219 72.1562C72.6875 72.1562 72.0625 72.1042 71.5469 72C71.0312 71.8958 70.5911 71.7135 70.2266 71.4531ZM33.4619 107.149C33.4619 105.914 33.7752 104.932 34.4019 104.206C35.0285 103.479 35.9326 103.115 37.1143 103.115C37.7946 103.115 38.3711 103.221 38.8438 103.432C39.3164 103.643 39.6494 103.95 39.8428 104.351C39.9717 104.616 39.9502 104.795 39.7783 104.888L39.1338 105.231C38.9082 105.353 38.722 105.285 38.5752 105.027C38.4821 104.863 38.3084 104.714 38.0542 104.582C37.8035 104.449 37.5081 104.383 37.168 104.383C36.416 104.383 35.8896 104.621 35.5889 105.097C35.2881 105.57 35.1377 106.254 35.1377 107.149C35.1377 108.044 35.2881 108.73 35.5889 109.206C35.8896 109.679 36.416 109.915 37.168 109.915C37.5726 109.915 37.9128 109.824 38.1885 109.641C38.4678 109.458 38.6611 109.285 38.7686 109.12C38.944 108.852 39.1302 108.784 39.3271 108.916L39.9717 109.346C40.1471 109.464 40.165 109.643 40.0254 109.883C39.8177 110.241 39.4614 110.547 38.9565 110.801C38.4517 111.056 37.8376 111.183 37.1143 111.183C35.9505 111.183 35.05 110.819 34.4126 110.092C33.7788 109.365 33.4619 108.384 33.4619 107.149ZM41.3359 108.658V105.683C41.3359 105.468 41.4434 105.36 41.6582 105.36H42.5176C42.7324 105.36 42.8398 105.468 42.8398 105.683V108.271C42.8398 109.052 42.8936 109.544 43.001 109.749C43.1084 109.953 43.334 110.055 43.6777 110.055C44.043 110.055 44.3205 109.91 44.5103 109.62C44.7 109.326 44.7949 108.719 44.7949 107.799V105.683C44.7949 105.468 44.9023 105.36 45.1172 105.36H45.9766C46.1914 105.36 46.2988 105.468 46.2988 105.683V110.678C46.2988 110.893 46.1914 111 45.9766 111H45.1279C44.9131 111 44.8057 110.893 44.8057 110.678V110.366H44.7842C44.6195 110.649 44.41 110.844 44.1558 110.952C43.9015 111.056 43.6007 111.107 43.2534 111.107C42.7056 111.107 42.249 110.932 41.8838 110.581C41.5186 110.23 41.3359 109.589 41.3359 108.658ZM47.647 110.624C47.4715 110.499 47.4232 110.364 47.502 110.221L47.7759 109.722C47.8726 109.543 48.0229 109.521 48.2271 109.657C48.4312 109.793 48.6711 109.894 48.9468 109.958C49.2261 110.022 49.4803 110.055 49.7095 110.055C49.8706 110.055 50.021 110.039 50.1606 110.006C50.3003 109.974 50.4185 109.911 50.5151 109.818C50.6118 109.725 50.6602 109.589 50.6602 109.41C50.6602 109.303 50.6315 109.211 50.5742 109.136C50.5169 109.061 50.4435 109.004 50.354 108.964C50.2645 108.925 50.1696 108.893 50.0693 108.868C49.9368 108.835 49.7453 108.782 49.4946 108.707C49.2476 108.631 49.0094 108.544 48.7803 108.443C48.5905 108.361 48.4043 108.246 48.2217 108.1C48.0426 107.949 47.9102 107.783 47.8242 107.6C47.7419 107.417 47.7007 107.192 47.7007 106.923C47.7007 106.562 47.8045 106.245 48.0122 105.973C48.2235 105.701 48.4956 105.513 48.8286 105.409C49.1616 105.305 49.577 105.253 50.0747 105.253C50.4113 105.253 50.7389 105.301 51.0576 105.398C51.3763 105.495 51.6037 105.586 51.7397 105.672C51.9546 105.808 52.0083 105.953 51.9009 106.107L51.5732 106.585C51.473 106.728 51.3118 106.739 51.0898 106.617C50.9215 106.524 50.755 106.449 50.5903 106.392C50.4292 106.334 50.2484 106.306 50.0479 106.306C49.9118 106.306 49.7811 106.32 49.6558 106.349C49.5304 106.377 49.423 106.431 49.3335 106.51C49.2476 106.589 49.2046 106.692 49.2046 106.821C49.2046 106.957 49.244 107.065 49.3228 107.144C49.4051 107.219 49.4982 107.274 49.6021 107.31C49.7095 107.346 49.8115 107.38 49.9082 107.412C50.1087 107.477 50.311 107.539 50.5151 107.6C50.7192 107.657 50.9269 107.727 51.1382 107.81C51.3208 107.881 51.498 107.983 51.6699 108.116C51.8418 108.248 51.9671 108.417 52.0459 108.621C52.1247 108.825 52.1641 109.057 52.1641 109.319C52.1641 109.666 52.0602 109.988 51.8525 110.286C51.6449 110.583 51.3709 110.794 51.0308 110.919C50.6906 111.045 50.2949 111.107 49.8438 111.107C49.3389 111.107 48.9092 111.072 48.5547 111C48.2002 110.928 47.8976 110.803 47.647 110.624ZM52.9751 106.435C52.7638 106.435 52.6582 106.345 52.6582 106.166V105.629C52.6582 105.45 52.7638 105.36 52.9751 105.36H53.3403V105.172C53.3403 105.011 53.3779 104.864 53.4531 104.732L53.8667 104.007C53.9455 103.871 54.0386 103.803 54.146 103.803H54.522C54.7368 103.803 54.8442 103.91 54.8442 104.125V105.36H55.7144C55.9256 105.36 56.0312 105.45 56.0312 105.629V106.166C56.0312 106.345 55.9256 106.435 55.7144 106.435H54.8442V109.099C54.8442 109.464 54.8693 109.727 54.9194 109.888C54.9731 110.046 55.1092 110.125 55.3276 110.125C55.4386 110.125 55.564 110.107 55.7036 110.071C55.8433 110.031 55.9525 109.994 56.0312 109.958C56.1566 109.901 56.2389 109.942 56.2783 110.082L56.4395 110.694C56.4717 110.816 56.4251 110.905 56.2998 110.962C56.1816 111.016 56.0187 111.064 55.811 111.107C55.6069 111.154 55.401 111.177 55.1934 111.177C54.6813 111.177 54.2445 111.072 53.8828 110.86C53.5212 110.649 53.3403 110.214 53.3403 109.555V106.435H52.9751ZM57.1484 108.18C57.1484 107.267 57.383 106.551 57.8521 106.032C58.3247 105.513 59.0265 105.253 59.9575 105.253C60.8885 105.253 61.5885 105.513 62.0576 106.032C62.5303 106.551 62.7666 107.267 62.7666 108.18C62.7666 109.093 62.5303 109.809 62.0576 110.329C61.5885 110.848 60.8885 111.107 59.9575 111.107C59.0265 111.107 58.3247 110.848 57.8521 110.329C57.383 109.809 57.1484 109.093 57.1484 108.18ZM58.7383 108.18C58.7383 108.861 58.8421 109.344 59.0498 109.63C59.2611 109.913 59.5636 110.055 59.9575 110.055C60.3514 110.055 60.6522 109.913 60.8599 109.63C61.0711 109.344 61.1768 108.861 61.1768 108.18C61.1768 107.5 61.0711 107.018 60.8599 106.735C60.6522 106.449 60.3514 106.306 59.9575 106.306C59.5636 106.306 59.2611 106.449 59.0498 106.735C58.8421 107.018 58.7383 107.5 58.7383 108.18ZM64.249 111C64.0342 111 63.9268 110.893 63.9268 110.678V105.683C63.9268 105.468 64.0342 105.36 64.249 105.36H65.0977C65.3125 105.36 65.4199 105.468 65.4199 105.683V105.994H65.4414C65.5452 105.765 65.7207 105.584 65.9678 105.452C66.2148 105.319 66.4458 105.253 66.6606 105.253C67.0903 105.253 67.4233 105.353 67.6597 105.554C67.8996 105.754 68.0643 105.978 68.1538 106.225H68.1753C68.4868 105.82 68.7679 105.557 69.0186 105.436C69.2728 105.314 69.5968 105.253 69.9907 105.253C70.5207 105.253 70.9665 105.428 71.3281 105.779C71.6934 106.13 71.876 106.771 71.876 107.702V110.678C71.876 110.893 71.7686 111 71.5537 111H70.6943C70.4795 111 70.3721 110.893 70.3721 110.678V108.089C70.3721 107.308 70.3184 106.816 70.2109 106.612C70.1071 106.408 69.9209 106.306 69.6523 106.306C69.4017 106.306 69.1725 106.452 68.9648 106.746C68.7572 107.04 68.6533 107.645 68.6533 108.562V110.678C68.6533 110.893 68.5459 111 68.3311 111H67.4717C67.2568 111 67.1494 110.893 67.1494 110.678V108.089C67.1494 107.308 67.0957 106.816 66.9883 106.612C66.8844 106.408 66.6982 106.306 66.4297 106.306C66.179 106.306 65.9499 106.452 65.7422 106.746C65.5345 107.036 65.4307 107.641 65.4307 108.562V110.678C65.4307 110.893 65.3232 111 65.1084 111H64.249ZM77.4082 111C77.1934 111 77.0859 110.893 77.0859 110.678V105.683C77.0859 105.468 77.1934 105.36 77.4082 105.36H78.2568C78.4717 105.36 78.5791 105.468 78.5791 105.683V105.994H78.6006C78.7653 105.711 78.9748 105.518 79.229 105.414C79.4832 105.307 79.7894 105.253 80.1475 105.253C80.7061 105.253 81.168 105.428 81.5332 105.779C81.8984 106.13 82.0811 106.771 82.0811 107.702V110.678C82.0811 110.893 81.9736 111 81.7588 111H80.8994C80.6846 111 80.5771 110.893 80.5771 110.678V108.089C80.5771 107.308 80.5234 106.816 80.416 106.612C80.3086 106.408 80.0776 106.306 79.7231 106.306C79.3472 106.306 79.0643 106.452 78.8745 106.746C78.6847 107.036 78.5898 107.641 78.5898 108.562V110.678C78.5898 110.893 78.4824 111 78.2676 111H77.4082ZM83.2305 108.18C83.2305 107.267 83.465 106.551 83.9341 106.032C84.4067 105.513 85.1086 105.253 86.0396 105.253C86.9705 105.253 87.6706 105.513 88.1396 106.032C88.6123 106.551 88.8486 107.267 88.8486 108.18C88.8486 109.093 88.6123 109.809 88.1396 110.329C87.6706 110.848 86.9705 111.107 86.0396 111.107C85.1086 111.107 84.4067 110.848 83.9341 110.329C83.465 109.809 83.2305 109.093 83.2305 108.18ZM84.8203 108.18C84.8203 108.861 84.9242 109.344 85.1318 109.63C85.3431 109.913 85.6457 110.055 86.0396 110.055C86.4334 110.055 86.7342 109.913 86.9419 109.63C87.1532 109.344 87.2588 108.861 87.2588 108.18C87.2588 107.5 87.1532 107.018 86.9419 106.735C86.7342 106.449 86.4334 106.306 86.0396 106.306C85.6457 106.306 85.3431 106.449 85.1318 106.735C84.9242 107.018 84.8203 107.5 84.8203 108.18ZM89.8208 106.435C89.6095 106.435 89.5039 106.345 89.5039 106.166V105.629C89.5039 105.45 89.6095 105.36 89.8208 105.36H90.186V105.172C90.186 105.011 90.2236 104.864 90.2988 104.732L90.7124 104.007C90.7912 103.871 90.8843 103.803 90.9917 103.803H91.3677C91.5825 103.803 91.6899 103.91 91.6899 104.125V105.36H92.5601C92.7713 105.36 92.877 105.45 92.877 105.629V106.166C92.877 106.345 92.7713 106.435 92.5601 106.435H91.6899V109.099C91.6899 109.464 91.715 109.727 91.7651 109.888C91.8188 110.046 91.9549 110.125 92.1733 110.125C92.2843 110.125 92.4097 110.107 92.5493 110.071C92.689 110.031 92.7982 109.994 92.877 109.958C93.0023 109.901 93.0846 109.942 93.124 110.082L93.2852 110.694C93.3174 110.816 93.2708 110.905 93.1455 110.962C93.0273 111.016 92.8644 111.064 92.6567 111.107C92.4526 111.154 92.2467 111.177 92.0391 111.177C91.527 111.177 91.0902 111.072 90.7285 110.86C90.3669 110.649 90.186 110.214 90.186 109.555V106.435H89.8208ZM93.9941 108.18C93.9941 107.274 94.2197 106.56 94.6709 106.037C95.1257 105.514 95.7666 105.253 96.5938 105.253C97.5534 105.253 98.266 105.5 98.7314 105.994C99.1969 106.488 99.4297 107.283 99.4297 108.379C99.4297 108.594 99.3294 108.701 99.1289 108.701H95.584C95.6413 109.296 95.7881 109.67 96.0244 109.824C96.2607 109.978 96.5347 110.055 96.8462 110.055C97.1434 110.055 97.3708 110.015 97.5283 109.937C97.6859 109.858 97.8184 109.75 97.9258 109.614C98.0475 109.457 98.1979 109.432 98.377 109.539L98.9141 109.867C99.1253 109.996 99.1558 110.15 99.0054 110.329C98.7869 110.59 98.5309 110.785 98.2373 110.914C97.9437 111.043 97.48 111.107 96.8462 111.107C95.8185 111.107 95.0863 110.846 94.6494 110.323C94.2126 109.8 93.9941 109.086 93.9941 108.18ZM95.5894 107.627H97.9258C97.9258 107.24 97.8291 106.925 97.6357 106.682C97.4424 106.435 97.1344 106.311 96.7119 106.311C96.3753 106.311 96.1086 106.429 95.9116 106.666C95.7147 106.898 95.6073 107.219 95.5894 107.627ZM100.488 110.624C100.312 110.499 100.264 110.364 100.343 110.221L100.617 109.722C100.713 109.543 100.864 109.521 101.068 109.657C101.272 109.793 101.512 109.894 101.788 109.958C102.067 110.022 102.321 110.055 102.55 110.055C102.711 110.055 102.862 110.039 103.001 110.006C103.141 109.974 103.259 109.911 103.356 109.818C103.453 109.725 103.501 109.589 103.501 109.41C103.501 109.303 103.472 109.211 103.415 109.136C103.358 109.061 103.284 109.004 103.195 108.964C103.105 108.925 103.01 108.893 102.91 108.868C102.778 108.835 102.586 108.782 102.335 108.707C102.088 108.631 101.85 108.544 101.621 108.443C101.431 108.361 101.245 108.246 101.062 108.1C100.883 107.949 100.751 107.783 100.665 107.6C100.583 107.417 100.542 107.192 100.542 106.923C100.542 106.562 100.645 106.245 100.853 105.973C101.064 105.701 101.336 105.513 101.669 105.409C102.002 105.305 102.418 105.253 102.916 105.253C103.252 105.253 103.58 105.301 103.898 105.398C104.217 105.495 104.444 105.586 104.581 105.672C104.795 105.808 104.849 105.953 104.742 106.107L104.414 106.585C104.314 106.728 104.153 106.739 103.931 106.617C103.762 106.524 103.596 106.449 103.431 106.392C103.27 106.334 103.089 106.306 102.889 106.306C102.753 106.306 102.622 106.32 102.497 106.349C102.371 106.377 102.264 106.431 102.174 106.51C102.088 106.589 102.045 106.692 102.045 106.821C102.045 106.957 102.085 107.065 102.164 107.144C102.246 107.219 102.339 107.274 102.443 107.31C102.55 107.346 102.652 107.38 102.749 107.412C102.95 107.477 103.152 107.539 103.356 107.6C103.56 107.657 103.768 107.727 103.979 107.81C104.162 107.881 104.339 107.983 104.511 108.116C104.683 108.248 104.808 108.417 104.887 108.621C104.965 108.825 105.005 109.057 105.005 109.319C105.005 109.666 104.901 109.988 104.693 110.286C104.486 110.583 104.212 110.794 103.872 110.919C103.531 111.045 103.136 111.107 102.685 111.107C102.18 111.107 101.75 111.072 101.396 111C101.041 110.928 100.738 110.803 100.488 110.624ZM109.463 109.496C109.463 108.78 109.805 108.261 110.489 107.938C111.173 107.616 111.953 107.444 112.831 107.423V107.208C112.831 106.879 112.748 106.646 112.583 106.51C112.419 106.374 112.19 106.306 111.896 106.306C111.688 106.306 111.504 106.336 111.343 106.397C111.185 106.454 111.047 106.522 110.929 106.601C110.815 106.676 110.711 106.753 110.618 106.832C110.453 106.975 110.317 106.982 110.209 106.854L109.764 106.306C109.653 106.17 109.68 106.03 109.844 105.887C109.97 105.776 110.115 105.679 110.279 105.597C110.448 105.514 110.67 105.437 110.945 105.366C111.221 105.291 111.579 105.253 112.02 105.253C112.764 105.253 113.335 105.425 113.733 105.769C114.134 106.112 114.334 106.619 114.334 107.289V110.678C114.334 110.893 114.227 111 114.012 111H113.131C112.938 111 112.841 110.893 112.841 110.678V110.517H112.831C112.619 110.721 112.365 110.871 112.068 110.968C111.774 111.061 111.504 111.107 111.257 111.107C110.67 111.107 110.224 110.964 109.919 110.678C109.615 110.388 109.463 109.994 109.463 109.496ZM111.053 109.464C111.053 109.589 111.078 109.698 111.128 109.792C111.178 109.881 111.257 109.947 111.364 109.99C111.472 110.033 111.592 110.055 111.724 110.055C111.907 110.055 112.084 110.03 112.256 109.979C112.428 109.929 112.619 109.811 112.831 109.625V108.459C112.229 108.528 111.826 108.615 111.622 108.723C111.418 108.83 111.271 108.941 111.182 109.056C111.096 109.17 111.053 109.306 111.053 109.464ZM116.123 111C115.908 111 115.801 110.893 115.801 110.678V105.683C115.801 105.468 115.908 105.36 116.123 105.36H116.972C117.187 105.36 117.294 105.468 117.294 105.683V105.994H117.315C117.48 105.711 117.69 105.518 117.944 105.414C118.198 105.307 118.504 105.253 118.862 105.253C119.421 105.253 119.883 105.428 120.248 105.779C120.613 106.13 120.796 106.771 120.796 107.702V110.678C120.796 110.893 120.688 111 120.474 111H119.614C119.399 111 119.292 110.893 119.292 110.678V108.089C119.292 107.308 119.238 106.816 119.131 106.612C119.023 106.408 118.792 106.306 118.438 106.306C118.062 106.306 117.779 106.452 117.589 106.746C117.4 107.036 117.305 107.641 117.305 108.562V110.678C117.305 110.893 117.197 111 116.982 111H116.123ZM121.945 108.18C121.945 107.392 122.115 106.708 122.456 106.128C122.799 105.545 123.392 105.253 124.233 105.253C124.556 105.253 124.831 105.299 125.061 105.393C125.29 105.486 125.497 105.686 125.684 105.994H125.705C125.691 105.851 125.684 105.708 125.684 105.564V103.395C125.684 103.18 125.791 103.072 126.006 103.072H126.865C127.08 103.072 127.188 103.18 127.188 103.395V110.678C127.188 110.893 127.08 111 126.865 111H126.017C125.838 111 125.741 110.893 125.727 110.678L125.705 110.366H125.684C125.497 110.674 125.29 110.875 125.061 110.968C124.831 111.061 124.556 111.107 124.233 111.107C123.392 111.107 122.799 110.817 122.456 110.237C122.115 109.654 121.945 108.968 121.945 108.18ZM123.535 108.18C123.535 108.753 123.609 109.21 123.755 109.55C123.906 109.886 124.223 110.055 124.706 110.055C124.975 110.055 125.204 109.904 125.394 109.604C125.587 109.299 125.684 108.905 125.684 108.422V107.938C125.684 107.455 125.587 107.063 125.394 106.762C125.204 106.458 124.975 106.306 124.706 106.306C124.223 106.306 123.906 106.476 123.755 106.816C123.609 107.153 123.535 107.607 123.535 108.18ZM132.913 111C132.662 111 132.537 110.866 132.537 110.597V103.701C132.537 103.432 132.662 103.298 132.913 103.298H134.922C136.211 103.298 137.104 103.507 137.602 103.926C138.103 104.345 138.354 104.94 138.354 105.709C138.354 106.479 138.103 107.074 137.602 107.493C137.104 107.912 136.211 108.121 134.922 108.121H134.105V110.597C134.105 110.866 133.98 111 133.729 111H132.913ZM134.105 106.811H134.917C135.633 106.811 136.12 106.726 136.377 106.558C136.635 106.386 136.764 106.103 136.764 105.709C136.764 105.316 136.635 105.035 136.377 104.866C136.12 104.694 135.633 104.608 134.917 104.608H134.105V106.811ZM140.046 111C139.795 111 139.67 110.866 139.67 110.597V103.701C139.67 103.432 139.795 103.298 140.046 103.298H142.055C143.344 103.298 144.237 103.507 144.735 103.926C145.236 104.345 145.487 104.94 145.487 105.709C145.487 106.479 145.236 107.074 144.735 107.493C144.237 107.912 143.344 108.121 142.055 108.121H141.238V110.597C141.238 110.866 141.113 111 140.862 111H140.046ZM141.238 106.811H142.049C142.765 106.811 143.252 106.726 143.51 106.558C143.768 106.386 143.897 106.103 143.897 105.709C143.897 105.316 143.768 105.035 143.51 104.866C143.252 104.694 142.765 104.608 142.049 104.608H141.238V106.811ZM146.529 104.673C146.26 104.673 146.126 104.556 146.126 104.324V103.647C146.126 103.414 146.26 103.298 146.529 103.298H152.05C152.319 103.298 152.453 103.414 152.453 103.647V104.324C152.453 104.556 152.319 104.673 152.05 104.673H150.074V110.705C150.074 110.902 149.984 111 149.805 111H148.774C148.595 111 148.505 110.902 148.505 110.705V104.673H146.529ZM156.825 108.18C156.825 107.267 157.06 106.551 157.529 106.032C158.001 105.513 158.703 105.253 159.634 105.253C160.565 105.253 161.265 105.513 161.734 106.032C162.207 106.551 162.443 107.267 162.443 108.18C162.443 109.093 162.207 109.809 161.734 110.329C161.265 110.848 160.565 111.107 159.634 111.107C158.703 111.107 158.001 110.848 157.529 110.329C157.06 109.809 156.825 109.093 156.825 108.18ZM158.415 108.18C158.415 108.861 158.519 109.344 158.727 109.63C158.938 109.913 159.24 110.055 159.634 110.055C160.028 110.055 160.329 109.913 160.537 109.63C160.748 109.344 160.854 108.861 160.854 108.18C160.854 107.5 160.748 107.018 160.537 106.735C160.329 106.449 160.028 106.306 159.634 106.306C159.24 106.306 158.938 106.449 158.727 106.735C158.519 107.018 158.415 107.5 158.415 108.18ZM163.416 106.435C163.204 106.435 163.099 106.345 163.099 106.166V105.629C163.099 105.45 163.204 105.36 163.416 105.36H163.716V104.608C163.716 103.95 163.904 103.511 164.28 103.292C164.656 103.074 165.104 102.965 165.623 102.965C165.87 102.965 166.081 102.979 166.257 103.008C166.436 103.036 166.593 103.072 166.729 103.115C166.858 103.158 166.905 103.248 166.869 103.384L166.708 103.991C166.676 104.109 166.593 104.145 166.461 104.098C166.382 104.069 166.271 104.05 166.128 104.039C165.988 104.025 165.877 104.018 165.795 104.018C165.534 104.018 165.372 104.109 165.312 104.292C165.251 104.474 165.22 104.759 165.22 105.146V105.36H165.929C166.14 105.36 166.246 105.45 166.246 105.629V106.166C166.246 106.345 166.14 106.435 165.929 106.435H165.22V110.678C165.22 110.893 165.113 111 164.898 111H164.039C163.824 111 163.716 110.893 163.716 110.678V106.435H163.416ZM170.838 106.435C170.627 106.435 170.521 106.345 170.521 106.166V105.629C170.521 105.45 170.627 105.36 170.838 105.36H171.204V105.172C171.204 105.011 171.241 104.864 171.316 104.732L171.73 104.007C171.809 103.871 171.902 103.803 172.009 103.803H172.385C172.6 103.803 172.708 103.91 172.708 104.125V105.36H173.578C173.789 105.36 173.895 105.45 173.895 105.629V106.166C173.895 106.345 173.789 106.435 173.578 106.435H172.708V109.099C172.708 109.464 172.733 109.727 172.783 109.888C172.836 110.046 172.972 110.125 173.191 110.125C173.302 110.125 173.427 110.107 173.567 110.071C173.707 110.031 173.816 109.994 173.895 109.958C174.02 109.901 174.102 109.942 174.142 110.082L174.303 110.694C174.335 110.816 174.288 110.905 174.163 110.962C174.045 111.016 173.882 111.064 173.674 111.107C173.47 111.154 173.264 111.177 173.057 111.177C172.545 111.177 172.108 111.072 171.746 110.86C171.384 110.649 171.204 110.214 171.204 109.555V106.435H170.838ZM175.635 111C175.42 111 175.312 110.893 175.312 110.678V103.395C175.312 103.18 175.42 103.072 175.635 103.072H176.494C176.709 103.072 176.816 103.18 176.816 103.395V105.564C176.816 105.708 176.809 105.851 176.795 105.994H176.827C176.992 105.711 177.201 105.518 177.456 105.414C177.71 105.307 178.016 105.253 178.374 105.253C178.933 105.253 179.395 105.428 179.76 105.779C180.125 106.13 180.308 106.771 180.308 107.702V110.678C180.308 110.893 180.2 111 179.985 111H179.126C178.911 111 178.804 110.893 178.804 110.678V108.089C178.804 107.308 178.75 106.816 178.643 106.612C178.535 106.408 178.304 106.306 177.95 106.306C177.574 106.306 177.291 106.452 177.101 106.746C176.911 107.036 176.816 107.641 176.816 108.562V110.678C176.816 110.893 176.709 111 176.494 111H175.635ZM181.457 108.18C181.457 107.274 181.683 106.56 182.134 106.037C182.589 105.514 183.229 105.253 184.057 105.253C185.016 105.253 185.729 105.5 186.194 105.994C186.66 106.488 186.893 107.283 186.893 108.379C186.893 108.594 186.792 108.701 186.592 108.701H183.047C183.104 109.296 183.251 109.67 183.487 109.824C183.724 109.978 183.998 110.055 184.309 110.055C184.606 110.055 184.834 110.015 184.991 109.937C185.149 109.858 185.281 109.75 185.389 109.614C185.51 109.457 185.661 109.432 185.84 109.539L186.377 109.867C186.588 109.996 186.619 110.15 186.468 110.329C186.25 110.59 185.994 110.785 185.7 110.914C185.407 111.043 184.943 111.107 184.309 111.107C183.281 111.107 182.549 110.846 182.112 110.323C181.675 109.8 181.457 109.086 181.457 108.18ZM183.052 107.627H185.389C185.389 107.24 185.292 106.925 185.099 106.682C184.905 106.435 184.597 106.311 184.175 106.311C183.838 106.311 183.571 106.429 183.375 106.666C183.178 106.898 183.07 107.219 183.052 107.627ZM191.635 106.435C191.424 106.435 191.318 106.345 191.318 106.166V105.629C191.318 105.45 191.424 105.36 191.635 105.36H192V105.172C192 105.011 192.038 104.864 192.113 104.732L192.527 104.007C192.606 103.871 192.699 103.803 192.806 103.803H193.182C193.397 103.803 193.504 103.91 193.504 104.125V105.36H194.375C194.586 105.36 194.691 105.45 194.691 105.629V106.166C194.691 106.345 194.586 106.435 194.375 106.435H193.504V109.099C193.504 109.464 193.529 109.727 193.58 109.888C193.633 110.046 193.769 110.125 193.988 110.125C194.099 110.125 194.224 110.107 194.364 110.071C194.503 110.031 194.613 109.994 194.691 109.958C194.817 109.901 194.899 109.942 194.938 110.082L195.1 110.694C195.132 110.816 195.085 110.905 194.96 110.962C194.842 111.016 194.679 111.064 194.471 111.107C194.267 111.154 194.061 111.177 193.854 111.177C193.341 111.177 192.905 111.072 192.543 110.86C192.181 110.649 192 110.214 192 109.555V106.435H191.635ZM195.809 108.18C195.809 107.267 196.043 106.551 196.512 106.032C196.985 105.513 197.687 105.253 198.618 105.253C199.549 105.253 200.249 105.513 200.718 106.032C201.19 106.551 201.427 107.267 201.427 108.18C201.427 109.093 201.19 109.809 200.718 110.329C200.249 110.848 199.549 111.107 198.618 111.107C197.687 111.107 196.985 110.848 196.512 110.329C196.043 109.809 195.809 109.093 195.809 108.18ZM197.398 108.18C197.398 108.861 197.502 109.344 197.71 109.63C197.921 109.913 198.224 110.055 198.618 110.055C199.012 110.055 199.312 109.913 199.52 109.63C199.731 109.344 199.837 108.861 199.837 108.18C199.837 107.5 199.731 107.018 199.52 106.735C199.312 106.449 199.012 106.306 198.618 106.306C198.224 106.306 197.921 106.449 197.71 106.735C197.502 107.018 197.398 107.5 197.398 108.18ZM202.909 113.148C202.694 113.148 202.587 113.041 202.587 112.826V105.683C202.587 105.468 202.694 105.36 202.909 105.36H203.758C203.937 105.36 204.034 105.468 204.048 105.683L204.069 105.994H204.091C204.277 105.686 204.485 105.486 204.714 105.393C204.943 105.299 205.219 105.253 205.541 105.253C206.382 105.253 206.973 105.545 207.313 106.128C207.657 106.708 207.829 107.392 207.829 108.18C207.829 108.968 207.657 109.654 207.313 110.237C206.973 110.817 206.382 111.107 205.541 111.107C205.219 111.107 204.943 111.061 204.714 110.968C204.485 110.875 204.277 110.674 204.091 110.366H204.069C204.084 110.509 204.091 110.653 204.091 110.796V112.826C204.091 113.041 203.983 113.148 203.769 113.148H202.909ZM204.091 108.422C204.091 108.905 204.186 109.299 204.375 109.604C204.569 109.904 204.8 110.055 205.068 110.055C205.552 110.055 205.867 109.886 206.014 109.55C206.164 109.21 206.239 108.753 206.239 108.18C206.239 107.607 206.164 107.153 206.014 106.816C205.867 106.476 205.552 106.306 205.068 106.306C204.8 106.306 204.569 106.458 204.375 106.762C204.186 107.063 204.091 107.455 204.091 107.938V108.422ZM209.312 111C209.097 111 208.989 110.893 208.989 110.678V105.683C208.989 105.468 209.097 105.36 209.312 105.36H210.171C210.386 105.36 210.493 105.468 210.493 105.683V110.678C210.493 110.893 210.386 111 210.171 111H209.312ZM209.312 104.533C209.097 104.533 208.989 104.426 208.989 104.211V103.523C208.989 103.309 209.097 103.201 209.312 103.201H210.171C210.386 103.201 210.493 103.309 210.493 103.523V104.211C210.493 104.426 210.386 104.533 210.171 104.533H209.312ZM211.653 108.18C211.653 107.267 211.882 106.551 212.341 106.032C212.799 105.513 213.503 105.253 214.452 105.253C215.007 105.253 215.438 105.326 215.746 105.473C216.054 105.62 216.301 105.835 216.487 106.118C216.598 106.286 216.58 106.418 216.434 106.515L215.864 106.891C215.703 106.999 215.562 106.957 215.44 106.768C215.379 106.674 215.263 106.574 215.091 106.467C214.919 106.359 214.706 106.306 214.452 106.306C214.047 106.306 213.744 106.449 213.544 106.735C213.343 107.018 213.243 107.5 213.243 108.18C213.243 108.861 213.343 109.344 213.544 109.63C213.744 109.913 214.047 110.055 214.452 110.055C214.742 110.055 214.976 109.994 215.155 109.872C215.334 109.75 215.503 109.593 215.66 109.399C215.796 109.235 215.939 109.211 216.09 109.33L216.589 109.722C216.74 109.84 216.749 109.997 216.616 110.194C216.477 110.402 216.238 110.606 215.902 110.807C215.569 111.007 215.085 111.107 214.452 111.107C213.503 111.107 212.799 110.848 212.341 110.329C211.882 109.809 211.653 109.093 211.653 108.18ZM217.674 110.624C217.499 110.499 217.451 110.364 217.529 110.221L217.803 109.722C217.9 109.543 218.05 109.521 218.254 109.657C218.458 109.793 218.698 109.894 218.974 109.958C219.253 110.022 219.508 110.055 219.737 110.055C219.898 110.055 220.048 110.039 220.188 110.006C220.328 109.974 220.446 109.911 220.542 109.818C220.639 109.725 220.688 109.589 220.688 109.41C220.688 109.303 220.659 109.211 220.602 109.136C220.544 109.061 220.471 109.004 220.381 108.964C220.292 108.925 220.197 108.893 220.097 108.868C219.964 108.835 219.773 108.782 219.522 108.707C219.275 108.631 219.037 108.544 218.808 108.443C218.618 108.361 218.432 108.246 218.249 108.1C218.07 107.949 217.938 107.783 217.852 107.6C217.769 107.417 217.728 107.192 217.728 106.923C217.728 106.562 217.832 106.245 218.04 105.973C218.251 105.701 218.523 105.513 218.856 105.409C219.189 105.305 219.604 105.253 220.102 105.253C220.439 105.253 220.766 105.301 221.085 105.398C221.404 105.495 221.631 105.586 221.767 105.672C221.982 105.808 222.036 105.953 221.928 106.107L221.601 106.585C221.5 106.728 221.339 106.739 221.117 106.617C220.949 106.524 220.782 106.449 220.618 106.392C220.457 106.334 220.276 106.306 220.075 106.306C219.939 106.306 219.808 106.32 219.683 106.349C219.558 106.377 219.45 106.431 219.361 106.51C219.275 106.589 219.232 106.692 219.232 106.821C219.232 106.957 219.271 107.065 219.35 107.144C219.432 107.219 219.526 107.274 219.629 107.31C219.737 107.346 219.839 107.38 219.936 107.412C220.136 107.477 220.338 107.539 220.542 107.6C220.747 107.657 220.954 107.727 221.166 107.81C221.348 107.881 221.525 107.983 221.697 108.116C221.869 108.248 221.994 108.417 222.073 108.621C222.152 108.825 222.191 109.057 222.191 109.319C222.191 109.666 222.088 109.988 221.88 110.286C221.672 110.583 221.398 110.794 221.058 110.919C220.718 111.045 220.322 111.107 219.871 111.107C219.366 111.107 218.937 111.072 218.582 111C218.228 110.928 217.925 110.803 217.674 110.624ZM33.5425 122.435C33.3312 122.435 33.2256 122.345 33.2256 122.166V121.629C33.2256 121.45 33.3312 121.36 33.5425 121.36H33.9077V121.172C33.9077 121.011 33.9453 120.864 34.0205 120.732L34.4341 120.007C34.5129 119.871 34.606 119.803 34.7134 119.803H35.0894C35.3042 119.803 35.4116 119.91 35.4116 120.125V121.36H36.2817C36.493 121.36 36.5986 121.45 36.5986 121.629V122.166C36.5986 122.345 36.493 122.435 36.2817 122.435H35.4116V125.099C35.4116 125.464 35.4367 125.727 35.4868 125.888C35.5405 126.046 35.6766 126.125 35.895 126.125C36.006 126.125 36.1313 126.107 36.271 126.071C36.4106 126.031 36.5199 125.994 36.5986 125.958C36.724 125.901 36.8063 125.942 36.8457 126.082L37.0068 126.694C37.0391 126.816 36.9925 126.905 36.8672 126.962C36.749 127.016 36.5861 127.064 36.3784 127.107C36.1743 127.154 35.9684 127.177 35.7607 127.177C35.2487 127.177 34.8118 127.072 34.4502 126.86C34.0885 126.649 33.9077 126.214 33.9077 125.555V122.435H33.5425ZM37.7158 125.496C37.7158 124.78 38.0578 124.261 38.7417 123.938C39.4256 123.616 40.2062 123.444 41.0835 123.423V123.208C41.0835 122.879 41.0011 122.646 40.8364 122.51C40.6717 122.374 40.4425 122.306 40.1489 122.306C39.9412 122.306 39.7568 122.336 39.5957 122.397C39.4382 122.454 39.3003 122.522 39.1821 122.601C39.0675 122.676 38.9637 122.753 38.8706 122.832C38.7059 122.975 38.5698 122.982 38.4624 122.854L38.0166 122.306C37.9056 122.17 37.9325 122.03 38.0972 121.887C38.2225 121.776 38.3675 121.679 38.5322 121.597C38.7005 121.514 38.9225 121.437 39.1982 121.366C39.474 121.291 39.832 121.253 40.2725 121.253C41.0173 121.253 41.5884 121.425 41.9858 121.769C42.3869 122.112 42.5874 122.619 42.5874 123.289V126.678C42.5874 126.893 42.48 127 42.2651 127H41.3843C41.1909 127 41.0942 126.893 41.0942 126.678V126.517H41.0835C40.8722 126.721 40.618 126.871 40.3208 126.968C40.0272 127.061 39.7568 127.107 39.5098 127.107C38.9225 127.107 38.4767 126.964 38.1724 126.678C37.868 126.388 37.7158 125.994 37.7158 125.496ZM39.3057 125.464C39.3057 125.589 39.3307 125.698 39.3809 125.792C39.431 125.881 39.5098 125.947 39.6172 125.99C39.7246 126.033 39.8446 126.055 39.9771 126.055C40.1597 126.055 40.3369 126.03 40.5088 125.979C40.6807 125.929 40.8722 125.811 41.0835 125.625V124.459C40.4819 124.528 40.0791 124.615 39.875 124.723C39.6709 124.83 39.5241 124.941 39.4346 125.056C39.3486 125.17 39.3057 125.306 39.3057 125.464ZM44.043 124.658V121.683C44.043 121.468 44.1504 121.36 44.3652 121.36H45.2246C45.4395 121.36 45.5469 121.468 45.5469 121.683V124.271C45.5469 125.052 45.6006 125.544 45.708 125.749C45.8154 125.953 46.041 126.055 46.3848 126.055C46.75 126.055 47.0275 125.91 47.2173 125.62C47.4071 125.326 47.502 124.719 47.502 123.799V121.683C47.502 121.468 47.6094 121.36 47.8242 121.36H48.6836C48.8984 121.36 49.0059 121.468 49.0059 121.683V126.678C49.0059 126.893 48.8984 127 48.6836 127H47.835C47.6201 127 47.5127 126.893 47.5127 126.678V126.366H47.4912C47.3265 126.649 47.117 126.844 46.8628 126.952C46.6086 127.056 46.3078 127.107 45.9604 127.107C45.4126 127.107 44.9561 126.932 44.5908 126.581C44.2256 126.23 44.043 125.589 44.043 124.658ZM50.166 124.18C50.166 123.392 50.3361 122.708 50.6763 122.128C51.02 121.545 51.6126 121.253 52.4541 121.253C52.7764 121.253 53.0521 121.299 53.2812 121.393C53.5104 121.486 53.7181 121.686 53.9043 121.994H53.9258L53.9473 121.683C53.9616 121.468 54.0583 121.36 54.2373 121.36H55.0859C55.3008 121.36 55.4082 121.468 55.4082 121.683V126.941C55.4082 127.818 55.1719 128.423 54.6992 128.756C54.2266 129.089 53.5426 129.256 52.6475 129.256C52.2679 129.256 51.917 129.236 51.5947 129.197C51.2725 129.157 50.9466 129.059 50.6172 128.901C50.4453 128.819 50.4167 128.663 50.5312 128.434L50.7246 128.047C50.8034 127.89 50.9341 127.854 51.1167 127.94C51.2635 128.008 51.4443 128.069 51.6592 128.123C51.8776 128.176 52.1533 128.203 52.4863 128.203C52.9447 128.203 53.2956 128.117 53.5391 127.945C53.7826 127.777 53.9043 127.406 53.9043 126.833V126.742C53.9043 126.599 53.9115 126.456 53.9258 126.312H53.9043C53.7181 126.62 53.5104 126.821 53.2812 126.914C53.0521 127.007 52.7764 127.054 52.4541 127.054C51.6126 127.054 51.02 126.764 50.6763 126.184C50.3361 125.6 50.166 124.932 50.166 124.18ZM51.7559 124.18C51.7559 124.717 51.8293 125.156 51.9761 125.496C52.1265 125.833 52.4434 126.001 52.9268 126.001C53.1953 126.001 53.4245 125.851 53.6143 125.55C53.8076 125.245 53.9043 124.852 53.9043 124.368V123.938C53.9043 123.455 53.8076 123.063 53.6143 122.762C53.4245 122.458 53.1953 122.306 52.9268 122.306C52.4434 122.306 52.1265 122.476 51.9761 122.816C51.8293 123.153 51.7559 123.607 51.7559 124.18ZM57.1914 127C56.9766 127 56.8691 126.893 56.8691 126.678V119.395C56.8691 119.18 56.9766 119.072 57.1914 119.072H58.0508C58.2656 119.072 58.373 119.18 58.373 119.395V121.564C58.373 121.708 58.3659 121.851 58.3516 121.994H58.3838C58.5485 121.711 58.758 121.518 59.0122 121.414C59.2664 121.307 59.5726 121.253 59.9307 121.253C60.4893 121.253 60.9512 121.428 61.3164 121.779C61.6816 122.13 61.8643 122.771 61.8643 123.702V126.678C61.8643 126.893 61.7568 127 61.542 127H60.6826C60.4678 127 60.3604 126.893 60.3604 126.678V124.089C60.3604 123.308 60.3066 122.816 60.1992 122.612C60.0918 122.408 59.8608 122.306 59.5063 122.306C59.1304 122.306 58.8475 122.452 58.6577 122.746C58.4679 123.036 58.373 123.641 58.373 124.562V126.678C58.373 126.893 58.2656 127 58.0508 127H57.1914ZM63.1265 122.435C62.9152 122.435 62.8096 122.345 62.8096 122.166V121.629C62.8096 121.45 62.9152 121.36 63.1265 121.36H63.4917V121.172C63.4917 121.011 63.5293 120.864 63.6045 120.732L64.0181 120.007C64.0968 119.871 64.1899 119.803 64.2974 119.803H64.6733C64.8882 119.803 64.9956 119.91 64.9956 120.125V121.36H65.8657C66.077 121.36 66.1826 121.45 66.1826 121.629V122.166C66.1826 122.345 66.077 122.435 65.8657 122.435H64.9956V125.099C64.9956 125.464 65.0207 125.727 65.0708 125.888C65.1245 126.046 65.2606 126.125 65.479 126.125C65.59 126.125 65.7153 126.107 65.855 126.071C65.9946 126.031 66.1038 125.994 66.1826 125.958C66.3079 125.901 66.3903 125.942 66.4297 126.082L66.5908 126.694C66.623 126.816 66.5765 126.905 66.4512 126.962C66.333 127.016 66.1701 127.064 65.9624 127.107C65.7583 127.154 65.5524 127.177 65.3447 127.177C64.8327 127.177 64.3958 127.072 64.0342 126.86C63.6725 126.649 63.4917 126.214 63.4917 125.555V122.435H63.1265ZM71.6826 127C71.4678 127 71.3604 126.893 71.3604 126.678V121.683C71.3604 121.468 71.4678 121.36 71.6826 121.36H72.542C72.7568 121.36 72.8643 121.468 72.8643 121.683V126.678C72.8643 126.893 72.7568 127 72.542 127H71.6826ZM71.6826 120.533C71.4678 120.533 71.3604 120.426 71.3604 120.211V119.523C71.3604 119.309 71.4678 119.201 71.6826 119.201H72.542C72.7568 119.201 72.8643 119.309 72.8643 119.523V120.211C72.8643 120.426 72.7568 120.533 72.542 120.533H71.6826ZM74.6475 127C74.4326 127 74.3252 126.893 74.3252 126.678V121.683C74.3252 121.468 74.4326 121.36 74.6475 121.36H75.4961C75.7109 121.36 75.8184 121.468 75.8184 121.683V121.994H75.8398C76.0046 121.711 76.214 121.518 76.4683 121.414C76.7225 121.307 77.0286 121.253 77.3867 121.253C77.9453 121.253 78.4072 121.428 78.7725 121.779C79.1377 122.13 79.3203 122.771 79.3203 123.702V126.678C79.3203 126.893 79.2129 127 78.998 127H78.1387C77.9238 127 77.8164 126.893 77.8164 126.678V124.089C77.8164 123.308 77.7627 122.816 77.6553 122.612C77.5479 122.408 77.3169 122.306 76.9624 122.306C76.5864 122.306 76.3035 122.452 76.1138 122.746C75.924 123.036 75.8291 123.641 75.8291 124.562V126.678C75.8291 126.893 75.7217 127 75.5068 127H74.6475ZM84.2295 124.18C84.2295 123.267 84.4587 122.551 84.917 122.032C85.3753 121.513 86.0789 121.253 87.0278 121.253C87.5828 121.253 88.0143 121.326 88.3223 121.473C88.6302 121.62 88.8773 121.835 89.0635 122.118C89.1745 122.286 89.1566 122.418 89.0098 122.515L88.4404 122.891C88.2793 122.999 88.1379 122.957 88.0161 122.768C87.9552 122.674 87.8389 122.574 87.667 122.467C87.4951 122.359 87.2821 122.306 87.0278 122.306C86.6232 122.306 86.3206 122.449 86.1201 122.735C85.9196 123.018 85.8193 123.5 85.8193 124.18C85.8193 124.861 85.9196 125.344 86.1201 125.63C86.3206 125.913 86.6232 126.055 87.0278 126.055C87.3179 126.055 87.5524 125.994 87.7314 125.872C87.9105 125.75 88.0788 125.593 88.2363 125.399C88.3724 125.235 88.5156 125.211 88.666 125.33L89.1655 125.722C89.3159 125.84 89.3249 125.997 89.1924 126.194C89.0527 126.402 88.8146 126.606 88.478 126.807C88.145 127.007 87.6616 127.107 87.0278 127.107C86.0789 127.107 85.3753 126.848 84.917 126.329C84.4587 125.809 84.2295 125.093 84.2295 124.18ZM90.6855 127C90.4707 127 90.3633 126.893 90.3633 126.678V120.334C90.3633 120.173 90.4009 120.027 90.4761 119.894L90.8896 119.169C90.9684 119.033 91.0615 118.965 91.1689 118.965H91.5449C91.7598 118.965 91.8672 119.072 91.8672 119.287V126.678C91.8672 126.893 91.7598 127 91.5449 127H90.6855ZM93.0273 125.496C93.0273 124.78 93.3693 124.261 94.0532 123.938C94.7371 123.616 95.5177 123.444 96.395 123.423V123.208C96.395 122.879 96.3127 122.646 96.1479 122.51C95.9832 122.374 95.7541 122.306 95.4604 122.306C95.2528 122.306 95.0684 122.336 94.9072 122.397C94.7497 122.454 94.6118 122.522 94.4937 122.601C94.3791 122.676 94.2752 122.753 94.1821 122.832C94.0174 122.975 93.8813 122.982 93.7739 122.854L93.3281 122.306C93.2171 122.17 93.244 122.03 93.4087 121.887C93.534 121.776 93.679 121.679 93.8438 121.597C94.012 121.514 94.234 121.437 94.5098 121.366C94.7855 121.291 95.1436 121.253 95.584 121.253C96.3288 121.253 96.8999 121.425 97.2974 121.769C97.6984 122.112 97.8989 122.619 97.8989 123.289V126.678C97.8989 126.893 97.7915 127 97.5767 127H96.6958C96.5024 127 96.4058 126.893 96.4058 126.678V126.517H96.395C96.1838 126.721 95.9295 126.871 95.6323 126.968C95.3387 127.061 95.0684 127.107 94.8213 127.107C94.234 127.107 93.7882 126.964 93.4839 126.678C93.1795 126.388 93.0273 125.994 93.0273 125.496ZM94.6172 125.464C94.6172 125.589 94.6423 125.698 94.6924 125.792C94.7425 125.881 94.8213 125.947 94.9287 125.99C95.0361 126.033 95.1561 126.055 95.2886 126.055C95.4712 126.055 95.6484 126.03 95.8203 125.979C95.9922 125.929 96.1838 125.811 96.395 125.625V124.459C95.7935 124.528 95.3906 124.615 95.1865 124.723C94.9824 124.83 94.8356 124.941 94.7461 125.056C94.6602 125.17 94.6172 125.306 94.6172 125.464ZM99.2524 126.624C99.077 126.499 99.0286 126.364 99.1074 126.221L99.3813 125.722C99.478 125.543 99.6284 125.521 99.8325 125.657C100.037 125.793 100.277 125.894 100.552 125.958C100.832 126.022 101.086 126.055 101.315 126.055C101.476 126.055 101.626 126.039 101.766 126.006C101.906 125.974 102.024 125.911 102.121 125.818C102.217 125.725 102.266 125.589 102.266 125.41C102.266 125.303 102.237 125.211 102.18 125.136C102.122 125.061 102.049 125.004 101.959 124.964C101.87 124.925 101.775 124.893 101.675 124.868C101.542 124.835 101.351 124.782 101.1 124.707C100.853 124.631 100.615 124.544 100.386 124.443C100.196 124.361 100.01 124.246 99.8271 124.1C99.6481 123.949 99.5156 123.783 99.4297 123.6C99.3473 123.417 99.3062 123.192 99.3062 122.923C99.3062 122.562 99.41 122.245 99.6177 121.973C99.8289 121.701 100.101 121.513 100.434 121.409C100.767 121.305 101.182 121.253 101.68 121.253C102.017 121.253 102.344 121.301 102.663 121.398C102.982 121.495 103.209 121.586 103.345 121.672C103.56 121.808 103.614 121.953 103.506 122.107L103.179 122.585C103.078 122.728 102.917 122.739 102.695 122.617C102.527 122.524 102.361 122.449 102.196 122.392C102.035 122.334 101.854 122.306 101.653 122.306C101.517 122.306 101.387 122.32 101.261 122.349C101.136 122.377 101.028 122.431 100.939 122.51C100.853 122.589 100.81 122.692 100.81 122.821C100.81 122.957 100.849 123.065 100.928 123.144C101.011 123.219 101.104 123.274 101.208 123.31C101.315 123.346 101.417 123.38 101.514 123.412C101.714 123.477 101.917 123.539 102.121 123.6C102.325 123.657 102.532 123.727 102.744 123.81C102.926 123.881 103.104 123.983 103.275 124.116C103.447 124.248 103.573 124.417 103.651 124.621C103.73 124.825 103.77 125.057 103.77 125.319C103.77 125.666 103.666 125.988 103.458 126.286C103.25 126.583 102.976 126.794 102.636 126.919C102.296 127.045 101.9 127.107 101.449 127.107C100.944 127.107 100.515 127.072 100.16 127C99.8057 126.928 99.5031 126.803 99.2524 126.624ZM104.656 126.624C104.48 126.499 104.432 126.364 104.511 126.221L104.785 125.722C104.881 125.543 105.032 125.521 105.236 125.657C105.44 125.793 105.68 125.894 105.956 125.958C106.235 126.022 106.489 126.055 106.718 126.055C106.879 126.055 107.03 126.039 107.169 126.006C107.309 125.974 107.427 125.911 107.524 125.818C107.621 125.725 107.669 125.589 107.669 125.41C107.669 125.303 107.64 125.211 107.583 125.136C107.526 125.061 107.452 125.004 107.363 124.964C107.273 124.925 107.178 124.893 107.078 124.868C106.946 124.835 106.754 124.782 106.503 124.707C106.256 124.631 106.018 124.544 105.789 124.443C105.599 124.361 105.413 124.246 105.23 124.1C105.051 123.949 104.919 123.783 104.833 123.6C104.751 123.417 104.709 123.192 104.709 122.923C104.709 122.562 104.813 122.245 105.021 121.973C105.232 121.701 105.504 121.513 105.837 121.409C106.17 121.305 106.586 121.253 107.083 121.253C107.42 121.253 107.748 121.301 108.066 121.398C108.385 121.495 108.612 121.586 108.749 121.672C108.963 121.808 109.017 121.953 108.91 122.107L108.582 122.585C108.482 122.728 108.321 122.739 108.099 122.617C107.93 122.524 107.764 122.449 107.599 122.392C107.438 122.334 107.257 122.306 107.057 122.306C106.921 122.306 106.79 122.32 106.665 122.349C106.539 122.377 106.432 122.431 106.342 122.51C106.256 122.589 106.213 122.692 106.213 122.821C106.213 122.957 106.253 123.065 106.332 123.144C106.414 123.219 106.507 123.274 106.611 123.31C106.718 123.346 106.82 123.38 106.917 123.412C107.118 123.477 107.32 123.539 107.524 123.6C107.728 123.657 107.936 123.727 108.147 123.81C108.33 123.881 108.507 123.983 108.679 124.116C108.851 124.248 108.976 124.417 109.055 124.621C109.133 124.825 109.173 125.057 109.173 125.319C109.173 125.666 109.069 125.988 108.861 126.286C108.654 126.583 108.38 126.794 108.04 126.919C107.699 127.045 107.304 127.107 106.853 127.107C106.348 127.107 105.918 127.072 105.563 127C105.209 126.928 104.906 126.803 104.656 126.624ZM113.631 125.496C113.631 124.78 113.973 124.261 114.657 123.938C115.341 123.616 116.121 123.444 116.999 123.423V123.208C116.999 122.879 116.916 122.646 116.751 122.51C116.587 122.374 116.358 122.306 116.064 122.306C115.856 122.306 115.672 122.336 115.511 122.397C115.353 122.454 115.215 122.522 115.097 122.601C114.983 122.676 114.879 122.753 114.786 122.832C114.621 122.975 114.485 122.982 114.377 122.854L113.932 122.306C113.821 122.17 113.847 122.03 114.012 121.887C114.138 121.776 114.283 121.679 114.447 121.597C114.616 121.514 114.838 121.437 115.113 121.366C115.389 121.291 115.747 121.253 116.188 121.253C116.932 121.253 117.503 121.425 117.901 121.769C118.302 122.112 118.502 122.619 118.502 123.289V126.678C118.502 126.893 118.395 127 118.18 127H117.299C117.106 127 117.009 126.893 117.009 126.678V126.517H116.999C116.787 126.721 116.533 126.871 116.236 126.968C115.942 127.061 115.672 127.107 115.425 127.107C114.838 127.107 114.392 126.964 114.087 126.678C113.783 126.388 113.631 125.994 113.631 125.496ZM115.221 125.464C115.221 125.589 115.246 125.698 115.296 125.792C115.346 125.881 115.425 125.947 115.532 125.99C115.64 126.033 115.76 126.055 115.892 126.055C116.075 126.055 116.252 126.03 116.424 125.979C116.596 125.929 116.787 125.811 116.999 125.625V124.459C116.397 124.528 115.994 124.615 115.79 124.723C115.586 124.83 115.439 124.941 115.35 125.056C115.264 125.17 115.221 125.306 115.221 125.464ZM120.291 127C120.076 127 119.969 126.893 119.969 126.678V121.683C119.969 121.468 120.076 121.36 120.291 121.36H121.14C121.354 121.36 121.462 121.468 121.462 121.683V122.123H121.483C121.576 121.894 121.732 121.692 121.951 121.516C122.169 121.341 122.427 121.253 122.724 121.253C122.928 121.253 123.097 121.278 123.229 121.328C123.354 121.375 123.403 121.461 123.374 121.586L123.224 122.225C123.191 122.368 123.095 122.411 122.934 122.354C122.84 122.322 122.751 122.306 122.665 122.306C122.321 122.306 122.037 122.512 121.811 122.923C121.585 123.335 121.473 123.935 121.473 124.723V126.678C121.473 126.893 121.365 127 121.15 127H120.291ZM123.89 124.18C123.89 123.274 124.115 122.56 124.566 122.037C125.021 121.514 125.662 121.253 126.489 121.253C127.449 121.253 128.161 121.5 128.627 121.994C129.092 122.488 129.325 123.283 129.325 124.379C129.325 124.594 129.225 124.701 129.024 124.701H125.479C125.537 125.296 125.684 125.67 125.92 125.824C126.156 125.978 126.43 126.055 126.742 126.055C127.039 126.055 127.266 126.015 127.424 125.937C127.581 125.858 127.714 125.75 127.821 125.614C127.943 125.457 128.093 125.432 128.272 125.539L128.81 125.867C129.021 125.996 129.051 126.15 128.901 126.329C128.682 126.59 128.426 126.785 128.133 126.914C127.839 127.043 127.375 127.107 126.742 127.107C125.714 127.107 124.982 126.846 124.545 126.323C124.108 125.8 123.89 125.086 123.89 124.18ZM125.485 123.627H127.821C127.821 123.24 127.725 122.925 127.531 122.682C127.338 122.435 127.03 122.311 126.607 122.311C126.271 122.311 126.004 122.429 125.807 122.666C125.61 122.898 125.503 123.219 125.485 123.627ZM134.245 124.658V121.683C134.245 121.468 134.353 121.36 134.567 121.36H135.427C135.642 121.36 135.749 121.468 135.749 121.683V124.271C135.749 125.052 135.803 125.544 135.91 125.749C136.018 125.953 136.243 126.055 136.587 126.055C136.952 126.055 137.23 125.91 137.419 125.62C137.609 125.326 137.704 124.719 137.704 123.799V121.683C137.704 121.468 137.812 121.36 138.026 121.36H138.886C139.101 121.36 139.208 121.468 139.208 121.683V126.678C139.208 126.893 139.101 127 138.886 127H138.037C137.822 127 137.715 126.893 137.715 126.678V126.366H137.693C137.529 126.649 137.319 126.844 137.065 126.952C136.811 127.056 136.51 127.107 136.163 127.107C135.615 127.107 135.158 126.932 134.793 126.581C134.428 126.23 134.245 125.589 134.245 124.658ZM140.991 129.148C140.776 129.148 140.669 129.041 140.669 128.826V121.683C140.669 121.468 140.776 121.36 140.991 121.36H141.84C142.019 121.36 142.116 121.468 142.13 121.683L142.151 121.994H142.173C142.359 121.686 142.567 121.486 142.796 121.393C143.025 121.299 143.301 121.253 143.623 121.253C144.465 121.253 145.055 121.545 145.396 122.128C145.739 122.708 145.911 123.392 145.911 124.18C145.911 124.968 145.739 125.654 145.396 126.237C145.055 126.817 144.465 127.107 143.623 127.107C143.301 127.107 143.025 127.061 142.796 126.968C142.567 126.875 142.359 126.674 142.173 126.366H142.151C142.166 126.509 142.173 126.653 142.173 126.796V128.826C142.173 129.041 142.065 129.148 141.851 129.148H140.991ZM142.173 124.422C142.173 124.905 142.268 125.299 142.458 125.604C142.651 125.904 142.882 126.055 143.15 126.055C143.634 126.055 143.949 125.886 144.096 125.55C144.246 125.21 144.321 124.753 144.321 124.18C144.321 123.607 144.246 123.153 144.096 122.816C143.949 122.476 143.634 122.306 143.15 122.306C142.882 122.306 142.651 122.458 142.458 122.762C142.268 123.063 142.173 123.455 142.173 123.938V124.422ZM147.394 127C147.179 127 147.071 126.893 147.071 126.678V120.334C147.071 120.173 147.109 120.027 147.184 119.894L147.598 119.169C147.676 119.033 147.77 118.965 147.877 118.965H148.253C148.468 118.965 148.575 119.072 148.575 119.287V126.678C148.575 126.893 148.468 127 148.253 127H147.394ZM149.735 124.18C149.735 123.267 149.97 122.551 150.439 122.032C150.912 121.513 151.613 121.253 152.544 121.253C153.475 121.253 154.175 121.513 154.645 122.032C155.117 122.551 155.354 123.267 155.354 124.18C155.354 125.093 155.117 125.809 154.645 126.329C154.175 126.848 153.475 127.107 152.544 127.107C151.613 127.107 150.912 126.848 150.439 126.329C149.97 125.809 149.735 125.093 149.735 124.18ZM151.325 124.18C151.325 124.861 151.429 125.344 151.637 125.63C151.848 125.913 152.151 126.055 152.544 126.055C152.938 126.055 153.239 125.913 153.447 125.63C153.658 125.344 153.764 124.861 153.764 124.18C153.764 123.5 153.658 123.018 153.447 122.735C153.239 122.449 152.938 122.306 152.544 122.306C152.151 122.306 151.848 122.449 151.637 122.735C151.429 123.018 151.325 123.5 151.325 124.18ZM156.213 125.496C156.213 124.78 156.555 124.261 157.239 123.938C157.923 123.616 158.703 123.444 159.581 123.423V123.208C159.581 122.879 159.498 122.646 159.333 122.51C159.169 122.374 158.94 122.306 158.646 122.306C158.438 122.306 158.254 122.336 158.093 122.397C157.935 122.454 157.797 122.522 157.679 122.601C157.565 122.676 157.461 122.753 157.368 122.832C157.203 122.975 157.067 122.982 156.959 122.854L156.514 122.306C156.403 122.17 156.43 122.03 156.594 121.887C156.72 121.776 156.865 121.679 157.029 121.597C157.198 121.514 157.42 121.437 157.695 121.366C157.971 121.291 158.329 121.253 158.77 121.253C159.514 121.253 160.085 121.425 160.483 121.769C160.884 122.112 161.084 122.619 161.084 123.289V126.678C161.084 126.893 160.977 127 160.762 127H159.881C159.688 127 159.591 126.893 159.591 126.678V126.517H159.581C159.369 126.721 159.115 126.871 158.818 126.968C158.524 127.061 158.254 127.107 158.007 127.107C157.42 127.107 156.974 126.964 156.669 126.678C156.365 126.388 156.213 125.994 156.213 125.496ZM157.803 125.464C157.803 125.589 157.828 125.698 157.878 125.792C157.928 125.881 158.007 125.947 158.114 125.99C158.222 126.033 158.342 126.055 158.474 126.055C158.657 126.055 158.834 126.03 159.006 125.979C159.178 125.929 159.369 125.811 159.581 125.625V124.459C158.979 124.528 158.576 124.615 158.372 124.723C158.168 124.83 158.021 124.941 157.932 125.056C157.846 125.17 157.803 125.306 157.803 125.464ZM162.25 124.18C162.25 123.392 162.42 122.708 162.76 122.128C163.104 121.545 163.697 121.253 164.538 121.253C164.86 121.253 165.136 121.299 165.365 121.393C165.594 121.486 165.802 121.686 165.988 121.994H166.01C165.995 121.851 165.988 121.708 165.988 121.564V119.395C165.988 119.18 166.096 119.072 166.311 119.072H167.17C167.385 119.072 167.492 119.18 167.492 119.395V126.678C167.492 126.893 167.385 127 167.17 127H166.321C166.142 127 166.046 126.893 166.031 126.678L166.01 126.366H165.988C165.802 126.674 165.594 126.875 165.365 126.968C165.136 127.061 164.86 127.107 164.538 127.107C163.697 127.107 163.104 126.817 162.76 126.237C162.42 125.654 162.25 124.968 162.25 124.18ZM163.84 124.18C163.84 124.753 163.913 125.21 164.06 125.55C164.21 125.886 164.527 126.055 165.011 126.055C165.279 126.055 165.508 125.904 165.698 125.604C165.892 125.299 165.988 124.905 165.988 124.422V123.938C165.988 123.455 165.892 123.063 165.698 122.762C165.508 122.458 165.279 122.306 165.011 122.306C164.527 122.306 164.21 122.476 164.06 122.816C163.913 123.153 163.84 123.607 163.84 124.18ZM168.652 124.18C168.652 123.274 168.878 122.56 169.329 122.037C169.784 121.514 170.425 121.253 171.252 121.253C172.212 121.253 172.924 121.5 173.39 121.994C173.855 122.488 174.088 123.283 174.088 124.379C174.088 124.594 173.988 124.701 173.787 124.701H170.242C170.299 125.296 170.446 125.67 170.683 125.824C170.919 125.978 171.193 126.055 171.504 126.055C171.802 126.055 172.029 126.015 172.187 125.937C172.344 125.858 172.477 125.75 172.584 125.614C172.706 125.457 172.856 125.432 173.035 125.539L173.572 125.867C173.784 125.996 173.814 126.15 173.664 126.329C173.445 126.59 173.189 126.785 172.896 126.914C172.602 127.043 172.138 127.107 171.504 127.107C170.477 127.107 169.744 126.846 169.308 126.323C168.871 125.8 168.652 125.086 168.652 124.18ZM170.248 123.627H172.584C172.584 123.24 172.487 122.925 172.294 122.682C172.101 122.435 171.793 122.311 171.37 122.311C171.034 122.311 170.767 122.429 170.57 122.666C170.373 122.898 170.265 123.219 170.248 123.627ZM174.958 124.18C174.958 123.392 175.128 122.708 175.468 122.128C175.812 121.545 176.405 121.253 177.246 121.253C177.568 121.253 177.844 121.299 178.073 121.393C178.302 121.486 178.51 121.686 178.696 121.994H178.718C178.703 121.851 178.696 121.708 178.696 121.564V119.395C178.696 119.18 178.804 119.072 179.019 119.072H179.878C180.093 119.072 180.2 119.18 180.2 119.395V126.678C180.2 126.893 180.093 127 179.878 127H179.029C178.85 127 178.754 126.893 178.739 126.678L178.718 126.366H178.696C178.51 126.674 178.302 126.875 178.073 126.968C177.844 127.061 177.568 127.107 177.246 127.107C176.405 127.107 175.812 126.817 175.468 126.237C175.128 125.654 174.958 124.968 174.958 124.18ZM176.548 124.18C176.548 124.753 176.621 125.21 176.768 125.55C176.918 125.886 177.235 126.055 177.719 126.055C177.987 126.055 178.216 125.904 178.406 125.604C178.6 125.299 178.696 124.905 178.696 124.422V123.938C178.696 123.455 178.6 123.063 178.406 122.762C178.216 122.458 177.987 122.306 177.719 122.306C177.235 122.306 176.918 122.476 176.768 122.816C176.621 123.153 176.548 123.607 176.548 124.18ZM185.743 127C185.528 127 185.421 126.893 185.421 126.678V119.395C185.421 119.18 185.528 119.072 185.743 119.072H186.603C186.817 119.072 186.925 119.18 186.925 119.395V121.564C186.925 121.708 186.918 121.851 186.903 121.994H186.925C187.111 121.686 187.319 121.486 187.548 121.393C187.777 121.299 188.053 121.253 188.375 121.253C189.216 121.253 189.807 121.545 190.147 122.128C190.491 122.708 190.663 123.392 190.663 124.18C190.663 124.968 190.491 125.654 190.147 126.237C189.807 126.817 189.216 127.107 188.375 127.107C188.053 127.107 187.777 127.061 187.548 126.968C187.319 126.875 187.111 126.674 186.925 126.366H186.903L186.882 126.678C186.868 126.893 186.771 127 186.592 127H185.743ZM186.925 124.422C186.925 124.905 187.02 125.299 187.209 125.604C187.403 125.904 187.634 126.055 187.902 126.055C188.386 126.055 188.701 125.886 188.848 125.55C188.998 125.21 189.073 124.753 189.073 124.18C189.073 123.607 188.998 123.153 188.848 122.816C188.701 122.476 188.386 122.306 187.902 122.306C187.634 122.306 187.403 122.458 187.209 122.762C187.02 123.063 186.925 123.455 186.925 123.938V124.422ZM191.474 121.779C191.377 121.5 191.437 121.36 191.651 121.36H192.613C192.778 121.36 192.885 121.452 192.935 121.634L193.746 124.637C193.785 124.776 193.819 124.957 193.848 125.179C193.88 125.398 193.896 125.537 193.896 125.598H193.929C193.972 125.408 194.002 125.258 194.02 125.147C194.042 125.032 194.097 124.812 194.187 124.486L194.955 121.634C195.005 121.452 195.112 121.36 195.277 121.36H196.238C196.45 121.36 196.509 121.5 196.416 121.779L194.605 127.226C194.394 127.863 194.135 128.361 193.827 128.719C193.519 129.077 193.091 129.256 192.543 129.256C192.242 129.256 191.974 129.231 191.737 129.181C191.601 129.152 191.549 129.059 191.582 128.901L191.7 128.311C191.732 128.157 191.823 128.103 191.974 128.149C192.085 128.185 192.188 128.203 192.285 128.203C192.575 128.203 192.795 128.065 192.946 127.79C193.1 127.514 193.202 127.278 193.252 127.081L193.268 127L191.474 121.779ZM200.712 122.435C200.501 122.435 200.396 122.345 200.396 122.166V121.629C200.396 121.45 200.501 121.36 200.712 121.36H201.078V121.172C201.078 121.011 201.115 120.864 201.19 120.732L201.604 120.007C201.683 119.871 201.776 119.803 201.883 119.803H202.259C202.474 119.803 202.582 119.91 202.582 120.125V121.36H203.452C203.663 121.36 203.769 121.45 203.769 121.629V122.166C203.769 122.345 203.663 122.435 203.452 122.435H202.582V125.099C202.582 125.464 202.607 125.727 202.657 125.888C202.71 126.046 202.847 126.125 203.065 126.125C203.176 126.125 203.301 126.107 203.441 126.071C203.581 126.031 203.69 125.994 203.769 125.958C203.894 125.901 203.976 125.942 204.016 126.082L204.177 126.694C204.209 126.816 204.162 126.905 204.037 126.962C203.919 127.016 203.756 127.064 203.548 127.107C203.344 127.154 203.138 127.177 202.931 127.177C202.419 127.177 201.982 127.072 201.62 126.86C201.258 126.649 201.078 126.214 201.078 125.555V122.435H200.712ZM205.509 127C205.294 127 205.187 126.893 205.187 126.678V119.395C205.187 119.18 205.294 119.072 205.509 119.072H206.368C206.583 119.072 206.69 119.18 206.69 119.395V121.564C206.69 121.708 206.683 121.851 206.669 121.994H206.701C206.866 121.711 207.075 121.518 207.33 121.414C207.584 121.307 207.89 121.253 208.248 121.253C208.807 121.253 209.269 121.428 209.634 121.779C209.999 122.13 210.182 122.771 210.182 123.702V126.678C210.182 126.893 210.074 127 209.859 127H209C208.785 127 208.678 126.893 208.678 126.678V124.089C208.678 123.308 208.624 122.816 208.517 122.612C208.409 122.408 208.178 122.306 207.824 122.306C207.448 122.306 207.165 122.452 206.975 122.746C206.785 123.036 206.69 123.641 206.69 124.562V126.678C206.69 126.893 206.583 127 206.368 127H205.509ZM211.331 124.18C211.331 123.274 211.557 122.56 212.008 122.037C212.463 121.514 213.104 121.253 213.931 121.253C214.89 121.253 215.603 121.5 216.068 121.994C216.534 122.488 216.767 123.283 216.767 124.379C216.767 124.594 216.666 124.701 216.466 124.701H212.921C212.978 125.296 213.125 125.67 213.361 125.824C213.598 125.978 213.872 126.055 214.183 126.055C214.48 126.055 214.708 126.015 214.865 125.937C215.023 125.858 215.155 125.75 215.263 125.614C215.384 125.457 215.535 125.432 215.714 125.539L216.251 125.867C216.462 125.996 216.493 126.15 216.342 126.329C216.124 126.59 215.868 126.785 215.574 126.914C215.281 127.043 214.817 127.107 214.183 127.107C213.155 127.107 212.423 126.846 211.986 126.323C211.549 125.8 211.331 125.086 211.331 124.18ZM212.926 123.627H215.263C215.263 123.24 215.166 122.925 214.973 122.682C214.779 122.435 214.471 122.311 214.049 122.311C213.712 122.311 213.445 122.429 213.249 122.666C213.052 122.898 212.944 123.219 212.926 123.627ZM33.4297 140.18C33.4297 139.267 33.6589 138.551 34.1172 138.032C34.5755 137.513 35.2791 137.253 36.228 137.253C36.783 137.253 37.2145 137.326 37.5225 137.473C37.8304 137.62 38.0775 137.835 38.2637 138.118C38.3747 138.286 38.3568 138.418 38.21 138.515L37.6406 138.891C37.4795 138.999 37.3381 138.957 37.2163 138.768C37.1554 138.674 37.0391 138.574 36.8672 138.467C36.6953 138.359 36.4823 138.306 36.228 138.306C35.8234 138.306 35.5208 138.449 35.3203 138.735C35.1198 139.018 35.0195 139.5 35.0195 140.18C35.0195 140.861 35.1198 141.344 35.3203 141.63C35.5208 141.913 35.8234 142.055 36.228 142.055C36.5181 142.055 36.7526 141.994 36.9316 141.872C37.1107 141.75 37.279 141.593 37.4365 141.399C37.5726 141.235 37.7158 141.211 37.8662 141.33L38.3657 141.722C38.5161 141.84 38.5251 141.997 38.3926 142.194C38.2529 142.402 38.0148 142.606 37.6782 142.807C37.3452 143.007 36.8618 143.107 36.228 143.107C35.2791 143.107 34.5755 142.848 34.1172 142.329C33.6589 141.809 33.4297 141.093 33.4297 140.18ZM39.2627 140.18C39.2627 139.267 39.4972 138.551 39.9663 138.032C40.439 137.513 41.1408 137.253 42.0718 137.253C43.0028 137.253 43.7028 137.513 44.1719 138.032C44.6445 138.551 44.8809 139.267 44.8809 140.18C44.8809 141.093 44.6445 141.809 44.1719 142.329C43.7028 142.848 43.0028 143.107 42.0718 143.107C41.1408 143.107 40.439 142.848 39.9663 142.329C39.4972 141.809 39.2627 141.093 39.2627 140.18ZM40.8525 140.18C40.8525 140.861 40.9564 141.344 41.1641 141.63C41.3753 141.913 41.6779 142.055 42.0718 142.055C42.4657 142.055 42.7664 141.913 42.9741 141.63C43.1854 141.344 43.291 140.861 43.291 140.18C43.291 139.5 43.1854 139.018 42.9741 138.735C42.7664 138.449 42.4657 138.306 42.0718 138.306C41.6779 138.306 41.3753 138.449 41.1641 138.735C40.9564 139.018 40.8525 139.5 40.8525 140.18ZM46.3633 143C46.1484 143 46.041 142.893 46.041 142.678V137.683C46.041 137.468 46.1484 137.36 46.3633 137.36H47.2119C47.4268 137.36 47.5342 137.468 47.5342 137.683V137.994H47.5557C47.7204 137.711 47.9299 137.518 48.1841 137.414C48.4383 137.307 48.7445 137.253 49.1025 137.253C49.6611 137.253 50.123 137.428 50.4883 137.779C50.8535 138.13 51.0361 138.771 51.0361 139.702V142.678C51.0361 142.893 50.9287 143 50.7139 143H49.8545C49.6396 143 49.5322 142.893 49.5322 142.678V140.089C49.5322 139.308 49.4785 138.816 49.3711 138.612C49.2637 138.408 49.0327 138.306 48.6782 138.306C48.3022 138.306 48.0194 138.452 47.8296 138.746C47.6398 139.036 47.5449 139.641 47.5449 140.562V142.678C47.5449 142.893 47.4375 143 47.2227 143H46.3633ZM52.1855 140.18C52.1855 139.267 52.4147 138.551 52.873 138.032C53.3314 137.513 54.035 137.253 54.9839 137.253C55.5389 137.253 55.9704 137.326 56.2783 137.473C56.5863 137.62 56.8333 137.835 57.0195 138.118C57.1305 138.286 57.1126 138.418 56.9658 138.515L56.3965 138.891C56.2354 138.999 56.0939 138.957 55.9722 138.768C55.9113 138.674 55.7949 138.574 55.623 138.467C55.4512 138.359 55.2381 138.306 54.9839 138.306C54.5793 138.306 54.2767 138.449 54.0762 138.735C53.8757 139.018 53.7754 139.5 53.7754 140.18C53.7754 140.861 53.8757 141.344 54.0762 141.63C54.2767 141.913 54.5793 142.055 54.9839 142.055C55.2739 142.055 55.5085 141.994 55.6875 141.872C55.8665 141.75 56.0348 141.593 56.1924 141.399C56.3285 141.235 56.4717 141.211 56.6221 141.33L57.1216 141.722C57.272 141.84 57.2809 141.997 57.1484 142.194C57.0088 142.402 56.7707 142.606 56.4341 142.807C56.1011 143.007 55.6177 143.107 54.9839 143.107C54.035 143.107 53.3314 142.848 52.873 142.329C52.4147 141.809 52.1855 141.093 52.1855 140.18ZM58.0186 140.18C58.0186 139.274 58.2441 138.56 58.6953 138.037C59.1501 137.514 59.791 137.253 60.6182 137.253C61.5778 137.253 62.2904 137.5 62.7559 137.994C63.2214 138.488 63.4541 139.283 63.4541 140.379C63.4541 140.594 63.3538 140.701 63.1533 140.701H59.6084C59.6657 141.296 59.8125 141.67 60.0488 141.824C60.2852 141.978 60.5591 142.055 60.8706 142.055C61.1678 142.055 61.3952 142.015 61.5527 141.937C61.7103 141.858 61.8428 141.75 61.9502 141.614C62.0719 141.457 62.2223 141.432 62.4014 141.539L62.9385 141.867C63.1497 141.996 63.1802 142.15 63.0298 142.329C62.8114 142.59 62.5553 142.785 62.2617 142.914C61.9681 143.043 61.5044 143.107 60.8706 143.107C59.8429 143.107 59.1107 142.846 58.6738 142.323C58.237 141.8 58.0186 141.086 58.0186 140.18ZM59.6138 139.627H61.9502C61.9502 139.24 61.8535 138.925 61.6602 138.682C61.4668 138.435 61.1589 138.311 60.7363 138.311C60.3997 138.311 60.133 138.429 59.936 138.666C59.7391 138.898 59.6317 139.219 59.6138 139.627ZM64.9473 143C64.7324 143 64.625 142.893 64.625 142.678V137.683C64.625 137.468 64.7324 137.36 64.9473 137.36H65.7959C66.0107 137.36 66.1182 137.468 66.1182 137.683V138.123H66.1396C66.2327 137.894 66.3885 137.692 66.6069 137.516C66.8254 137.341 67.0832 137.253 67.3804 137.253C67.5845 137.253 67.7528 137.278 67.8853 137.328C68.0106 137.375 68.0589 137.461 68.0303 137.586L67.8799 138.225C67.8477 138.368 67.751 138.411 67.5898 138.354C67.4967 138.322 67.4072 138.306 67.3213 138.306C66.9775 138.306 66.6929 138.512 66.4673 138.923C66.2417 139.335 66.1289 139.935 66.1289 140.723V142.678C66.1289 142.893 66.0215 143 65.8066 143H64.9473ZM69.1689 143C68.9541 143 68.8467 142.893 68.8467 142.678V137.683C68.8467 137.468 68.9541 137.36 69.1689 137.36H70.0176C70.2324 137.36 70.3398 137.468 70.3398 137.683V137.994H70.3613C70.526 137.711 70.7355 137.518 70.9897 137.414C71.244 137.307 71.5501 137.253 71.9082 137.253C72.4668 137.253 72.9287 137.428 73.2939 137.779C73.6592 138.13 73.8418 138.771 73.8418 139.702V142.678C73.8418 142.893 73.7344 143 73.5195 143H72.6602C72.4453 143 72.3379 142.893 72.3379 142.678V140.089C72.3379 139.308 72.2842 138.816 72.1768 138.612C72.0693 138.408 71.8384 138.306 71.4839 138.306C71.1079 138.306 70.825 138.452 70.6353 138.746C70.4455 139.036 70.3506 139.641 70.3506 140.562V142.678C70.3506 142.893 70.2432 143 70.0283 143H69.1689ZM78.8638 138.435C78.6525 138.435 78.5469 138.345 78.5469 138.166V137.629C78.5469 137.45 78.6525 137.36 78.8638 137.36H79.1646V136.608C79.1646 135.95 79.3525 135.511 79.7285 135.292C80.1045 135.074 80.5521 134.965 81.0713 134.965C81.3184 134.965 81.5296 134.979 81.7051 135.008C81.8841 135.036 82.0417 135.072 82.1777 135.115C82.3066 135.158 82.3532 135.248 82.3174 135.384L82.1562 135.991C82.124 136.109 82.0417 136.145 81.9092 136.098C81.8304 136.069 81.7194 136.05 81.5762 136.039C81.4365 136.025 81.3255 136.018 81.2432 136.018C80.9818 136.018 80.8206 136.109 80.7598 136.292C80.6989 136.474 80.6685 136.759 80.6685 137.146V137.36H81.3774C81.5887 137.36 81.6943 137.45 81.6943 137.629V138.166C81.6943 138.345 81.5887 138.435 81.3774 138.435H80.6685V142.678C80.6685 142.893 80.561 143 80.3462 143H79.4868C79.272 143 79.1646 142.893 79.1646 142.678V138.435H78.8638ZM82.4141 141.496C82.4141 140.78 82.756 140.261 83.4399 139.938C84.1239 139.616 84.9045 139.444 85.7817 139.423V139.208C85.7817 138.879 85.6994 138.646 85.5347 138.51C85.37 138.374 85.1408 138.306 84.8472 138.306C84.6395 138.306 84.4551 138.336 84.2939 138.397C84.1364 138.454 83.9985 138.522 83.8804 138.601C83.7658 138.676 83.6619 138.753 83.5688 138.832C83.4041 138.975 83.2681 138.982 83.1606 138.854L82.7148 138.306C82.6038 138.17 82.6307 138.03 82.7954 137.887C82.9207 137.776 83.0658 137.679 83.2305 137.597C83.3988 137.514 83.6208 137.437 83.8965 137.366C84.1722 137.291 84.5303 137.253 84.9707 137.253C85.7155 137.253 86.2866 137.425 86.6841 137.769C87.0851 138.112 87.2856 138.619 87.2856 139.289V142.678C87.2856 142.893 87.1782 143 86.9634 143H86.0825C85.8892 143 85.7925 142.893 85.7925 142.678V142.517H85.7817C85.5705 142.721 85.3162 142.871 85.019 142.968C84.7254 143.061 84.4551 143.107 84.208 143.107C83.6208 143.107 83.175 142.964 82.8706 142.678C82.5662 142.388 82.4141 141.994 82.4141 141.496ZM84.0039 141.464C84.0039 141.589 84.029 141.698 84.0791 141.792C84.1292 141.881 84.208 141.947 84.3154 141.99C84.4229 142.033 84.5428 142.055 84.6753 142.055C84.8579 142.055 85.0352 142.03 85.207 141.979C85.3789 141.929 85.5705 141.811 85.7817 141.625V140.459C85.1802 140.528 84.7773 140.615 84.5732 140.723C84.3691 140.83 84.2223 140.941 84.1328 141.056C84.0469 141.17 84.0039 141.306 84.0039 141.464ZM88.4512 140.18C88.4512 139.267 88.6803 138.551 89.1387 138.032C89.597 137.513 90.3006 137.253 91.2495 137.253C91.8045 137.253 92.236 137.326 92.5439 137.473C92.8519 137.62 93.099 137.835 93.2852 138.118C93.3962 138.286 93.3783 138.418 93.2314 138.515L92.6621 138.891C92.501 138.999 92.3595 138.957 92.2378 138.768C92.1769 138.674 92.0605 138.574 91.8887 138.467C91.7168 138.359 91.5037 138.306 91.2495 138.306C90.8449 138.306 90.5423 138.449 90.3418 138.735C90.1413 139.018 90.041 139.5 90.041 140.18C90.041 140.861 90.1413 141.344 90.3418 141.63C90.5423 141.913 90.8449 142.055 91.2495 142.055C91.5396 142.055 91.7741 141.994 91.9531 141.872C92.1322 141.75 92.3005 141.593 92.458 141.399C92.5941 141.235 92.7373 141.211 92.8877 141.33L93.3872 141.722C93.5376 141.84 93.5465 141.997 93.4141 142.194C93.2744 142.402 93.0363 142.606 92.6997 142.807C92.3667 143.007 91.8833 143.107 91.2495 143.107C90.3006 143.107 89.597 142.848 89.1387 142.329C88.6803 141.809 88.4512 141.093 88.4512 140.18ZM94.5742 140.658V137.683C94.5742 137.468 94.6816 137.36 94.8965 137.36H95.7559C95.9707 137.36 96.0781 137.468 96.0781 137.683V140.271C96.0781 141.052 96.1318 141.544 96.2393 141.749C96.3467 141.953 96.5723 142.055 96.916 142.055C97.2812 142.055 97.5588 141.91 97.7485 141.62C97.9383 141.326 98.0332 140.719 98.0332 139.799V137.683C98.0332 137.468 98.1406 137.36 98.3555 137.36H99.2148C99.4297 137.36 99.5371 137.468 99.5371 137.683V142.678C99.5371 142.893 99.4297 143 99.2148 143H98.3662C98.1514 143 98.0439 142.893 98.0439 142.678V142.366H98.0225C97.8577 142.649 97.6483 142.844 97.394 142.952C97.1398 143.056 96.839 143.107 96.4917 143.107C95.9438 143.107 95.4873 142.932 95.1221 142.581C94.7568 142.23 94.5742 141.589 94.5742 140.658ZM101.32 143C101.105 143 100.998 142.893 100.998 142.678V136.334C100.998 136.173 101.036 136.027 101.111 135.894L101.524 135.169C101.603 135.033 101.696 134.965 101.804 134.965H102.18C102.395 134.965 102.502 135.072 102.502 135.287V142.678C102.502 142.893 102.395 143 102.18 143H101.32ZM103.775 138.435C103.564 138.435 103.458 138.345 103.458 138.166V137.629C103.458 137.45 103.564 137.36 103.775 137.36H104.14V137.172C104.14 137.011 104.178 136.864 104.253 136.732L104.667 136.007C104.745 135.871 104.838 135.803 104.946 135.803H105.322C105.537 135.803 105.644 135.91 105.644 136.125V137.36H106.514C106.725 137.36 106.831 137.45 106.831 137.629V138.166C106.831 138.345 106.725 138.435 106.514 138.435H105.644V141.099C105.644 141.464 105.669 141.727 105.719 141.888C105.773 142.046 105.909 142.125 106.127 142.125C106.238 142.125 106.364 142.107 106.503 142.071C106.643 142.031 106.752 141.994 106.831 141.958C106.956 141.901 107.039 141.942 107.078 142.082L107.239 142.694C107.271 142.816 107.225 142.905 107.1 142.962C106.981 143.016 106.819 143.064 106.611 143.107C106.407 143.154 106.201 143.177 105.993 143.177C105.481 143.177 105.044 143.072 104.683 142.86C104.321 142.649 104.14 142.214 104.14 141.555V138.435H103.775ZM107.9 137.779C107.803 137.5 107.862 137.36 108.077 137.36H109.039C109.203 137.36 109.311 137.452 109.361 137.634L110.172 140.637C110.211 140.776 110.245 140.957 110.274 141.179C110.306 141.398 110.322 141.537 110.322 141.598H110.354C110.397 141.408 110.428 141.258 110.446 141.147C110.467 141.032 110.523 140.812 110.612 140.486L111.38 137.634C111.431 137.452 111.538 137.36 111.703 137.36H112.664C112.875 137.36 112.934 137.5 112.841 137.779L111.031 143.226C110.82 143.863 110.56 144.361 110.252 144.719C109.944 145.077 109.517 145.256 108.969 145.256C108.668 145.256 108.399 145.231 108.163 145.181C108.027 145.152 107.975 145.059 108.007 144.901L108.125 144.311C108.158 144.157 108.249 144.103 108.399 144.149C108.51 144.185 108.614 144.203 108.711 144.203C109.001 144.203 109.221 144.065 109.372 143.79C109.526 143.514 109.628 143.278 109.678 143.081L109.694 143L107.9 137.779ZM117.138 138.435C116.927 138.435 116.821 138.345 116.821 138.166V137.629C116.821 137.45 116.927 137.36 117.138 137.36H117.439V136.608C117.439 135.95 117.627 135.511 118.003 135.292C118.379 135.074 118.826 134.965 119.346 134.965C119.593 134.965 119.804 134.979 119.979 135.008C120.159 135.036 120.316 135.072 120.452 135.115C120.581 135.158 120.628 135.248 120.592 135.384L120.431 135.991C120.398 136.109 120.316 136.145 120.184 136.098C120.105 136.069 119.994 136.05 119.851 136.039C119.711 136.025 119.6 136.018 119.518 136.018C119.256 136.018 119.095 136.109 119.034 136.292C118.973 136.474 118.943 136.759 118.943 137.146V137.36H119.652C119.863 137.36 119.969 137.45 119.969 137.629V138.166C119.969 138.345 119.863 138.435 119.652 138.435H118.943V142.678C118.943 142.893 118.835 143 118.621 143H117.761C117.546 143 117.439 142.893 117.439 142.678V138.435H117.138ZM120.688 140.18C120.688 139.267 120.923 138.551 121.392 138.032C121.865 137.513 122.567 137.253 123.498 137.253C124.429 137.253 125.129 137.513 125.598 138.032C126.07 138.551 126.307 139.267 126.307 140.18C126.307 141.093 126.07 141.809 125.598 142.329C125.129 142.848 124.429 143.107 123.498 143.107C122.567 143.107 121.865 142.848 121.392 142.329C120.923 141.809 120.688 141.093 120.688 140.18ZM122.278 140.18C122.278 140.861 122.382 141.344 122.59 141.63C122.801 141.913 123.104 142.055 123.498 142.055C123.891 142.055 124.192 141.913 124.4 141.63C124.611 141.344 124.717 140.861 124.717 140.18C124.717 139.5 124.611 139.018 124.4 138.735C124.192 138.449 123.891 138.306 123.498 138.306C123.104 138.306 122.801 138.449 122.59 138.735C122.382 139.018 122.278 139.5 122.278 140.18ZM127.789 143C127.574 143 127.467 142.893 127.467 142.678V137.683C127.467 137.468 127.574 137.36 127.789 137.36H128.638C128.853 137.36 128.96 137.468 128.96 137.683V138.123H128.981C129.075 137.894 129.23 137.692 129.449 137.516C129.667 137.341 129.925 137.253 130.222 137.253C130.426 137.253 130.595 137.278 130.727 137.328C130.852 137.375 130.901 137.461 130.872 137.586L130.722 138.225C130.689 138.368 130.593 138.411 130.432 138.354C130.339 138.322 130.249 138.306 130.163 138.306C129.819 138.306 129.535 138.512 129.309 138.923C129.083 139.335 128.971 139.935 128.971 140.723V142.678C128.971 142.893 128.863 143 128.648 143H127.789ZM135.26 138.435C135.049 138.435 134.943 138.345 134.943 138.166V137.629C134.943 137.45 135.049 137.36 135.26 137.36H135.625V137.172C135.625 137.011 135.663 136.864 135.738 136.732L136.152 136.007C136.231 135.871 136.324 135.803 136.431 135.803H136.807C137.022 135.803 137.129 135.91 137.129 136.125V137.36H138C138.211 137.36 138.316 137.45 138.316 137.629V138.166C138.316 138.345 138.211 138.435 138 138.435H137.129V141.099C137.129 141.464 137.154 141.727 137.205 141.888C137.258 142.046 137.394 142.125 137.613 142.125C137.724 142.125 137.849 142.107 137.989 142.071C138.128 142.031 138.238 141.994 138.316 141.958C138.442 141.901 138.524 141.942 138.563 142.082L138.725 142.694C138.757 142.816 138.71 142.905 138.585 142.962C138.467 143.016 138.304 143.064 138.096 143.107C137.892 143.154 137.686 143.177 137.479 143.177C136.966 143.177 136.53 143.072 136.168 142.86C135.806 142.649 135.625 142.214 135.625 141.555V138.435H135.26ZM140.057 143C139.842 143 139.734 142.893 139.734 142.678V135.395C139.734 135.18 139.842 135.072 140.057 135.072H140.916C141.131 135.072 141.238 135.18 141.238 135.395V137.564C141.238 137.708 141.231 137.851 141.217 137.994H141.249C141.414 137.711 141.623 137.518 141.877 137.414C142.132 137.307 142.438 137.253 142.796 137.253C143.354 137.253 143.816 137.428 144.182 137.779C144.547 138.13 144.729 138.771 144.729 139.702V142.678C144.729 142.893 144.622 143 144.407 143H143.548C143.333 143 143.226 142.893 143.226 142.678V140.089C143.226 139.308 143.172 138.816 143.064 138.612C142.957 138.408 142.726 138.306 142.372 138.306C141.996 138.306 141.713 138.452 141.523 138.746C141.333 139.036 141.238 139.641 141.238 140.562V142.678C141.238 142.893 141.131 143 140.916 143H140.057ZM145.879 140.18C145.879 139.274 146.104 138.56 146.556 138.037C147.01 137.514 147.651 137.253 148.479 137.253C149.438 137.253 150.151 137.5 150.616 137.994C151.082 138.488 151.314 139.283 151.314 140.379C151.314 140.594 151.214 140.701 151.014 140.701H147.469C147.526 141.296 147.673 141.67 147.909 141.824C148.146 141.978 148.419 142.055 148.731 142.055C149.028 142.055 149.256 142.015 149.413 141.937C149.571 141.858 149.703 141.75 149.811 141.614C149.932 141.457 150.083 141.432 150.262 141.539L150.799 141.867C151.01 141.996 151.041 142.15 150.89 142.329C150.672 142.59 150.416 142.785 150.122 142.914C149.828 143.043 149.365 143.107 148.731 143.107C147.703 143.107 146.971 142.846 146.534 142.323C146.097 141.8 145.879 141.086 145.879 140.18ZM147.474 139.627H149.811C149.811 139.24 149.714 138.925 149.521 138.682C149.327 138.435 149.019 138.311 148.597 138.311C148.26 138.311 147.993 138.429 147.796 138.666C147.599 138.898 147.492 139.219 147.474 139.627ZM155.944 140.18C155.944 139.267 156.174 138.551 156.632 138.032C157.09 137.513 157.794 137.253 158.743 137.253C159.298 137.253 159.729 137.326 160.037 137.473C160.345 137.62 160.592 137.835 160.778 138.118C160.889 138.286 160.871 138.418 160.725 138.515L160.155 138.891C159.994 138.999 159.853 138.957 159.731 138.768C159.67 138.674 159.554 138.574 159.382 138.467C159.21 138.359 158.997 138.306 158.743 138.306C158.338 138.306 158.035 138.449 157.835 138.735C157.634 139.018 157.534 139.5 157.534 140.18C157.534 140.861 157.634 141.344 157.835 141.63C158.035 141.913 158.338 142.055 158.743 142.055C159.033 142.055 159.267 141.994 159.446 141.872C159.625 141.75 159.794 141.593 159.951 141.399C160.087 141.235 160.23 141.211 160.381 141.33L160.88 141.722C161.031 141.84 161.04 141.997 160.907 142.194C160.768 142.402 160.529 142.606 160.193 142.807C159.86 143.007 159.376 143.107 158.743 143.107C157.794 143.107 157.09 142.848 156.632 142.329C156.174 141.809 155.944 141.093 155.944 140.18ZM162.4 143C162.186 143 162.078 142.893 162.078 142.678V136.334C162.078 136.173 162.116 136.027 162.191 135.894L162.604 135.169C162.683 135.033 162.776 134.965 162.884 134.965H163.26C163.475 134.965 163.582 135.072 163.582 135.287V142.678C163.582 142.893 163.475 143 163.26 143H162.4ZM164.742 141.496C164.742 140.78 165.084 140.261 165.768 139.938C166.452 139.616 167.233 139.444 168.11 139.423V139.208C168.11 138.879 168.028 138.646 167.863 138.51C167.698 138.374 167.469 138.306 167.175 138.306C166.968 138.306 166.783 138.336 166.622 138.397C166.465 138.454 166.327 138.522 166.208 138.601C166.094 138.676 165.99 138.753 165.897 138.832C165.732 138.975 165.596 138.982 165.489 138.854L165.043 138.306C164.932 138.17 164.959 138.03 165.124 137.887C165.249 137.776 165.394 137.679 165.559 137.597C165.727 137.514 165.949 137.437 166.225 137.366C166.5 137.291 166.858 137.253 167.299 137.253C168.044 137.253 168.615 137.425 169.012 137.769C169.413 138.112 169.614 138.619 169.614 139.289V142.678C169.614 142.893 169.506 143 169.292 143H168.411C168.217 143 168.121 142.893 168.121 142.678V142.517H168.11C167.899 142.721 167.644 142.871 167.347 142.968C167.054 143.061 166.783 143.107 166.536 143.107C165.949 143.107 165.503 142.964 165.199 142.678C164.894 142.388 164.742 141.994 164.742 141.496ZM166.332 141.464C166.332 141.589 166.357 141.698 166.407 141.792C166.457 141.881 166.536 141.947 166.644 141.99C166.751 142.033 166.871 142.055 167.003 142.055C167.186 142.055 167.363 142.03 167.535 141.979C167.707 141.929 167.899 141.811 168.11 141.625V140.459C167.508 140.528 167.105 140.615 166.901 140.723C166.697 140.83 166.55 140.941 166.461 141.056C166.375 141.17 166.332 141.306 166.332 141.464ZM170.967 142.624C170.792 142.499 170.743 142.364 170.822 142.221L171.096 141.722C171.193 141.543 171.343 141.521 171.547 141.657C171.751 141.793 171.991 141.894 172.267 141.958C172.546 142.022 172.801 142.055 173.03 142.055C173.191 142.055 173.341 142.039 173.481 142.006C173.621 141.974 173.739 141.911 173.835 141.818C173.932 141.725 173.98 141.589 173.98 141.41C173.98 141.303 173.952 141.211 173.895 141.136C173.837 141.061 173.764 141.004 173.674 140.964C173.585 140.925 173.49 140.893 173.39 140.868C173.257 140.835 173.066 140.782 172.815 140.707C172.568 140.631 172.33 140.544 172.101 140.443C171.911 140.361 171.725 140.246 171.542 140.1C171.363 139.949 171.23 139.783 171.145 139.6C171.062 139.417 171.021 139.192 171.021 138.923C171.021 138.562 171.125 138.245 171.333 137.973C171.544 137.701 171.816 137.513 172.149 137.409C172.482 137.305 172.897 137.253 173.395 137.253C173.732 137.253 174.059 137.301 174.378 137.398C174.697 137.495 174.924 137.586 175.06 137.672C175.275 137.808 175.329 137.953 175.221 138.107L174.894 138.585C174.793 138.728 174.632 138.739 174.41 138.617C174.242 138.524 174.075 138.449 173.911 138.392C173.75 138.334 173.569 138.306 173.368 138.306C173.232 138.306 173.101 138.32 172.976 138.349C172.851 138.377 172.743 138.431 172.654 138.51C172.568 138.589 172.525 138.692 172.525 138.821C172.525 138.957 172.564 139.065 172.643 139.144C172.725 139.219 172.819 139.274 172.922 139.31C173.03 139.346 173.132 139.38 173.229 139.412C173.429 139.477 173.631 139.539 173.835 139.6C174.04 139.657 174.247 139.727 174.458 139.81C174.641 139.881 174.818 139.983 174.99 140.116C175.162 140.248 175.287 140.417 175.366 140.621C175.445 140.825 175.484 141.057 175.484 141.319C175.484 141.666 175.381 141.988 175.173 142.286C174.965 142.583 174.691 142.794 174.351 142.919C174.011 143.045 173.615 143.107 173.164 143.107C172.659 143.107 172.229 143.072 171.875 143C171.521 142.928 171.218 142.803 170.967 142.624ZM176.371 142.624C176.195 142.499 176.147 142.364 176.226 142.221L176.5 141.722C176.596 141.543 176.747 141.521 176.951 141.657C177.155 141.793 177.395 141.894 177.67 141.958C177.95 142.022 178.204 142.055 178.433 142.055C178.594 142.055 178.745 142.039 178.884 142.006C179.024 141.974 179.142 141.911 179.239 141.818C179.335 141.725 179.384 141.589 179.384 141.41C179.384 141.303 179.355 141.211 179.298 141.136C179.241 141.061 179.167 141.004 179.078 140.964C178.988 140.925 178.893 140.893 178.793 140.868C178.66 140.835 178.469 140.782 178.218 140.707C177.971 140.631 177.733 140.544 177.504 140.443C177.314 140.361 177.128 140.246 176.945 140.1C176.766 139.949 176.634 139.783 176.548 139.6C176.465 139.417 176.424 139.192 176.424 138.923C176.424 138.562 176.528 138.245 176.736 137.973C176.947 137.701 177.219 137.513 177.552 137.409C177.885 137.305 178.301 137.253 178.798 137.253C179.135 137.253 179.463 137.301 179.781 137.398C180.1 137.495 180.327 137.586 180.463 137.672C180.678 137.808 180.732 137.953 180.625 138.107L180.297 138.585C180.197 138.728 180.035 138.739 179.813 138.617C179.645 138.524 179.479 138.449 179.314 138.392C179.153 138.334 178.972 138.306 178.771 138.306C178.635 138.306 178.505 138.32 178.379 138.349C178.254 138.377 178.147 138.431 178.057 138.51C177.971 138.589 177.928 138.692 177.928 138.821C177.928 138.957 177.968 139.065 178.046 139.144C178.129 139.219 178.222 139.274 178.326 139.31C178.433 139.346 178.535 139.38 178.632 139.412C178.832 139.477 179.035 139.539 179.239 139.6C179.443 139.657 179.651 139.727 179.862 139.81C180.044 139.881 180.222 139.983 180.394 140.116C180.565 140.248 180.691 140.417 180.77 140.621C180.848 140.825 180.888 141.057 180.888 141.319C180.888 141.666 180.784 141.988 180.576 142.286C180.368 142.583 180.095 142.794 179.754 142.919C179.414 143.045 179.019 143.107 178.567 143.107C178.062 143.107 177.633 143.072 177.278 143C176.924 142.928 176.621 142.803 176.371 142.624Z" fill="white"/>
<defs>
<filter id="filter0_d_403_2" x="0" y="24" width="236" height="171" filterUnits="userSpaceOnUse" color-interpolation-filters="sRGB">
<feFlood flood-opacity="0" result="BackgroundImageFix"/>
<feColorMatrix in="SourceAlpha" type="matrix" values="0 0 0 0 0 0 0 0 0 0 0 0 0 0 0 0 0 0 127 0" result="hardAlpha"/>
<feMorphology radius="1" operator="dilate" in="SourceAlpha" result="effect1_dropShadow_403_2"/>
<feOffset dy="4"/>
<feGaussianBlur stdDeviation="2"/>
<feComposite in2="hardAlpha" operator="out"/>
<feColorMatrix type="matrix" values="0 0 0 0 0 0 0 0 0 0 0 0 0 0 0 0 0 0 0.25 0"/>
<feBlend mode="normal" in2="BackgroundImageFix" result="effect1_dropShadow_403_2"/>
<feBlend mode="normal" in="SourceGraphic" in2="effect1_dropShadow_403_2" result="shape"/>
</filter>
<filter id="filter1_d_403_2" x="23" y="0" width="57" height="57" filterUnits="userSpaceOnUse" color-interpolation-filters="sRGB">
<feFlood flood-opacity="0" result="BackgroundImageFix"/>
<feColorMatrix in="SourceAlpha" type="matrix" values="0 0 0 0 0 0 0 0 0 0 0 0 0 0 0 0 0 0 127 0" result="hardAlpha"/>
<feMorphology radius="1" operator="dilate" in="SourceAlpha" result="effect1_dropShadow_403_2"/>
<feOffset dy="4"/>
<feGaussianBlur stdDeviation="2"/>
<feComposite in2="hardAlpha" operator="out"/>
<feColorMatrix type="matrix" values="0 0 0 0 0.117647 0 0 0 0 0.117647 0 0 0 0 0.117647 0 0 0 1 0"/>
<feBlend mode="normal" in2="BackgroundImageFix" result="effect1_dropShadow_403_2"/>
<feBlend mode="normal" in="SourceGraphic" in2="effect1_dropShadow_403_2" result="shape"/>
</filter>
</defs>
</svg>
