<svg width="245" height="227" viewBox="0 0 245 227" fill="none" xmlns="http://www.w3.org/2000/svg">
<g filter="url(#filter0_d_183_414)">
<rect x="4" y="21" width="237" height="198" rx="22" fill="#35A7FF"/>
<rect x="4.5" y="21.5" width="236" height="197" rx="21.5" stroke="white"/>
</g>
<g filter="url(#filter1_d_183_414)">
<rect x="36" y="3" width="174" height="40" rx="11" fill="#35A7FF"/>
<rect x="36.5" y="3.5" width="173" height="39" rx="10.5" stroke="white"/>
</g>
<path d="M73.3807 29H70.0852L75.1065 14.4545H79.0696L84.0838 29H80.7884L77.1449 17.7784H77.0312L73.3807 29ZM73.1747 23.2827H80.9588V25.6832H73.1747V23.2827ZM85.7777 33.0909V18.0909H88.7607V19.9233H88.8956C89.0282 19.6297 89.2199 19.3314 89.4709 19.0284C89.7266 18.7206 90.058 18.465 90.4652 18.2614C90.8771 18.053 91.3885 17.9489 91.9993 17.9489C92.7947 17.9489 93.5286 18.1572 94.201 18.5739C94.8733 18.9858 95.4107 19.6084 95.8132 20.4418C96.2157 21.2704 96.4169 22.3097 96.4169 23.5597C96.4169 24.7765 96.2204 25.804 95.8274 26.642C95.4392 27.4754 94.9089 28.1075 94.2365 28.5384C93.5689 28.9645 92.8208 29.1776 91.9922 29.1776C91.4051 29.1776 90.9055 29.0805 90.4936 28.8864C90.0864 28.6922 89.7526 28.4484 89.4922 28.1548C89.2318 27.8565 89.0329 27.5559 88.8956 27.2528H88.8033V33.0909H85.7777ZM88.7393 23.5455C88.7393 24.1941 88.8293 24.7599 89.0092 25.2429C89.1892 25.7259 89.4496 26.1023 89.7905 26.3722C90.1314 26.6373 90.5457 26.7699 91.0334 26.7699C91.5258 26.7699 91.9425 26.6349 92.2834 26.3651C92.6243 26.0904 92.8823 25.7116 93.0575 25.2287C93.2375 24.741 93.3274 24.1799 93.3274 23.5455C93.3274 22.9157 93.2398 22.3617 93.0646 21.8835C92.8894 21.4053 92.6314 21.0312 92.2905 20.7614C91.9496 20.4915 91.5305 20.3565 91.0334 20.3565C90.541 20.3565 90.1243 20.4867 89.7834 20.7472C89.4472 21.0076 89.1892 21.3769 89.0092 21.8551C88.8293 22.3333 88.7393 22.8968 88.7393 23.5455ZM98.4339 33.0909V18.0909H101.417V19.9233H101.552C101.684 19.6297 101.876 19.3314 102.127 19.0284C102.383 18.7206 102.714 18.465 103.121 18.2614C103.533 18.053 104.045 17.9489 104.656 17.9489C105.451 17.9489 106.185 18.1572 106.857 18.5739C107.53 18.9858 108.067 19.6084 108.469 20.4418C108.872 21.2704 109.073 22.3097 109.073 23.5597C109.073 24.7765 108.877 25.804 108.484 26.642C108.095 27.4754 107.565 28.1075 106.893 28.5384C106.225 28.9645 105.477 29.1776 104.648 29.1776C104.061 29.1776 103.562 29.0805 103.15 28.8864C102.743 28.6922 102.409 28.4484 102.148 28.1548C101.888 27.8565 101.689 27.5559 101.552 27.2528H101.46V33.0909H98.4339ZM101.396 23.5455C101.396 24.1941 101.486 24.7599 101.665 25.2429C101.845 25.7259 102.106 26.1023 102.447 26.3722C102.788 26.6373 103.202 26.7699 103.69 26.7699C104.182 26.7699 104.599 26.6349 104.94 26.3651C105.281 26.0904 105.539 25.7116 105.714 25.2287C105.894 24.741 105.984 24.1799 105.984 23.5455C105.984 22.9157 105.896 22.3617 105.721 21.8835C105.546 21.4053 105.288 21.0312 104.947 20.7614C104.606 20.4915 104.187 20.3565 103.69 20.3565C103.197 20.3565 102.781 20.4867 102.44 20.7472C102.103 21.0076 101.845 21.3769 101.665 21.8551C101.486 22.3333 101.396 22.8968 101.396 23.5455ZM114.116 14.4545V29H111.09V14.4545H114.116ZM118.407 33.0909C118.024 33.0909 117.664 33.0601 117.328 32.9986C116.996 32.9418 116.722 32.8684 116.504 32.7784L117.186 30.5199C117.541 30.6288 117.86 30.688 118.145 30.6974C118.433 30.7069 118.682 30.6406 118.89 30.4986C119.103 30.3565 119.276 30.1151 119.409 29.7741L119.586 29.3125L115.673 18.0909H118.855L121.113 26.1023H121.227L123.507 18.0909H126.71L122.47 30.179C122.266 30.7661 121.989 31.2775 121.639 31.7131C121.293 32.1534 120.855 32.492 120.325 32.7287C119.795 32.9702 119.155 33.0909 118.407 33.0909ZM145.11 14.4545V29H142.454L136.126 19.8452H136.019V29H132.944V14.4545H135.643L141.921 23.6023H142.049V14.4545H145.11ZM152.523 29.2131C151.42 29.2131 150.466 28.9787 149.661 28.5099C148.861 28.0365 148.243 27.3783 147.807 26.5355C147.372 25.688 147.154 24.7055 147.154 23.5881C147.154 22.4612 147.372 21.4763 147.807 20.6335C148.243 19.786 148.861 19.1278 149.661 18.6591C150.466 18.1856 151.42 17.9489 152.523 17.9489C153.626 17.9489 154.578 18.1856 155.378 18.6591C156.183 19.1278 156.803 19.786 157.239 20.6335C157.675 21.4763 157.892 22.4612 157.892 23.5881C157.892 24.7055 157.675 25.688 157.239 26.5355C156.803 27.3783 156.183 28.0365 155.378 28.5099C154.578 28.9787 153.626 29.2131 152.523 29.2131ZM152.537 26.8693C153.039 26.8693 153.458 26.7273 153.794 26.4432C154.131 26.1544 154.384 25.7614 154.554 25.2642C154.73 24.767 154.817 24.2012 154.817 23.5668C154.817 22.9323 154.73 22.3665 154.554 21.8693C154.384 21.3722 154.131 20.9792 153.794 20.6903C153.458 20.4015 153.039 20.2571 152.537 20.2571C152.031 20.2571 151.605 20.4015 151.259 20.6903C150.918 20.9792 150.66 21.3722 150.485 21.8693C150.314 22.3665 150.229 22.9323 150.229 23.5668C150.229 24.2012 150.314 24.767 150.485 25.2642C150.66 25.7614 150.918 26.1544 151.259 26.4432C151.605 26.7273 152.031 26.8693 152.537 26.8693ZM161.738 29L158.77 18.0909H161.831L163.521 25.4205H163.62L165.382 18.0909H168.386L170.176 25.3778H170.268L171.93 18.0909H174.984L172.022 29H168.819L166.944 22.1392H166.809L164.934 29H161.738Z" fill="white"/>
<path d="M48.512 86L52.848 74.48H54.32L50.176 86H48.512ZM57.424 86L53.28 74.48H54.832L59.184 86H57.424ZM50.704 81.408H56.88V82.816H50.704V81.408ZM65.2231 86.144C64.4551 86.144 63.8151 85.9627 63.3031 85.6C62.8018 85.2267 62.4711 84.7093 62.3111 84.048L62.5351 84.016V89.28H60.8711V77.84H62.4551V79.712L62.2951 79.664C62.4658 79.0453 62.8285 78.56 63.3831 78.208C63.9378 77.856 64.5885 77.68 65.3351 77.68C66.0711 77.68 66.7058 77.856 67.2391 78.208C67.7831 78.56 68.1991 79.0507 68.4871 79.68C68.7858 80.3093 68.9351 81.0453 68.9351 81.888C68.9351 82.7413 68.7805 83.488 68.4711 84.128C68.1618 84.768 67.7298 85.264 67.1751 85.616C66.6205 85.968 65.9698 86.144 65.2231 86.144ZM64.8711 84.768C65.5965 84.768 66.1725 84.512 66.5991 84C67.0258 83.488 67.2391 82.784 67.2391 81.888C67.2391 81.0027 67.0258 80.3147 66.5991 79.824C66.1725 79.3227 65.5911 79.072 64.8551 79.072C64.1298 79.072 63.5485 79.328 63.1111 79.84C62.6845 80.3413 62.4711 81.04 62.4711 81.936C62.4711 82.8107 62.6845 83.504 63.1111 84.016C63.5485 84.5173 64.1351 84.768 64.8711 84.768ZM75.0356 86.144C74.2676 86.144 73.6276 85.9627 73.1156 85.6C72.6143 85.2267 72.2836 84.7093 72.1236 84.048L72.3476 84.016V89.28H70.6836V77.84H72.2676V79.712L72.1076 79.664C72.2783 79.0453 72.641 78.56 73.1956 78.208C73.7503 77.856 74.401 77.68 75.1476 77.68C75.8836 77.68 76.5183 77.856 77.0516 78.208C77.5956 78.56 78.0116 79.0507 78.2996 79.68C78.5983 80.3093 78.7476 81.0453 78.7476 81.888C78.7476 82.7413 78.593 83.488 78.2836 84.128C77.9743 84.768 77.5423 85.264 76.9876 85.616C76.433 85.968 75.7823 86.144 75.0356 86.144ZM74.6836 84.768C75.409 84.768 75.985 84.512 76.4116 84C76.8383 83.488 77.0516 82.784 77.0516 81.888C77.0516 81.0027 76.8383 80.3147 76.4116 79.824C75.985 79.3227 75.4036 79.072 74.6676 79.072C73.9423 79.072 73.361 79.328 72.9236 79.84C72.497 80.3413 72.2836 81.04 72.2836 81.936C72.2836 82.8107 72.497 83.504 72.9236 84.016C73.361 84.5173 73.9476 84.768 74.6836 84.768ZM80.4961 86V74.48H82.1601V86H80.4961ZM85.1041 89.28L87.0721 84.784L87.4081 84.256L89.8881 77.84H91.6161L86.8161 89.28H85.1041ZM86.9921 86L83.5041 77.84H85.3121L88.2721 85.184L86.9921 86ZM95.3 86V84.388H96.899V86H95.3ZM95.3 81.294V79.682H96.899V81.294H95.3ZM100.734 86L103.715 78.08H104.727L101.878 86H100.734ZM106.861 86L104.012 78.08H105.079L108.071 86H106.861ZM102.241 82.843H106.487V83.811H102.241V82.843ZM109.231 86V80.39H110.32V81.71H110.375V86H109.231ZM113.213 86V82.392C113.213 82.0033 113.114 81.7137 112.916 81.523C112.725 81.3323 112.439 81.237 112.058 81.237C111.728 81.237 111.434 81.3103 111.178 81.457C110.928 81.6037 110.73 81.8053 110.584 82.062C110.444 82.3187 110.375 82.623 110.375 82.975L110.232 81.633C110.415 81.215 110.697 80.885 111.079 80.643C111.46 80.401 111.904 80.28 112.41 80.28C113.011 80.28 113.484 80.4487 113.829 80.786C114.173 81.1233 114.346 81.5707 114.346 82.128V86H113.213ZM116.083 88.255L117.436 85.164L117.667 84.801L119.372 80.39H120.56L117.26 88.255H116.083ZM117.381 86L114.983 80.39H116.226L118.261 85.439L117.381 86ZM124.003 86.11C123.351 86.11 122.87 85.9597 122.562 85.659C122.262 85.351 122.111 84.9 122.111 84.306V79.103L123.244 78.674V84.317C123.244 84.6103 123.321 84.8267 123.475 84.966C123.629 85.1053 123.879 85.175 124.223 85.175C124.355 85.175 124.473 85.164 124.575 85.142C124.678 85.12 124.766 85.0943 124.839 85.065V85.989C124.759 86.0257 124.645 86.055 124.498 86.077C124.352 86.099 124.187 86.11 124.003 86.11ZM120.989 81.303V80.39H124.839V81.303H120.989ZM125.903 86V80.39H127.047V86H125.903ZM125.848 79.29V78.003H127.113V79.29H125.848ZM128.653 86V80.39H129.742V81.71H129.797V86H128.653ZM132.437 86V82.337C132.437 81.9557 132.349 81.677 132.173 81.501C131.997 81.325 131.744 81.237 131.414 81.237C131.106 81.237 130.827 81.3103 130.578 81.457C130.336 81.5963 130.145 81.7943 130.006 82.051C129.866 82.3003 129.797 82.5973 129.797 82.942L129.654 81.633C129.837 81.215 130.112 80.885 130.479 80.643C130.853 80.401 131.271 80.28 131.733 80.28C132.29 80.28 132.734 80.4413 133.064 80.764C133.401 81.0867 133.57 81.512 133.57 82.04V86H132.437ZM136.221 86V82.337C136.221 81.9557 136.129 81.677 135.946 81.501C135.77 81.325 135.517 81.237 135.187 81.237C134.886 81.237 134.611 81.3103 134.362 81.457C134.12 81.5963 133.925 81.7943 133.779 82.051C133.639 82.3003 133.57 82.5973 133.57 82.942L133.339 81.633C133.529 81.215 133.815 80.885 134.197 80.643C134.585 80.401 135.018 80.28 135.495 80.28C136.059 80.28 136.51 80.445 136.848 80.775C137.185 81.0977 137.354 81.5303 137.354 82.073V86H136.221ZM141.31 86.11C140.745 86.11 140.247 85.9853 139.814 85.736C139.389 85.4867 139.055 85.142 138.813 84.702C138.571 84.262 138.45 83.756 138.45 83.184C138.45 82.6047 138.567 82.0987 138.802 81.666C139.044 81.226 139.381 80.885 139.814 80.643C140.247 80.401 140.742 80.28 141.299 80.28C141.842 80.28 142.311 80.3973 142.707 80.632C143.11 80.8593 143.418 81.1783 143.631 81.589C143.851 81.9997 143.961 82.4873 143.961 83.052C143.961 83.14 143.957 83.2243 143.95 83.305C143.95 83.3783 143.943 83.4553 143.928 83.536H139.22V82.678H143.125L142.839 83.019C142.839 82.4177 142.703 81.9593 142.432 81.644C142.161 81.3287 141.783 81.171 141.299 81.171C140.778 81.171 140.364 81.3507 140.056 81.71C139.755 82.062 139.605 82.5533 139.605 83.184C139.605 83.822 139.755 84.3207 140.056 84.68C140.364 85.0393 140.789 85.219 141.332 85.219C141.662 85.219 141.948 85.153 142.19 85.021C142.432 84.8817 142.612 84.68 142.729 84.416H143.807C143.624 84.944 143.312 85.3583 142.872 85.659C142.439 85.9597 141.919 86.11 141.31 86.11ZM147.752 86V79.741C147.752 79.169 147.913 78.7327 148.236 78.432C148.559 78.124 149.043 77.97 149.688 77.97C149.835 77.97 149.956 77.9773 150.051 77.992C150.146 78.0067 150.231 78.0287 150.304 78.058V78.938C150.253 78.9233 150.183 78.9087 150.095 78.894C150.014 78.8793 149.923 78.872 149.82 78.872C149.497 78.872 149.263 78.9527 149.116 79.114C148.969 79.268 148.896 79.488 148.896 79.774V86H147.752ZM146.674 81.303V80.39H150.183V81.303H146.674ZM151.286 86V80.39H152.375V81.787H152.43V86H151.286ZM152.43 83.074L152.287 81.743C152.419 81.2663 152.647 80.9033 152.969 80.654C153.292 80.4047 153.677 80.28 154.124 80.28C154.293 80.28 154.41 80.2947 154.476 80.324V81.402C154.44 81.3873 154.388 81.38 154.322 81.38C154.256 81.3727 154.176 81.369 154.08 81.369C153.53 81.369 153.116 81.512 152.837 81.798C152.566 82.084 152.43 82.5093 152.43 83.074ZM157.907 86.11C157.335 86.11 156.833 85.9853 156.4 85.736C155.967 85.4793 155.63 85.131 155.388 84.691C155.146 84.2437 155.025 83.7377 155.025 83.173C155.025 82.601 155.146 82.0987 155.388 81.666C155.637 81.2333 155.975 80.896 156.4 80.654C156.833 80.4047 157.335 80.28 157.907 80.28C158.486 80.28 158.992 80.4047 159.425 80.654C159.858 80.896 160.191 81.2333 160.426 81.666C160.668 82.0987 160.789 82.601 160.789 83.173C160.789 83.7377 160.668 84.2437 160.426 84.691C160.191 85.131 159.858 85.4793 159.425 85.736C158.992 85.9853 158.486 86.11 157.907 86.11ZM157.907 85.175C158.252 85.175 158.549 85.0907 158.798 84.922C159.055 84.7533 159.256 84.5187 159.403 84.218C159.55 83.9173 159.623 83.5653 159.623 83.162C159.623 82.5607 159.462 82.0877 159.139 81.743C158.824 81.391 158.413 81.215 157.907 81.215C157.408 81.215 156.998 81.391 156.675 81.743C156.36 82.095 156.202 82.568 156.202 83.162C156.202 83.5653 156.272 83.9173 156.411 84.218C156.558 84.5187 156.759 84.7533 157.016 84.922C157.28 85.0907 157.577 85.175 157.907 85.175ZM161.964 86V80.39H163.053V81.71H163.108V86H161.964ZM165.748 86V82.337C165.748 81.9557 165.66 81.677 165.484 81.501C165.308 81.325 165.055 81.237 164.725 81.237C164.417 81.237 164.138 81.3103 163.889 81.457C163.647 81.5963 163.456 81.7943 163.317 82.051C163.178 82.3003 163.108 82.5973 163.108 82.942L162.965 81.633C163.148 81.215 163.423 80.885 163.79 80.643C164.164 80.401 164.582 80.28 165.044 80.28C165.601 80.28 166.045 80.4413 166.375 80.764C166.712 81.0867 166.881 81.512 166.881 82.04V86H165.748ZM169.532 86V82.337C169.532 81.9557 169.44 81.677 169.257 81.501C169.081 81.325 168.828 81.237 168.498 81.237C168.197 81.237 167.922 81.3103 167.673 81.457C167.431 81.5963 167.237 81.7943 167.09 82.051C166.951 82.3003 166.881 82.5973 166.881 82.942L166.65 81.633C166.841 81.215 167.127 80.885 167.508 80.643C167.897 80.401 168.329 80.28 168.806 80.28C169.371 80.28 169.822 80.445 170.159 80.775C170.496 81.0977 170.665 81.5303 170.665 82.073V86H169.532ZM173.92 86L176.901 78.08H177.913L175.064 86H173.92ZM180.047 86L177.198 78.08H178.265L181.257 86H180.047ZM175.427 82.843H179.673V83.811H175.427V82.843ZM182.417 86V80.39H183.506V81.71H183.561V86H182.417ZM186.399 86V82.392C186.399 82.0033 186.3 81.7137 186.102 81.523C185.912 81.3323 185.626 81.237 185.244 81.237C184.914 81.237 184.621 81.3103 184.364 81.457C184.115 81.6037 183.917 81.8053 183.77 82.062C183.631 82.3187 183.561 82.623 183.561 82.975L183.418 81.633C183.602 81.215 183.884 80.885 184.265 80.643C184.647 80.401 185.09 80.28 185.596 80.28C186.198 80.28 186.671 80.4487 187.015 80.786C187.36 81.1233 187.532 81.5707 187.532 82.128V86H186.399ZM189.27 88.255L190.623 85.164L190.854 84.801L192.559 80.39H193.747L190.447 88.255H189.27ZM190.568 86L188.17 80.39H189.413L191.448 85.439L190.568 86ZM195.894 86L194.178 80.39H195.355L196.521 84.9H196.356L197.775 80.39H198.765L200.184 84.9H200.03L201.185 80.39H202.307L200.591 86H199.59L198.171 81.567H198.336L196.895 86H195.894ZM203.354 86V78.08H204.498V86H203.354ZM207.336 86V82.392C207.336 82.0033 207.237 81.7137 207.039 81.523C206.848 81.3323 206.562 81.237 206.181 81.237C205.851 81.237 205.557 81.3103 205.301 81.457C205.051 81.6037 204.853 81.8053 204.707 82.062C204.567 82.3187 204.498 82.623 204.498 82.975L204.355 81.633C204.538 81.215 204.82 80.885 205.202 80.643C205.583 80.401 206.027 80.28 206.533 80.28C207.134 80.28 207.607 80.4487 207.952 80.786C208.296 81.1233 208.469 81.5707 208.469 82.128V86H207.336ZM212.445 86.11C211.88 86.11 211.381 85.9853 210.949 85.736C210.523 85.4867 210.19 85.142 209.948 84.702C209.706 84.262 209.585 83.756 209.585 83.184C209.585 82.6047 209.702 82.0987 209.937 81.666C210.179 81.226 210.516 80.885 210.949 80.643C211.381 80.401 211.876 80.28 212.434 80.28C212.976 80.28 213.446 80.3973 213.842 80.632C214.245 80.8593 214.553 81.1783 214.766 81.589C214.986 81.9997 215.096 82.4873 215.096 83.052C215.096 83.14 215.092 83.2243 215.085 83.305C215.085 83.3783 215.077 83.4553 215.063 83.536H210.355V82.678H214.26L213.974 83.019C213.974 82.4177 213.838 81.9593 213.567 81.644C213.295 81.3287 212.918 81.171 212.434 81.171C211.913 81.171 211.499 81.3507 211.191 81.71C210.89 82.062 210.74 82.5533 210.74 83.184C210.74 83.822 210.89 84.3207 211.191 84.68C211.499 85.0393 211.924 85.219 212.467 85.219C212.797 85.219 213.083 85.153 213.325 85.021C213.567 84.8817 213.746 84.68 213.864 84.416H214.942C214.758 84.944 214.447 85.3583 214.007 85.659C213.574 85.9597 213.053 86.11 212.445 86.11ZM216.266 86V80.39H217.355V81.787H217.41V86H216.266ZM217.41 83.074L217.267 81.743C217.399 81.2663 217.626 80.9033 217.949 80.654C218.272 80.4047 218.657 80.28 219.104 80.28C219.273 80.28 219.39 80.2947 219.456 80.324V81.402C219.419 81.3873 219.368 81.38 219.302 81.38C219.236 81.3727 219.155 81.369 219.06 81.369C218.51 81.369 218.096 81.512 217.817 81.798C217.546 82.084 217.41 82.5093 217.41 83.074ZM222.736 86.11C222.171 86.11 221.672 85.9853 221.24 85.736C220.814 85.4867 220.481 85.142 220.239 84.702C219.997 84.262 219.876 83.756 219.876 83.184C219.876 82.6047 219.993 82.0987 220.228 81.666C220.47 81.226 220.807 80.885 221.24 80.643C221.672 80.401 222.167 80.28 222.725 80.28C223.267 80.28 223.737 80.3973 224.133 80.632C224.536 80.8593 224.844 81.1783 225.057 81.589C225.277 81.9997 225.387 82.4873 225.387 83.052C225.387 83.14 225.383 83.2243 225.376 83.305C225.376 83.3783 225.368 83.4553 225.354 83.536H220.646V82.678H224.551L224.265 83.019C224.265 82.4177 224.129 81.9593 223.858 81.644C223.586 81.3287 223.209 81.171 222.725 81.171C222.204 81.171 221.79 81.3507 221.482 81.71C221.181 82.062 221.031 82.5533 221.031 83.184C221.031 83.822 221.181 84.3207 221.482 84.68C221.79 85.0393 222.215 85.219 222.758 85.219C223.088 85.219 223.374 85.153 223.616 85.021C223.858 84.8817 224.037 84.68 224.155 84.416H225.233C225.049 84.944 224.738 85.3583 224.298 85.659C223.865 85.9597 223.344 86.11 222.736 86.11ZM53.648 132.16C52.176 132.16 51.0453 131.728 50.256 130.864C49.4667 130 49.072 128.768 49.072 127.168V120.48H50.768V127.36C50.768 128.459 51.0187 129.296 51.52 129.872C52.0213 130.437 52.7307 130.72 53.648 130.72C54.5867 130.72 55.3067 130.437 55.808 129.872C56.3093 129.307 56.56 128.469 56.56 127.36V120.48H58.256V127.2C58.256 128.779 57.856 130 57.056 130.864C56.2667 131.728 55.1307 132.16 53.648 132.16ZM64.8481 132.144C64.0801 132.144 63.4401 131.963 62.9281 131.6C62.4268 131.227 62.0961 130.709 61.9361 130.048L62.1601 130.016V135.28H60.4961V123.84H62.0801V125.712L61.9201 125.664C62.0908 125.045 62.4535 124.56 63.0081 124.208C63.5628 123.856 64.2135 123.68 64.9601 123.68C65.6961 123.68 66.3308 123.856 66.8641 124.208C67.4081 124.56 67.8241 125.051 68.1121 125.68C68.4108 126.309 68.5601 127.045 68.5601 127.888C68.5601 128.741 68.4055 129.488 68.0961 130.128C67.7868 130.768 67.3548 131.264 66.8001 131.616C66.2455 131.968 65.5948 132.144 64.8481 132.144ZM64.4961 130.768C65.2215 130.768 65.7975 130.512 66.2241 130C66.6508 129.488 66.8641 128.784 66.8641 127.888C66.8641 127.003 66.6508 126.315 66.2241 125.824C65.7975 125.323 65.2161 125.072 64.4801 125.072C63.7548 125.072 63.1735 125.328 62.7361 125.84C62.3095 126.341 62.0961 127.04 62.0961 127.936C62.0961 128.811 62.3095 129.504 62.7361 130.016C63.1735 130.517 63.7601 130.768 64.4961 130.768ZM70.3086 132V120.48H71.9726V132H70.3086ZM77.8606 132.16C77.0286 132.16 76.298 131.979 75.6686 131.616C75.0393 131.243 74.5486 130.736 74.1966 130.096C73.8446 129.445 73.6686 128.709 73.6686 127.888C73.6686 127.056 73.8446 126.325 74.1966 125.696C74.5593 125.067 75.05 124.576 75.6686 124.224C76.298 123.861 77.0286 123.68 77.8606 123.68C78.7033 123.68 79.4393 123.861 80.0686 124.224C80.698 124.576 81.1833 125.067 81.5246 125.696C81.8766 126.325 82.0526 127.056 82.0526 127.888C82.0526 128.709 81.8766 129.445 81.5246 130.096C81.1833 130.736 80.698 131.243 80.0686 131.616C79.4393 131.979 78.7033 132.16 77.8606 132.16ZM77.8606 130.8C78.362 130.8 78.794 130.677 79.1566 130.432C79.53 130.187 79.8233 129.845 80.0366 129.408C80.25 128.971 80.3566 128.459 80.3566 127.872C80.3566 126.997 80.122 126.309 79.6526 125.808C79.194 125.296 78.5966 125.04 77.8606 125.04C77.1353 125.04 76.538 125.296 76.0686 125.808C75.61 126.32 75.3806 127.008 75.3806 127.872C75.3806 128.459 75.482 128.971 75.6846 129.408C75.898 129.845 76.1913 130.187 76.5646 130.432C76.9486 130.677 77.3806 130.8 77.8606 130.8ZM88.8021 132C88.7488 131.797 88.7115 131.573 88.6901 131.328C88.6795 131.083 88.6741 130.784 88.6741 130.432H88.5941V126.544C88.5941 126.021 88.4608 125.632 88.1941 125.376C87.9381 125.109 87.5275 124.976 86.9621 124.976C86.4181 124.976 85.9808 125.083 85.6501 125.296C85.3301 125.509 85.1435 125.813 85.0901 126.208H83.5061C83.5808 125.44 83.9275 124.827 84.5461 124.368C85.1648 123.909 85.9915 123.68 87.0261 123.68C88.0928 123.68 88.8928 123.931 89.4261 124.432C89.9595 124.923 90.2261 125.648 90.2261 126.608V130.432C90.2261 130.677 90.2421 130.928 90.2741 131.184C90.3061 131.44 90.3541 131.712 90.4181 132H88.8021ZM85.9861 132.16C85.1541 132.16 84.4928 131.957 84.0021 131.552C83.5115 131.136 83.2661 130.576 83.2661 129.872C83.2661 129.147 83.5221 128.576 84.0341 128.16C84.5568 127.733 85.3035 127.445 86.2741 127.296L88.9621 126.864V128.032L86.5301 128.416C85.9861 128.501 85.5755 128.645 85.2981 128.848C85.0315 129.051 84.8981 129.344 84.8981 129.728C84.8981 130.101 85.0208 130.384 85.2661 130.576C85.5221 130.757 85.8901 130.848 86.3701 130.848C87.0101 130.848 87.5381 130.693 87.9541 130.384C88.3808 130.075 88.5941 129.685 88.5941 129.216L88.8021 130.4C88.6101 130.965 88.2688 131.403 87.7781 131.712C87.2875 132.011 86.6901 132.16 85.9861 132.16ZM98.306 132V130.128L98.466 130.176C98.2953 130.784 97.9433 131.269 97.41 131.632C96.8767 131.984 96.2367 132.16 95.49 132.16C94.754 132.16 94.1087 131.984 93.554 131.632C93.01 131.28 92.5833 130.789 92.274 130.16C91.9753 129.531 91.826 128.795 91.826 127.952C91.826 127.099 91.9807 126.352 92.29 125.712C92.5993 125.072 93.0313 124.576 93.586 124.224C94.1407 123.872 94.7913 123.696 95.538 123.696C96.3167 123.696 96.9567 123.883 97.458 124.256C97.97 124.619 98.306 125.131 98.466 125.792L98.242 125.824V120.48H99.89V132H98.306ZM95.906 130.768C96.642 130.768 97.2233 130.517 97.65 130.016C98.0767 129.504 98.29 128.8 98.29 127.904C98.29 127.029 98.0713 126.341 97.634 125.84C97.2073 125.328 96.626 125.072 95.89 125.072C95.1647 125.072 94.5887 125.328 94.162 125.84C93.746 126.341 93.538 127.045 93.538 127.952C93.538 128.837 93.746 129.531 94.162 130.032C94.5887 130.523 95.17 130.768 95.906 130.768ZM104.55 132V130.388H106.149V132H104.55ZM104.55 127.294V125.682H106.149V127.294H104.55ZM113.515 132.11C112.503 132.11 111.726 131.813 111.183 131.219C110.64 130.625 110.369 129.778 110.369 128.678V124.08H111.535V128.81C111.535 129.565 111.707 130.141 112.052 130.537C112.397 130.926 112.884 131.12 113.515 131.12C114.16 131.12 114.655 130.926 115 130.537C115.345 130.148 115.517 129.573 115.517 128.81V124.08H116.683V128.7C116.683 129.785 116.408 130.625 115.858 131.219C115.315 131.813 114.534 132.11 113.515 132.11ZM121.215 132.099C120.687 132.099 120.247 131.974 119.895 131.725C119.55 131.468 119.323 131.113 119.213 130.658L119.367 130.636V134.255H118.223V126.39H119.312V127.677L119.202 127.644C119.319 127.219 119.569 126.885 119.95 126.643C120.331 126.401 120.779 126.28 121.292 126.28C121.798 126.28 122.234 126.401 122.601 126.643C122.975 126.885 123.261 127.222 123.459 127.655C123.664 128.088 123.767 128.594 123.767 129.173C123.767 129.76 123.661 130.273 123.448 130.713C123.235 131.153 122.938 131.494 122.557 131.736C122.176 131.978 121.728 132.099 121.215 132.099ZM120.973 131.153C121.472 131.153 121.868 130.977 122.161 130.625C122.454 130.273 122.601 129.789 122.601 129.173C122.601 128.564 122.454 128.091 122.161 127.754C121.868 127.409 121.468 127.237 120.962 127.237C120.463 127.237 120.064 127.413 119.763 127.765C119.47 128.11 119.323 128.59 119.323 129.206C119.323 129.807 119.47 130.284 119.763 130.636C120.064 130.981 120.467 131.153 120.973 131.153ZM124.969 132V124.08H126.113V132H124.969ZM130.161 132.11C129.589 132.11 129.087 131.985 128.654 131.736C128.221 131.479 127.884 131.131 127.642 130.691C127.4 130.244 127.279 129.738 127.279 129.173C127.279 128.601 127.4 128.099 127.642 127.666C127.891 127.233 128.229 126.896 128.654 126.654C129.087 126.405 129.589 126.28 130.161 126.28C130.74 126.28 131.246 126.405 131.679 126.654C132.112 126.896 132.445 127.233 132.68 127.666C132.922 128.099 133.043 128.601 133.043 129.173C133.043 129.738 132.922 130.244 132.68 130.691C132.445 131.131 132.112 131.479 131.679 131.736C131.246 131.985 130.74 132.11 130.161 132.11ZM130.161 131.175C130.506 131.175 130.803 131.091 131.052 130.922C131.309 130.753 131.51 130.519 131.657 130.218C131.804 129.917 131.877 129.565 131.877 129.162C131.877 128.561 131.716 128.088 131.393 127.743C131.078 127.391 130.667 127.215 130.161 127.215C129.662 127.215 129.252 127.391 128.929 127.743C128.614 128.095 128.456 128.568 128.456 129.162C128.456 129.565 128.526 129.917 128.665 130.218C128.812 130.519 129.013 130.753 129.27 130.922C129.534 131.091 129.831 131.175 130.161 131.175ZM137.683 132C137.647 131.861 137.621 131.707 137.606 131.538C137.599 131.369 137.595 131.164 137.595 130.922H137.54V128.249C137.54 127.89 137.449 127.622 137.265 127.446C137.089 127.263 136.807 127.171 136.418 127.171C136.044 127.171 135.744 127.244 135.516 127.391C135.296 127.538 135.168 127.747 135.131 128.018H134.042C134.094 127.49 134.332 127.068 134.757 126.753C135.183 126.438 135.751 126.28 136.462 126.28C137.196 126.28 137.746 126.452 138.112 126.797C138.479 127.134 138.662 127.633 138.662 128.293V130.922C138.662 131.091 138.673 131.263 138.695 131.439C138.717 131.615 138.75 131.802 138.794 132H137.683ZM135.747 132.11C135.175 132.11 134.721 131.971 134.383 131.692C134.046 131.406 133.877 131.021 133.877 130.537C133.877 130.038 134.053 129.646 134.405 129.36C134.765 129.067 135.278 128.869 135.945 128.766L137.793 128.469V129.272L136.121 129.536C135.747 129.595 135.465 129.694 135.274 129.833C135.091 129.972 134.999 130.174 134.999 130.438C134.999 130.695 135.084 130.889 135.252 131.021C135.428 131.146 135.681 131.208 136.011 131.208C136.451 131.208 136.814 131.102 137.1 130.889C137.394 130.676 137.54 130.409 137.54 130.086L137.683 130.9C137.551 131.289 137.317 131.589 136.979 131.802C136.642 132.007 136.231 132.11 135.747 132.11ZM144.217 132V130.713L144.327 130.746C144.21 131.164 143.968 131.498 143.601 131.747C143.235 131.989 142.795 132.11 142.281 132.11C141.775 132.11 141.332 131.989 140.95 131.747C140.576 131.505 140.283 131.168 140.07 130.735C139.865 130.302 139.762 129.796 139.762 129.217C139.762 128.63 139.869 128.117 140.081 127.677C140.294 127.237 140.591 126.896 140.972 126.654C141.354 126.412 141.801 126.291 142.314 126.291C142.85 126.291 143.29 126.419 143.634 126.676C143.986 126.925 144.217 127.277 144.327 127.732L144.173 127.754V124.08H145.306V132H144.217ZM142.567 131.153C143.073 131.153 143.473 130.981 143.766 130.636C144.06 130.284 144.206 129.8 144.206 129.184C144.206 128.583 144.056 128.11 143.755 127.765C143.462 127.413 143.062 127.237 142.556 127.237C142.058 127.237 141.662 127.413 141.368 127.765C141.082 128.11 140.939 128.594 140.939 129.217C140.939 129.826 141.082 130.302 141.368 130.647C141.662 130.984 142.061 131.153 142.567 131.153ZM151.472 132.11C150.82 132.11 150.339 131.96 150.031 131.659C149.731 131.351 149.58 130.9 149.58 130.306V125.103L150.713 124.674V130.317C150.713 130.61 150.79 130.827 150.944 130.966C151.098 131.105 151.348 131.175 151.692 131.175C151.824 131.175 151.942 131.164 152.044 131.142C152.147 131.12 152.235 131.094 152.308 131.065V131.989C152.228 132.026 152.114 132.055 151.967 132.077C151.821 132.099 151.656 132.11 151.472 132.11ZM148.458 127.303V126.39H152.308V127.303H148.458ZM153.393 132V124.08H154.537V132H153.393ZM157.375 132V128.392C157.375 128.003 157.276 127.714 157.078 127.523C156.887 127.332 156.601 127.237 156.22 127.237C155.89 127.237 155.597 127.31 155.34 127.457C155.091 127.604 154.893 127.805 154.746 128.062C154.607 128.319 154.537 128.623 154.537 128.975L154.394 127.633C154.577 127.215 154.86 126.885 155.241 126.643C155.622 126.401 156.066 126.28 156.572 126.28C157.173 126.28 157.646 126.449 157.991 126.786C158.336 127.123 158.508 127.571 158.508 128.128V132H157.375ZM162.484 132.11C161.919 132.11 161.42 131.985 160.988 131.736C160.562 131.487 160.229 131.142 159.987 130.702C159.745 130.262 159.624 129.756 159.624 129.184C159.624 128.605 159.741 128.099 159.976 127.666C160.218 127.226 160.555 126.885 160.988 126.643C161.42 126.401 161.915 126.28 162.473 126.28C163.015 126.28 163.485 126.397 163.881 126.632C164.284 126.859 164.592 127.178 164.805 127.589C165.025 128 165.135 128.487 165.135 129.052C165.135 129.14 165.131 129.224 165.124 129.305C165.124 129.378 165.116 129.455 165.102 129.536H160.394V128.678H164.299L164.013 129.019C164.013 128.418 163.877 127.959 163.606 127.644C163.334 127.329 162.957 127.171 162.473 127.171C161.952 127.171 161.538 127.351 161.23 127.71C160.929 128.062 160.779 128.553 160.779 129.184C160.779 129.822 160.929 130.321 161.23 130.68C161.538 131.039 161.963 131.219 162.506 131.219C162.836 131.219 163.122 131.153 163.364 131.021C163.606 130.882 163.785 130.68 163.903 130.416H164.981C164.797 130.944 164.486 131.358 164.046 131.659C163.613 131.96 163.092 132.11 162.484 132.11ZM172.523 132V130.713L172.633 130.746C172.516 131.164 172.274 131.498 171.907 131.747C171.54 131.989 171.1 132.11 170.587 132.11C170.081 132.11 169.637 131.989 169.256 131.747C168.882 131.505 168.589 131.168 168.376 130.735C168.171 130.302 168.068 129.796 168.068 129.217C168.068 128.63 168.174 128.117 168.387 127.677C168.6 127.237 168.897 126.896 169.278 126.654C169.659 126.412 170.107 126.291 170.62 126.291C171.155 126.291 171.595 126.419 171.94 126.676C172.292 126.925 172.523 127.277 172.633 127.732L172.479 127.754V124.08H173.612V132H172.523ZM170.873 131.153C171.379 131.153 171.779 130.981 172.072 130.636C172.365 130.284 172.512 129.8 172.512 129.184C172.512 128.583 172.362 128.11 172.061 127.765C171.768 127.413 171.368 127.237 170.862 127.237C170.363 127.237 169.967 127.413 169.674 127.765C169.388 128.11 169.245 128.594 169.245 129.217C169.245 129.826 169.388 130.302 169.674 130.647C169.967 130.984 170.367 131.153 170.873 131.153ZM177.663 132.11C177.091 132.11 176.589 131.985 176.156 131.736C175.723 131.479 175.386 131.131 175.144 130.691C174.902 130.244 174.781 129.738 174.781 129.173C174.781 128.601 174.902 128.099 175.144 127.666C175.393 127.233 175.731 126.896 176.156 126.654C176.589 126.405 177.091 126.28 177.663 126.28C178.242 126.28 178.748 126.405 179.181 126.654C179.614 126.896 179.947 127.233 180.182 127.666C180.424 128.099 180.545 128.601 180.545 129.173C180.545 129.738 180.424 130.244 180.182 130.691C179.947 131.131 179.614 131.479 179.181 131.736C178.748 131.985 178.242 132.11 177.663 132.11ZM177.663 131.175C178.008 131.175 178.305 131.091 178.554 130.922C178.811 130.753 179.012 130.519 179.159 130.218C179.306 129.917 179.379 129.565 179.379 129.162C179.379 128.561 179.218 128.088 178.895 127.743C178.58 127.391 178.169 127.215 177.663 127.215C177.164 127.215 176.754 127.391 176.431 127.743C176.116 128.095 175.958 128.568 175.958 129.162C175.958 129.565 176.028 129.917 176.167 130.218C176.314 130.519 176.515 130.753 176.772 130.922C177.036 131.091 177.333 131.175 177.663 131.175ZM184.052 132.11C183.517 132.11 183.04 131.985 182.622 131.736C182.204 131.479 181.874 131.131 181.632 130.691C181.397 130.251 181.28 129.749 181.28 129.184C181.28 128.619 181.397 128.121 181.632 127.688C181.874 127.248 182.204 126.903 182.622 126.654C183.04 126.405 183.513 126.28 184.041 126.28C184.488 126.28 184.888 126.364 185.24 126.533C185.592 126.702 185.882 126.936 186.109 127.237C186.336 127.538 186.483 127.893 186.549 128.304H185.471C185.398 127.974 185.236 127.71 184.987 127.512C184.745 127.314 184.437 127.215 184.063 127.215C183.74 127.215 183.458 127.296 183.216 127.457C182.974 127.618 182.787 127.846 182.655 128.139C182.523 128.432 182.457 128.781 182.457 129.184C182.457 129.58 182.523 129.928 182.655 130.229C182.787 130.53 182.974 130.764 183.216 130.933C183.458 131.094 183.744 131.175 184.074 131.175C184.433 131.175 184.738 131.08 184.987 130.889C185.244 130.691 185.409 130.427 185.482 130.097H186.56C186.487 130.5 186.333 130.852 186.098 131.153C185.871 131.454 185.581 131.688 185.229 131.857C184.877 132.026 184.485 132.11 184.052 132.11ZM189.411 132.11C189.037 132.11 188.707 132.033 188.421 131.879C188.135 131.718 187.912 131.498 187.75 131.219C187.596 130.94 187.519 130.621 187.519 130.262V126.39H188.663V129.998C188.663 130.387 188.759 130.676 188.949 130.867C189.14 131.058 189.411 131.153 189.763 131.153C190.079 131.153 190.357 131.08 190.599 130.933C190.849 130.786 191.043 130.585 191.182 130.328C191.329 130.064 191.402 129.76 191.402 129.415L191.545 130.757C191.362 131.168 191.08 131.498 190.698 131.747C190.324 131.989 189.895 132.11 189.411 132.11ZM191.446 132V130.68H191.402V126.39H192.535V132H191.446ZM194.138 132V126.39H195.227V127.71H195.282V132H194.138ZM197.922 132V128.337C197.922 127.956 197.834 127.677 197.658 127.501C197.482 127.325 197.229 127.237 196.899 127.237C196.591 127.237 196.312 127.31 196.063 127.457C195.821 127.596 195.63 127.794 195.491 128.051C195.352 128.3 195.282 128.597 195.282 128.942L195.139 127.633C195.322 127.215 195.597 126.885 195.964 126.643C196.338 126.401 196.756 126.28 197.218 126.28C197.775 126.28 198.219 126.441 198.549 126.764C198.886 127.087 199.055 127.512 199.055 128.04V132H197.922ZM201.706 132V128.337C201.706 127.956 201.614 127.677 201.431 127.501C201.255 127.325 201.002 127.237 200.672 127.237C200.371 127.237 200.096 127.31 199.847 127.457C199.605 127.596 199.411 127.794 199.264 128.051C199.125 128.3 199.055 128.597 199.055 128.942L198.824 127.633C199.015 127.215 199.301 126.885 199.682 126.643C200.071 126.401 200.503 126.28 200.98 126.28C201.545 126.28 201.996 126.445 202.333 126.775C202.67 127.098 202.839 127.53 202.839 128.073V132H201.706ZM206.795 132.11C206.231 132.11 205.732 131.985 205.299 131.736C204.874 131.487 204.54 131.142 204.298 130.702C204.056 130.262 203.935 129.756 203.935 129.184C203.935 128.605 204.053 128.099 204.287 127.666C204.529 127.226 204.867 126.885 205.299 126.643C205.732 126.401 206.227 126.28 206.784 126.28C207.327 126.28 207.796 126.397 208.192 126.632C208.596 126.859 208.904 127.178 209.116 127.589C209.336 128 209.446 128.487 209.446 129.052C209.446 129.14 209.443 129.224 209.435 129.305C209.435 129.378 209.428 129.455 209.413 129.536H204.705V128.678H208.61L208.324 129.019C208.324 128.418 208.189 127.959 207.917 127.644C207.646 127.329 207.268 127.171 206.784 127.171C206.264 127.171 205.849 127.351 205.541 127.71C205.241 128.062 205.09 128.553 205.09 129.184C205.09 129.822 205.241 130.321 205.541 130.68C205.849 131.039 206.275 131.219 206.817 131.219C207.147 131.219 207.433 131.153 207.675 131.021C207.917 130.882 208.097 130.68 208.214 130.416H209.292C209.109 130.944 208.797 131.358 208.357 131.659C207.925 131.96 207.404 132.11 206.795 132.11ZM210.616 132V126.39H211.705V127.71H211.76V132H210.616ZM214.598 132V128.392C214.598 128.003 214.499 127.714 214.301 127.523C214.111 127.332 213.825 127.237 213.443 127.237C213.113 127.237 212.82 127.31 212.563 127.457C212.314 127.604 212.116 127.805 211.969 128.062C211.83 128.319 211.76 128.623 211.76 128.975L211.617 127.633C211.801 127.215 212.083 126.885 212.464 126.643C212.846 126.401 213.289 126.28 213.795 126.28C214.397 126.28 214.87 126.449 215.214 126.786C215.559 127.123 215.731 127.571 215.731 128.128V132H214.598ZM219.492 132.11C218.839 132.11 218.359 131.96 218.051 131.659C217.75 131.351 217.6 130.9 217.6 130.306V125.103L218.733 124.674V130.317C218.733 130.61 218.81 130.827 218.964 130.966C219.118 131.105 219.367 131.175 219.712 131.175C219.844 131.175 219.961 131.164 220.064 131.142C220.166 131.12 220.254 131.094 220.328 131.065V131.989C220.247 132.026 220.133 132.055 219.987 132.077C219.84 132.099 219.675 132.11 219.492 132.11ZM216.478 127.303V126.39H220.328V127.303H216.478ZM223.404 132.11C222.671 132.11 222.088 131.949 221.655 131.626C221.222 131.303 220.977 130.849 220.918 130.262H221.974C222.025 130.585 222.172 130.834 222.414 131.01C222.663 131.179 223.001 131.263 223.426 131.263C223.8 131.263 224.086 131.197 224.284 131.065C224.482 130.933 224.581 130.746 224.581 130.504C224.581 130.328 224.522 130.181 224.405 130.064C224.295 129.939 224.075 129.837 223.745 129.756L222.843 129.547C222.278 129.408 221.857 129.202 221.578 128.931C221.307 128.652 221.171 128.311 221.171 127.908C221.171 127.402 221.358 127.006 221.732 126.72C222.113 126.427 222.634 126.28 223.294 126.28C223.947 126.28 224.471 126.427 224.867 126.72C225.27 127.013 225.498 127.424 225.549 127.952H224.493C224.449 127.688 224.321 127.486 224.108 127.347C223.903 127.2 223.62 127.127 223.261 127.127C222.924 127.127 222.663 127.189 222.48 127.314C222.304 127.431 222.216 127.596 222.216 127.809C222.216 127.985 222.282 128.132 222.414 128.249C222.553 128.366 222.781 128.465 223.096 128.546L224.02 128.777C224.555 128.909 224.959 129.125 225.23 129.426C225.501 129.719 225.637 130.075 225.637 130.493C225.637 130.999 225.439 131.395 225.043 131.681C224.654 131.967 224.108 132.11 223.404 132.11ZM54.256 172.16C53.456 172.16 52.7147 172.016 52.032 171.728C51.3493 171.429 50.7573 171.019 50.256 170.496C49.7653 169.963 49.3813 169.333 49.104 168.608C48.8267 167.883 48.688 167.088 48.688 166.224C48.688 165.36 48.8213 164.571 49.088 163.856C49.3653 163.131 49.7493 162.507 50.24 161.984C50.7413 161.451 51.3333 161.04 52.016 160.752C52.6987 160.464 53.44 160.32 54.24 160.32C55.136 160.32 55.9413 160.501 56.656 160.864C57.3707 161.216 57.952 161.717 58.4 162.368C58.8587 163.019 59.1413 163.776 59.248 164.64H57.584C57.4453 163.733 57.0773 163.029 56.48 162.528C55.8933 162.016 55.152 161.76 54.256 161.76C53.4987 161.76 52.8267 161.947 52.24 162.32C51.664 162.683 51.216 163.2 50.896 163.872C50.576 164.533 50.416 165.317 50.416 166.224C50.416 167.12 50.576 167.909 50.896 168.592C51.2267 169.264 51.68 169.787 52.256 170.16C52.832 170.533 53.4987 170.72 54.256 170.72C55.152 170.72 55.8987 170.469 56.496 169.968C57.104 169.456 57.472 168.747 57.6 167.84H59.28C59.1627 168.715 58.8747 169.477 58.416 170.128C57.9573 170.768 57.3707 171.269 56.656 171.632C55.952 171.984 55.152 172.16 54.256 172.16ZM64.5794 172.16C63.7474 172.16 63.0167 171.979 62.3874 171.616C61.758 171.243 61.2674 170.736 60.9154 170.096C60.5634 169.445 60.3874 168.709 60.3874 167.888C60.3874 167.056 60.5634 166.325 60.9154 165.696C61.278 165.067 61.7687 164.576 62.3874 164.224C63.0167 163.861 63.7474 163.68 64.5794 163.68C65.422 163.68 66.158 163.861 66.7874 164.224C67.4167 164.576 67.902 165.067 68.2434 165.696C68.5954 166.325 68.7714 167.056 68.7714 167.888C68.7714 168.709 68.5954 169.445 68.2434 170.096C67.902 170.736 67.4167 171.243 66.7874 171.616C66.158 171.979 65.422 172.16 64.5794 172.16ZM64.5794 170.8C65.0807 170.8 65.5127 170.677 65.8754 170.432C66.2487 170.187 66.542 169.845 66.7554 169.408C66.9687 168.971 67.0754 168.459 67.0754 167.872C67.0754 166.997 66.8407 166.309 66.3714 165.808C65.9127 165.296 65.3154 165.04 64.5794 165.04C63.854 165.04 63.2567 165.296 62.7874 165.808C62.3287 166.32 62.0994 167.008 62.0994 167.872C62.0994 168.459 62.2007 168.971 62.4034 169.408C62.6167 169.845 62.91 170.187 63.2834 170.432C63.6674 170.677 64.0994 170.8 64.5794 170.8ZM70.4805 172V160.48H72.1445V172H70.4805ZM74.4805 172V160.48H76.1445V172H74.4805ZM82.0005 172.16C81.1792 172.16 80.4538 171.979 79.8245 171.616C79.2058 171.253 78.7205 170.752 78.3685 170.112C78.0165 169.472 77.8405 168.736 77.8405 167.904C77.8405 167.061 78.0112 166.325 78.3525 165.696C78.7045 165.056 79.1952 164.56 79.8245 164.208C80.4538 163.856 81.1738 163.68 81.9845 163.68C82.7738 163.68 83.4565 163.851 84.0325 164.192C84.6192 164.523 85.0672 164.987 85.3765 165.584C85.6965 166.181 85.8565 166.891 85.8565 167.712C85.8565 167.84 85.8512 167.963 85.8405 168.08C85.8405 168.187 85.8298 168.299 85.8085 168.416H78.9605V167.168H84.6405L84.2245 167.664C84.2245 166.789 84.0272 166.123 83.6325 165.664C83.2378 165.205 82.6885 164.976 81.9845 164.976C81.2272 164.976 80.6245 165.237 80.1765 165.76C79.7392 166.272 79.5205 166.987 79.5205 167.904C79.5205 168.832 79.7392 169.557 80.1765 170.08C80.6245 170.603 81.2432 170.864 82.0325 170.864C82.5125 170.864 82.9285 170.768 83.2805 170.576C83.6325 170.373 83.8938 170.08 84.0645 169.696H85.6325C85.3658 170.464 84.9125 171.067 84.2725 171.504C83.6432 171.941 82.8858 172.16 82.0005 172.16ZM90.9975 172.16C90.2188 172.16 89.5255 171.979 88.9175 171.616C88.3095 171.243 87.8295 170.736 87.4775 170.096C87.1362 169.456 86.9655 168.725 86.9655 167.904C86.9655 167.083 87.1362 166.357 87.4775 165.728C87.8295 165.088 88.3095 164.587 88.9175 164.224C89.5255 163.861 90.2135 163.68 90.9815 163.68C91.6322 163.68 92.2135 163.803 92.7255 164.048C93.2375 164.293 93.6588 164.635 93.9895 165.072C94.3202 165.509 94.5335 166.027 94.6295 166.624H93.0615C92.9548 166.144 92.7202 165.76 92.3575 165.472C92.0055 165.184 91.5575 165.04 91.0135 165.04C90.5442 165.04 90.1335 165.157 89.7815 165.392C89.4295 165.627 89.1575 165.957 88.9655 166.384C88.7735 166.811 88.6775 167.317 88.6775 167.904C88.6775 168.48 88.7735 168.987 88.9655 169.424C89.1575 169.861 89.4295 170.203 89.7815 170.448C90.1335 170.683 90.5495 170.8 91.0295 170.8C91.5522 170.8 91.9948 170.661 92.3575 170.384C92.7308 170.096 92.9708 169.712 93.0775 169.232H94.6455C94.5388 169.819 94.3148 170.331 93.9735 170.768C93.6428 171.205 93.2215 171.547 92.7095 171.792C92.1975 172.037 91.6268 172.16 90.9975 172.16ZM99.7025 172.16C98.7532 172.16 98.0545 171.941 97.6065 171.504C97.1692 171.056 96.9505 170.4 96.9505 169.536V161.968L98.5985 161.344V169.552C98.5985 169.979 98.7105 170.293 98.9345 170.496C99.1585 170.699 99.5212 170.8 100.023 170.8C100.215 170.8 100.385 170.784 100.535 170.752C100.684 170.72 100.812 170.683 100.919 170.64V171.984C100.801 172.037 100.636 172.08 100.423 172.112C100.209 172.144 99.9692 172.16 99.7025 172.16ZM95.3185 165.168V163.84H100.919V165.168H95.3185ZM105.265 172V170.636H106.618V172H105.265ZM105.265 168.018V166.654H106.618V168.018H105.265ZM113.866 172.11C113.316 172.11 112.807 172.011 112.337 171.813C111.868 171.608 111.461 171.325 111.116 170.966C110.779 170.599 110.515 170.167 110.324 169.668C110.134 169.169 110.038 168.623 110.038 168.029C110.038 167.435 110.13 166.892 110.313 166.401C110.504 165.902 110.768 165.473 111.105 165.114C111.45 164.747 111.857 164.465 112.326 164.267C112.796 164.069 113.305 163.97 113.855 163.97C114.471 163.97 115.025 164.095 115.516 164.344C116.008 164.586 116.407 164.931 116.715 165.378C117.031 165.825 117.225 166.346 117.298 166.94H116.154C116.059 166.317 115.806 165.833 115.395 165.488C114.992 165.136 114.482 164.96 113.866 164.96C113.346 164.96 112.884 165.088 112.48 165.345C112.084 165.594 111.776 165.95 111.556 166.412C111.336 166.867 111.226 167.406 111.226 168.029C111.226 168.645 111.336 169.188 111.556 169.657C111.784 170.119 112.095 170.478 112.491 170.735C112.887 170.992 113.346 171.12 113.866 171.12C114.482 171.12 114.996 170.948 115.406 170.603C115.824 170.251 116.077 169.763 116.165 169.14H117.32C117.24 169.741 117.042 170.266 116.726 170.713C116.411 171.153 116.008 171.498 115.516 171.747C115.032 171.989 114.482 172.11 113.866 172.11ZM120.964 172.11C120.392 172.11 119.889 171.985 119.457 171.736C119.024 171.479 118.687 171.131 118.445 170.691C118.203 170.244 118.082 169.738 118.082 169.173C118.082 168.601 118.203 168.099 118.445 167.666C118.694 167.233 119.031 166.896 119.457 166.654C119.889 166.405 120.392 166.28 120.964 166.28C121.543 166.28 122.049 166.405 122.482 166.654C122.914 166.896 123.248 167.233 123.483 167.666C123.725 168.099 123.846 168.601 123.846 169.173C123.846 169.738 123.725 170.244 123.483 170.691C123.248 171.131 122.914 171.479 122.482 171.736C122.049 171.985 121.543 172.11 120.964 172.11ZM120.964 171.175C121.308 171.175 121.605 171.091 121.855 170.922C122.111 170.753 122.313 170.519 122.46 170.218C122.606 169.917 122.68 169.565 122.68 169.162C122.68 168.561 122.518 168.088 122.196 167.743C121.88 167.391 121.47 167.215 120.964 167.215C120.465 167.215 120.054 167.391 119.732 167.743C119.416 168.095 119.259 168.568 119.259 169.162C119.259 169.565 119.328 169.917 119.468 170.218C119.614 170.519 119.816 170.753 120.073 170.922C120.337 171.091 120.634 171.175 120.964 171.175ZM125.021 172V164.08H126.165V172H125.021ZM127.771 172V164.08H128.915V172H127.771ZM132.941 172.11C132.376 172.11 131.877 171.985 131.445 171.736C131.019 171.487 130.686 171.142 130.444 170.702C130.202 170.262 130.081 169.756 130.081 169.184C130.081 168.605 130.198 168.099 130.433 167.666C130.675 167.226 131.012 166.885 131.445 166.643C131.877 166.401 132.372 166.28 132.93 166.28C133.472 166.28 133.942 166.397 134.338 166.632C134.741 166.859 135.049 167.178 135.262 167.589C135.482 168 135.592 168.487 135.592 169.052C135.592 169.14 135.588 169.224 135.581 169.305C135.581 169.378 135.573 169.455 135.559 169.536H130.851V168.678H134.756L134.47 169.019C134.47 168.418 134.334 167.959 134.063 167.644C133.791 167.329 133.414 167.171 132.93 167.171C132.409 167.171 131.995 167.351 131.687 167.71C131.386 168.062 131.236 168.553 131.236 169.184C131.236 169.822 131.386 170.321 131.687 170.68C131.995 171.039 132.42 171.219 132.963 171.219C133.293 171.219 133.579 171.153 133.821 171.021C134.063 170.882 134.242 170.68 134.36 170.416H135.438C135.254 170.944 134.943 171.358 134.503 171.659C134.07 171.96 133.549 172.11 132.941 172.11ZM139.126 172.11C138.591 172.11 138.114 171.985 137.696 171.736C137.278 171.479 136.948 171.131 136.706 170.691C136.472 170.251 136.354 169.749 136.354 169.184C136.354 168.619 136.472 168.121 136.706 167.688C136.948 167.248 137.278 166.903 137.696 166.654C138.114 166.405 138.587 166.28 139.115 166.28C139.563 166.28 139.962 166.364 140.314 166.533C140.666 166.702 140.956 166.936 141.183 167.237C141.411 167.538 141.557 167.893 141.623 168.304H140.545C140.472 167.974 140.311 167.71 140.061 167.512C139.819 167.314 139.511 167.215 139.137 167.215C138.815 167.215 138.532 167.296 138.29 167.457C138.048 167.618 137.861 167.846 137.729 168.139C137.597 168.432 137.531 168.781 137.531 169.184C137.531 169.58 137.597 169.928 137.729 170.229C137.861 170.53 138.048 170.764 138.29 170.933C138.532 171.094 138.818 171.175 139.148 171.175C139.508 171.175 139.812 171.08 140.061 170.889C140.318 170.691 140.483 170.427 140.556 170.097H141.634C141.561 170.5 141.407 170.852 141.172 171.153C140.945 171.454 140.655 171.688 140.303 171.857C139.951 172.026 139.559 172.11 139.126 172.11ZM145.111 172.11C144.458 172.11 143.978 171.96 143.67 171.659C143.369 171.351 143.219 170.9 143.219 170.306V165.103L144.352 164.674V170.317C144.352 170.61 144.429 170.827 144.583 170.966C144.737 171.105 144.986 171.175 145.331 171.175C145.463 171.175 145.58 171.164 145.683 171.142C145.786 171.12 145.874 171.094 145.947 171.065V171.989C145.866 172.026 145.753 172.055 145.606 172.077C145.459 172.099 145.294 172.11 145.111 172.11ZM142.097 167.303V166.39H145.947V167.303H142.097ZM151.027 172.11C150.653 172.11 150.323 172.033 150.037 171.879C149.751 171.718 149.528 171.498 149.366 171.219C149.212 170.94 149.135 170.621 149.135 170.262V166.39H150.279V169.998C150.279 170.387 150.375 170.676 150.565 170.867C150.756 171.058 151.027 171.153 151.379 171.153C151.695 171.153 151.973 171.08 152.215 170.933C152.465 170.786 152.659 170.585 152.798 170.328C152.945 170.064 153.018 169.76 153.018 169.415L153.161 170.757C152.978 171.168 152.696 171.498 152.314 171.747C151.94 171.989 151.511 172.11 151.027 172.11ZM153.062 172V170.68H153.018V166.39H154.151V172H153.062ZM155.754 172V166.39H156.843V167.787H156.898V172H155.754ZM156.898 169.074L156.755 167.743C156.887 167.266 157.115 166.903 157.437 166.654C157.76 166.405 158.145 166.28 158.592 166.28C158.761 166.28 158.878 166.295 158.944 166.324V167.402C158.908 167.387 158.856 167.38 158.79 167.38C158.724 167.373 158.644 167.369 158.548 167.369C157.998 167.369 157.584 167.512 157.305 167.798C157.034 168.084 156.898 168.509 156.898 169.074ZM165.127 172.099C164.599 172.099 164.159 171.974 163.807 171.725C163.462 171.468 163.235 171.113 163.125 170.658L163.279 170.636V174.255H162.135V166.39H163.224V167.677L163.114 167.644C163.231 167.219 163.481 166.885 163.862 166.643C164.243 166.401 164.691 166.28 165.204 166.28C165.71 166.28 166.146 166.401 166.513 166.643C166.887 166.885 167.173 167.222 167.371 167.655C167.576 168.088 167.679 168.594 167.679 169.173C167.679 169.76 167.573 170.273 167.36 170.713C167.147 171.153 166.85 171.494 166.469 171.736C166.088 171.978 165.64 172.099 165.127 172.099ZM164.885 171.153C165.384 171.153 165.78 170.977 166.073 170.625C166.366 170.273 166.513 169.789 166.513 169.173C166.513 168.564 166.366 168.091 166.073 167.754C165.78 167.409 165.38 167.237 164.874 167.237C164.375 167.237 163.976 167.413 163.675 167.765C163.382 168.11 163.235 168.59 163.235 169.206C163.235 169.807 163.382 170.284 163.675 170.636C163.976 170.981 164.379 171.153 164.885 171.153ZM172.368 172C172.331 171.861 172.306 171.707 172.291 171.538C172.284 171.369 172.28 171.164 172.28 170.922H172.225V168.249C172.225 167.89 172.133 167.622 171.95 167.446C171.774 167.263 171.492 167.171 171.103 167.171C170.729 167.171 170.428 167.244 170.201 167.391C169.981 167.538 169.853 167.747 169.816 168.018H168.727C168.778 167.49 169.017 167.068 169.442 166.753C169.867 166.438 170.436 166.28 171.147 166.28C171.88 166.28 172.43 166.452 172.797 166.797C173.164 167.134 173.347 167.633 173.347 168.293V170.922C173.347 171.091 173.358 171.263 173.38 171.439C173.402 171.615 173.435 171.802 173.479 172H172.368ZM170.432 172.11C169.86 172.11 169.405 171.971 169.068 171.692C168.731 171.406 168.562 171.021 168.562 170.537C168.562 170.038 168.738 169.646 169.09 169.36C169.449 169.067 169.963 168.869 170.63 168.766L172.478 168.469V169.272L170.806 169.536C170.432 169.595 170.15 169.694 169.959 169.833C169.776 169.972 169.684 170.174 169.684 170.438C169.684 170.695 169.768 170.889 169.937 171.021C170.113 171.146 170.366 171.208 170.696 171.208C171.136 171.208 171.499 171.102 171.785 170.889C172.078 170.676 172.225 170.409 172.225 170.086L172.368 170.9C172.236 171.289 172.001 171.589 171.664 171.802C171.327 172.007 170.916 172.11 170.432 172.11ZM176.856 172.11C176.123 172.11 175.54 171.949 175.107 171.626C174.675 171.303 174.429 170.849 174.37 170.262H175.426C175.478 170.585 175.624 170.834 175.866 171.01C176.116 171.179 176.453 171.263 176.878 171.263C177.252 171.263 177.538 171.197 177.736 171.065C177.934 170.933 178.033 170.746 178.033 170.504C178.033 170.328 177.975 170.181 177.857 170.064C177.747 169.939 177.527 169.837 177.197 169.756L176.295 169.547C175.731 169.408 175.309 169.202 175.03 168.931C174.759 168.652 174.623 168.311 174.623 167.908C174.623 167.402 174.81 167.006 175.184 166.72C175.566 166.427 176.086 166.28 176.746 166.28C177.399 166.28 177.923 166.427 178.319 166.72C178.723 167.013 178.95 167.424 179.001 167.952H177.945C177.901 167.688 177.773 167.486 177.56 167.347C177.355 167.2 177.073 167.127 176.713 167.127C176.376 167.127 176.116 167.189 175.932 167.314C175.756 167.431 175.668 167.596 175.668 167.809C175.668 167.985 175.734 168.132 175.866 168.249C176.006 168.366 176.233 168.465 176.548 168.546L177.472 168.777C178.008 168.909 178.411 169.125 178.682 169.426C178.954 169.719 179.089 170.075 179.089 170.493C179.089 170.999 178.891 171.395 178.495 171.681C178.107 171.967 177.56 172.11 176.856 172.11ZM182.27 172.11C181.537 172.11 180.954 171.949 180.521 171.626C180.089 171.303 179.843 170.849 179.784 170.262H180.84C180.892 170.585 181.038 170.834 181.28 171.01C181.53 171.179 181.867 171.263 182.292 171.263C182.666 171.263 182.952 171.197 183.15 171.065C183.348 170.933 183.447 170.746 183.447 170.504C183.447 170.328 183.389 170.181 183.271 170.064C183.161 169.939 182.941 169.837 182.611 169.756L181.709 169.547C181.145 169.408 180.723 169.202 180.444 168.931C180.173 168.652 180.037 168.311 180.037 167.908C180.037 167.402 180.224 167.006 180.598 166.72C180.98 166.427 181.5 166.28 182.16 166.28C182.813 166.28 183.337 166.427 183.733 166.72C184.137 167.013 184.364 167.424 184.415 167.952H183.359C183.315 167.688 183.187 167.486 182.974 167.347C182.769 167.2 182.487 167.127 182.127 167.127C181.79 167.127 181.53 167.189 181.346 167.314C181.17 167.431 181.082 167.596 181.082 167.809C181.082 167.985 181.148 168.132 181.28 168.249C181.42 168.366 181.647 168.465 181.962 168.546L182.886 168.777C183.422 168.909 183.825 169.125 184.096 169.426C184.368 169.719 184.503 170.075 184.503 170.493C184.503 170.999 184.305 171.395 183.909 171.681C183.521 171.967 182.974 172.11 182.27 172.11ZM190.121 172.11C189.468 172.11 188.988 171.96 188.68 171.659C188.379 171.351 188.229 170.9 188.229 170.306V165.103L189.362 164.674V170.317C189.362 170.61 189.439 170.827 189.593 170.966C189.747 171.105 189.996 171.175 190.341 171.175C190.473 171.175 190.59 171.164 190.693 171.142C190.795 171.12 190.883 171.094 190.957 171.065V171.989C190.876 172.026 190.762 172.055 190.616 172.077C190.469 172.099 190.304 172.11 190.121 172.11ZM187.107 167.303V166.39H190.957V167.303H187.107ZM192.041 172V164.08H193.185V172H192.041ZM196.023 172V168.392C196.023 168.003 195.924 167.714 195.726 167.523C195.536 167.332 195.25 167.237 194.868 167.237C194.538 167.237 194.245 167.31 193.988 167.457C193.739 167.604 193.541 167.805 193.394 168.062C193.255 168.319 193.185 168.623 193.185 168.975L193.042 167.633C193.226 167.215 193.508 166.885 193.889 166.643C194.271 166.401 194.714 166.28 195.22 166.28C195.822 166.28 196.295 166.449 196.639 166.786C196.984 167.123 197.156 167.571 197.156 168.128V172H196.023ZM201.132 172.11C200.568 172.11 200.069 171.985 199.636 171.736C199.211 171.487 198.877 171.142 198.635 170.702C198.393 170.262 198.272 169.756 198.272 169.184C198.272 168.605 198.39 168.099 198.624 167.666C198.866 167.226 199.204 166.885 199.636 166.643C200.069 166.401 200.564 166.28 201.121 166.28C201.664 166.28 202.133 166.397 202.529 166.632C202.933 166.859 203.241 167.178 203.453 167.589C203.673 168 203.783 168.487 203.783 169.052C203.783 169.14 203.78 169.224 203.772 169.305C203.772 169.378 203.765 169.455 203.75 169.536H199.042V168.678H202.947L202.661 169.019C202.661 168.418 202.526 167.959 202.254 167.644C201.983 167.329 201.605 167.171 201.121 167.171C200.601 167.171 200.186 167.351 199.878 167.71C199.578 168.062 199.427 168.553 199.427 169.184C199.427 169.822 199.578 170.321 199.878 170.68C200.186 171.039 200.612 171.219 201.154 171.219C201.484 171.219 201.77 171.153 202.012 171.021C202.254 170.882 202.434 170.68 202.551 170.416H203.629C203.446 170.944 203.134 171.358 202.694 171.659C202.262 171.96 201.741 172.11 201.132 172.11ZM208.729 172L206.441 166.39H207.662L209.532 171.483H208.993L210.841 166.39H212.018L209.741 172H208.729ZM215.226 172.11C214.661 172.11 214.163 171.985 213.73 171.736C213.305 171.487 212.971 171.142 212.729 170.702C212.487 170.262 212.366 169.756 212.366 169.184C212.366 168.605 212.483 168.099 212.718 167.666C212.96 167.226 213.297 166.885 213.73 166.643C214.163 166.401 214.658 166.28 215.215 166.28C215.758 166.28 216.227 166.397 216.623 166.632C217.026 166.859 217.334 167.178 217.547 167.589C217.767 168 217.877 168.487 217.877 169.052C217.877 169.14 217.873 169.224 217.866 169.305C217.866 169.378 217.859 169.455 217.844 169.536H213.136V168.678H217.041L216.755 169.019C216.755 168.418 216.619 167.959 216.348 167.644C216.077 167.329 215.699 167.171 215.215 167.171C214.694 167.171 214.28 167.351 213.972 167.71C213.671 168.062 213.521 168.553 213.521 169.184C213.521 169.822 213.671 170.321 213.972 170.68C214.28 171.039 214.705 171.219 215.248 171.219C215.578 171.219 215.864 171.153 216.106 171.021C216.348 170.882 216.528 170.68 216.645 170.416H217.723C217.54 170.944 217.228 171.358 216.788 171.659C216.355 171.96 215.835 172.11 215.226 172.11ZM219.047 172V166.39H220.136V167.787H220.191V172H219.047ZM220.191 169.074L220.048 167.743C220.18 167.266 220.407 166.903 220.73 166.654C221.053 166.405 221.438 166.28 221.885 166.28C222.054 166.28 222.171 166.295 222.237 166.324V167.402C222.2 167.387 222.149 167.38 222.083 167.38C222.017 167.373 221.936 167.369 221.841 167.369C221.291 167.369 220.877 167.512 220.598 167.798C220.327 168.084 220.191 168.509 220.191 169.074ZM223.741 174.255L225.094 171.164L225.325 170.801L227.03 166.39H228.218L224.918 174.255H223.741ZM225.039 172L222.641 166.39H223.884L225.919 171.439L225.039 172ZM48.803 185V179.39H49.892V180.71H49.947V185H48.803ZM52.785 185V181.392C52.785 181.003 52.686 180.714 52.488 180.523C52.2973 180.332 52.0113 180.237 51.63 180.237C51.3 180.237 51.0067 180.31 50.75 180.457C50.5007 180.604 50.3027 180.805 50.156 181.062C50.0167 181.319 49.947 181.623 49.947 181.975L49.804 180.633C49.9873 180.215 50.2697 179.885 50.651 179.643C51.0323 179.401 51.476 179.28 51.982 179.28C52.5833 179.28 53.0563 179.449 53.401 179.786C53.7457 180.123 53.918 180.571 53.918 181.128V185H52.785ZM57.8939 185.11C57.3292 185.11 56.8306 184.985 56.3979 184.736C55.9726 184.487 55.6389 184.142 55.3969 183.702C55.1549 183.262 55.0339 182.756 55.0339 182.184C55.0339 181.605 55.1512 181.099 55.3859 180.666C55.6279 180.226 55.9652 179.885 56.3979 179.643C56.8306 179.401 57.3256 179.28 57.8829 179.28C58.4256 179.28 58.8949 179.397 59.2909 179.632C59.6942 179.859 60.0022 180.178 60.2149 180.589C60.4349 181 60.5449 181.487 60.5449 182.052C60.5449 182.14 60.5412 182.224 60.5339 182.305C60.5339 182.378 60.5266 182.455 60.5119 182.536H55.8039V181.678H59.7089L59.4229 182.019C59.4229 181.418 59.2872 180.959 59.0159 180.644C58.7446 180.329 58.3669 180.171 57.8829 180.171C57.3622 180.171 56.9479 180.351 56.6399 180.71C56.3392 181.062 56.1889 181.553 56.1889 182.184C56.1889 182.822 56.3392 183.321 56.6399 183.68C56.9479 184.039 57.3732 184.219 57.9159 184.219C58.2459 184.219 58.5319 184.153 58.7739 184.021C59.0159 183.882 59.1956 183.68 59.3129 183.416H60.3909C60.2076 183.944 59.8959 184.358 59.4559 184.659C59.0232 184.96 58.5026 185.11 57.8939 185.11ZM65.1352 185L63.3422 182.437L61.0652 179.39H62.3632L64.0022 181.733L66.4332 185H65.1352ZM63.4192 181.733L65.0912 179.39H66.3452L63.9912 182.514L63.4192 181.733ZM63.8812 182.547L62.0772 185H60.8122L63.3312 181.744L63.8812 182.547ZM69.9351 185.11C69.2825 185.11 68.8021 184.96 68.4941 184.659C68.1935 184.351 68.0431 183.9 68.0431 183.306V178.103L69.1761 177.674V183.317C69.1761 183.61 69.2531 183.827 69.4071 183.966C69.5611 184.105 69.8105 184.175 70.1551 184.175C70.2871 184.175 70.4045 184.164 70.5071 184.142C70.6098 184.12 70.6978 184.094 70.7711 184.065V184.989C70.6905 185.026 70.5768 185.055 70.4301 185.077C70.2835 185.099 70.1185 185.11 69.9351 185.11ZM66.9211 180.303V179.39H70.7711V180.303H66.9211ZM78.0737 185V183.713L78.1837 183.746C78.0663 184.164 77.8243 184.498 77.4577 184.747C77.091 184.989 76.651 185.11 76.1377 185.11C75.6317 185.11 75.188 184.989 74.8067 184.747C74.4327 184.505 74.1393 184.168 73.9267 183.735C73.7213 183.302 73.6187 182.796 73.6187 182.217C73.6187 181.63 73.725 181.117 73.9377 180.677C74.1503 180.237 74.4473 179.896 74.8287 179.654C75.21 179.412 75.6573 179.291 76.1707 179.291C76.706 179.291 77.146 179.419 77.4907 179.676C77.8427 179.925 78.0737 180.277 78.1837 180.732L78.0297 180.754V177.08H79.1627V185H78.0737ZM76.4237 184.153C76.9297 184.153 77.3293 183.981 77.6227 183.636C77.916 183.284 78.0627 182.8 78.0627 182.184C78.0627 181.583 77.9123 181.11 77.6117 180.765C77.3183 180.413 76.9187 180.237 76.4127 180.237C75.914 180.237 75.518 180.413 75.2247 180.765C74.9387 181.11 74.7957 181.594 74.7957 182.217C74.7957 182.826 74.9387 183.302 75.2247 183.647C75.518 183.984 75.9177 184.153 76.4237 184.153ZM84.2478 185C84.2111 184.861 84.1854 184.707 84.1708 184.538C84.1634 184.369 84.1598 184.164 84.1598 183.922H84.1048V181.249C84.1048 180.89 84.0131 180.622 83.8298 180.446C83.6538 180.263 83.3714 180.171 82.9828 180.171C82.6088 180.171 82.3081 180.244 82.0808 180.391C81.8608 180.538 81.7324 180.747 81.6958 181.018H80.6068C80.6581 180.49 80.8964 180.068 81.3218 179.753C81.7471 179.438 82.3154 179.28 83.0268 179.28C83.7601 179.28 84.3101 179.452 84.6768 179.797C85.0434 180.134 85.2268 180.633 85.2268 181.293V183.922C85.2268 184.091 85.2378 184.263 85.2598 184.439C85.2818 184.615 85.3148 184.802 85.3588 185H84.2478ZM82.3118 185.11C81.7398 185.11 81.2851 184.971 80.9478 184.692C80.6104 184.406 80.4418 184.021 80.4418 183.537C80.4418 183.038 80.6178 182.646 80.9698 182.36C81.3291 182.067 81.8424 181.869 82.5098 181.766L84.3578 181.469V182.272L82.6858 182.536C82.3118 182.595 82.0294 182.694 81.8388 182.833C81.6554 182.972 81.5638 183.174 81.5638 183.438C81.5638 183.695 81.6481 183.889 81.8168 184.021C81.9928 184.146 82.2458 184.208 82.5758 184.208C83.0158 184.208 83.3788 184.102 83.6648 183.889C83.9581 183.676 84.1048 183.409 84.1048 183.086L84.2478 183.9C84.1158 184.289 83.8811 184.589 83.5438 184.802C83.2064 185.007 82.7958 185.11 82.3118 185.11ZM86.9046 187.255L88.2576 184.164L88.4886 183.801L90.1936 179.39H91.3816L88.0816 187.255H86.9046ZM88.2026 185L85.8046 179.39H87.0476L89.0826 184.439L88.2026 185Z" fill="white"/>
<path d="M38.4733 120.536L39.3333 119.561V128.251C39.3333 128.45 39.4036 128.641 39.5286 128.781C39.6536 128.922 39.8232 129.001 40 129.001C40.1768 129.001 40.3464 128.922 40.4714 128.781C40.5964 128.641 40.6667 128.45 40.6667 128.251V119.561L41.5267 120.536C41.5886 120.606 41.6624 120.662 41.7436 120.7C41.8249 120.738 41.912 120.758 42 120.758C42.088 120.758 42.1751 120.738 42.2564 120.7C42.3376 120.662 42.4114 120.606 42.4733 120.536C42.5358 120.466 42.5854 120.383 42.6193 120.292C42.6531 120.2 42.6705 120.102 42.6705 120.003C42.6705 119.904 42.6531 119.806 42.6193 119.715C42.5854 119.624 42.5358 119.541 42.4733 119.471L40.4733 117.222C40.4114 117.152 40.3376 117.096 40.2564 117.058C40.1751 117.02 40.088 117 40 117C39.912 117 39.8249 117.02 39.7436 117.058C39.6624 117.096 39.5886 117.152 39.5267 117.222L37.5267 119.471C37.4011 119.612 37.3306 119.804 37.3306 120.003C37.3306 120.203 37.4011 120.395 37.5267 120.536C37.6522 120.677 37.8225 120.756 38 120.756C38.1775 120.756 38.3478 120.677 38.4733 120.536ZM44 122.253H42.6667C42.4899 122.253 42.3203 122.332 42.1953 122.472C42.0702 122.613 42 122.804 42 123.003C42 123.201 42.0702 123.392 42.1953 123.533C42.3203 123.673 42.4899 123.752 42.6667 123.752H44C44.1768 123.752 44.3464 123.831 44.4714 123.972C44.5964 124.113 44.6667 124.303 44.6667 124.502V129.751C44.6667 129.95 44.5964 130.14 44.4714 130.281C44.3464 130.421 44.1768 130.5 44 130.5H36C35.8232 130.5 35.6536 130.421 35.5286 130.281C35.4036 130.14 35.3333 129.95 35.3333 129.751V124.502C35.3333 124.303 35.4036 124.113 35.5286 123.972C35.6536 123.831 35.8232 123.752 36 123.752H37.3333C37.5101 123.752 37.6797 123.673 37.8047 123.533C37.9298 123.392 38 123.201 38 123.003C38 122.804 37.9298 122.613 37.8047 122.472C37.6797 122.332 37.5101 122.253 37.3333 122.253H36C35.4696 122.253 34.9609 122.49 34.5858 122.912C34.2107 123.333 34 123.906 34 124.502V129.751C34 130.347 34.2107 130.919 34.5858 131.341C34.9609 131.763 35.4696 132 36 132H44C44.5304 132 45.0391 131.763 45.4142 131.341C45.7893 130.919 46 130.347 46 129.751V124.502C46 123.906 45.7893 123.333 45.4142 122.912C45.0391 122.49 44.5304 122.253 44 122.253Z" fill="white"/>
<path d="M40.904 164.753L37.901 167.763L36.746 166.608C36.6832 166.535 36.606 166.475 36.5192 166.433C36.4323 166.391 36.3377 166.368 36.2413 166.364C36.1449 166.36 36.0488 166.376 35.959 166.412C35.8691 166.447 35.7876 166.5 35.7193 166.568C35.6511 166.637 35.5977 166.718 35.5626 166.808C35.5274 166.898 35.5111 166.994 35.5148 167.09C35.5186 167.187 35.5422 167.281 35.5842 167.368C35.6262 167.455 35.6857 167.532 35.759 167.595L37.404 169.247C37.4694 169.312 37.547 169.363 37.6323 169.398C37.7176 169.433 37.8089 169.451 37.901 169.45C38.0846 169.449 38.2606 169.376 38.391 169.247L41.891 165.747C41.9566 165.682 42.0087 165.605 42.0442 165.519C42.0798 165.434 42.0981 165.342 42.0981 165.25C42.0981 165.158 42.0798 165.066 42.0442 164.981C42.0087 164.895 41.9566 164.818 41.891 164.753C41.7598 164.623 41.5824 164.549 41.3975 164.549C41.2126 164.549 41.0352 164.623 40.904 164.753ZM39 160C37.6155 160 36.2622 160.411 35.111 161.18C33.9599 161.949 33.0627 163.042 32.5328 164.321C32.003 165.6 31.8644 167.008 32.1345 168.366C32.4046 169.723 33.0713 170.971 34.0503 171.95C35.0292 172.929 36.2765 173.595 37.6344 173.865C38.9922 174.136 40.3997 173.997 41.6788 173.467C42.9579 172.937 44.0511 172.04 44.8203 170.889C45.5895 169.738 46 168.384 46 167C46 166.081 45.8189 165.17 45.4672 164.321C45.1154 163.472 44.5998 162.7 43.9497 162.05C43.2997 161.4 42.5281 160.885 41.6788 160.533C40.8295 160.181 39.9193 160 39 160ZM39 172.6C37.8924 172.6 36.8097 172.272 35.8888 171.656C34.9679 171.041 34.2501 170.166 33.8263 169.143C33.4024 168.12 33.2915 166.994 33.5076 165.907C33.7237 164.821 34.257 163.823 35.0402 163.04C35.8234 162.257 36.8212 161.724 37.9075 161.508C38.9938 161.292 40.1198 161.402 41.143 161.826C42.1663 162.25 43.0409 162.968 43.6562 163.889C44.2716 164.81 44.6 165.892 44.6 167C44.6 168.485 44.01 169.91 42.9598 170.96C41.9096 172.01 40.4852 172.6 39 172.6Z" fill="#FFFCFC"/>
<path d="M44.05 75.3H42.75V74.65C42.75 74.4776 42.6815 74.3123 42.5596 74.1904C42.4377 74.0685 42.2724 74 42.1 74C41.9276 74 41.7623 74.0685 41.6404 74.1904C41.5185 74.3123 41.45 74.4776 41.45 74.65V75.3H37.55V74.65C37.55 74.4776 37.4815 74.3123 37.3596 74.1904C37.2377 74.0685 37.0724 74 36.9 74C36.7276 74 36.5623 74.0685 36.4404 74.1904C36.3185 74.3123 36.25 74.4776 36.25 74.65V75.3H34.95C34.4328 75.3 33.9368 75.5054 33.5711 75.8711C33.2054 76.2368 33 76.7328 33 77.25V85.05C33 85.5672 33.2054 86.0632 33.5711 86.4289C33.9368 86.7946 34.4328 87 34.95 87H44.05C44.5672 87 45.0632 86.7946 45.4289 86.4289C45.7946 86.0632 46 85.5672 46 85.05V77.25C46 76.7328 45.7946 76.2368 45.4289 75.8711C45.0632 75.5054 44.5672 75.3 44.05 75.3ZM44.7 85.05C44.7 85.2224 44.6315 85.3877 44.5096 85.5096C44.3877 85.6315 44.2224 85.7 44.05 85.7H34.95C34.7776 85.7 34.6123 85.6315 34.4904 85.5096C34.3685 85.3877 34.3 85.2224 34.3 85.05V80.5H44.7V85.05ZM44.7 79.2H34.3V77.25C34.3 77.0776 34.3685 76.9123 34.4904 76.7904C34.6123 76.6685 34.7776 76.6 34.95 76.6H36.25V77.25C36.25 77.4224 36.3185 77.5877 36.4404 77.7096C36.5623 77.8315 36.7276 77.9 36.9 77.9C37.0724 77.9 37.2377 77.8315 37.3596 77.7096C37.4815 77.5877 37.55 77.4224 37.55 77.25V76.6H41.45V77.25C41.45 77.4224 41.5185 77.5877 41.6404 77.7096C41.7623 77.8315 41.9276 77.9 42.1 77.9C42.2724 77.9 42.4377 77.8315 42.5596 77.7096C42.6815 77.5877 42.75 77.4224 42.75 77.25V76.6H44.05C44.2224 76.6 44.3877 76.6685 44.5096 76.7904C44.6315 76.9123 44.7 77.0776 44.7 77.25V79.2Z" fill="white"/>
<defs>
<filter id="filter0_d_183_414" x="0" y="21" width="245" height="206" filterUnits="userSpaceOnUse" color-interpolation-filters="sRGB">
<feFlood flood-opacity="0" result="BackgroundImageFix"/>
<feColorMatrix in="SourceAlpha" type="matrix" values="0 0 0 0 0 0 0 0 0 0 0 0 0 0 0 0 0 0 127 0" result="hardAlpha"/>
<feOffset dy="4"/>
<feGaussianBlur stdDeviation="2"/>
<feComposite in2="hardAlpha" operator="out"/>
<feColorMatrix type="matrix" values="0 0 0 0 0 0 0 0 0 0 0 0 0 0 0 0 0 0 0.25 0"/>
<feBlend mode="normal" in2="BackgroundImageFix" result="effect1_dropShadow_183_414"/>
<feBlend mode="normal" in="SourceGraphic" in2="effect1_dropShadow_183_414" result="shape"/>
</filter>
<filter id="filter1_d_183_414" x="29" y="0" width="188" height="54" filterUnits="userSpaceOnUse" color-interpolation-filters="sRGB">
<feFlood flood-opacity="0" result="BackgroundImageFix"/>
<feColorMatrix in="SourceAlpha" type="matrix" values="0 0 0 0 0 0 0 0 0 0 0 0 0 0 0 0 0 0 127 0" result="hardAlpha"/>
<feMorphology radius="3" operator="dilate" in="SourceAlpha" result="effect1_dropShadow_183_414"/>
<feOffset dy="4"/>
<feGaussianBlur stdDeviation="2"/>
<feComposite in2="hardAlpha" operator="out"/>
<feColorMatrix type="matrix" values="0 0 0 0 0 0 0 0 0 0 0 0 0 0 0 0 0 0 0.46 0"/>
<feBlend mode="normal" in2="BackgroundImageFix" result="effect1_dropShadow_183_414"/>
<feBlend mode="normal" in="SourceGraphic" in2="effect1_dropShadow_183_414" result="shape"/>
</filter>
</defs>
</svg>
