<svg width="219" height="88" viewBox="0 0 219 88" fill="none" xmlns="http://www.w3.org/2000/svg">
<g filter="url(#filter0_d_183_389)">
<rect x="8" y="4" width="203" height="71.4146" rx="22" fill="#35A7FF"/>
<rect x="7.5" y="3.5" width="204" height="72.4146" rx="22.5" stroke="#FFFCFC"/>
</g>
<path d="M58.6353 45.29C58.1665 45.29 58.0135 45.0752 58.1763 44.6455L62.9614 32.0771C63.1632 31.5498 63.4692 31.2861 63.8794 31.2861H65.2466C65.6567 31.2861 65.9627 31.5498 66.1646 32.0771L70.9497 44.6455C71.1125 45.0752 70.9595 45.29 70.4907 45.29H68.938C68.5083 45.29 68.2088 45.0654 68.0396 44.6162L67.0435 41.9893H62.0825L61.0864 44.6162C60.9172 45.0654 60.6177 45.29 60.188 45.29H58.6353ZM62.9907 39.5674H66.1353L64.9341 36.4619C64.7909 36.0973 64.703 35.8337 64.6704 35.6709C64.6444 35.5016 64.6151 35.2542 64.5825 34.9287H64.5435C64.5109 35.2542 64.4784 35.5016 64.4458 35.6709C64.4198 35.8337 64.3351 36.0973 64.1919 36.4619L62.9907 39.5674ZM73.0396 45.29C72.6489 45.29 72.4536 45.0947 72.4536 44.7041V35.6221C72.4536 35.2314 72.6489 35.0361 73.0396 35.0361H74.5825C74.9731 35.0361 75.1685 35.2314 75.1685 35.6221V36.1885H75.2075C75.507 35.6742 75.8879 35.3226 76.3501 35.1338C76.8123 34.9385 77.369 34.8408 78.02 34.8408C79.0356 34.8408 79.8755 35.1598 80.5396 35.7979C81.2036 36.4359 81.5356 37.6012 81.5356 39.2939V44.7041C81.5356 45.0947 81.3403 45.29 80.9497 45.29H79.3872C78.9966 45.29 78.8013 45.0947 78.8013 44.7041V39.9971C78.8013 38.5778 78.7036 37.6826 78.5083 37.3115C78.313 36.9404 77.8931 36.7549 77.2485 36.7549C76.5649 36.7549 76.0506 37.0218 75.7056 37.5557C75.3605 38.083 75.188 39.1833 75.188 40.8564V44.7041C75.188 45.0947 74.9927 45.29 74.6021 45.29H73.0396ZM84.7583 45.29C84.3677 45.29 84.1724 45.0947 84.1724 44.7041V35.6221C84.1724 35.2314 84.3677 35.0361 84.7583 35.0361H86.3013C86.6919 35.0361 86.8872 35.2314 86.8872 35.6221V36.1885H86.9263C87.2257 35.6742 87.6066 35.3226 88.0688 35.1338C88.5311 34.9385 89.0877 34.8408 89.7388 34.8408C90.7544 34.8408 91.5942 35.1598 92.2583 35.7979C92.9224 36.4359 93.2544 37.6012 93.2544 39.2939V44.7041C93.2544 45.0947 93.0591 45.29 92.6685 45.29H91.106C90.7153 45.29 90.52 45.0947 90.52 44.7041V39.9971C90.52 38.5778 90.4224 37.6826 90.2271 37.3115C90.0317 36.9404 89.6118 36.7549 88.9673 36.7549C88.2837 36.7549 87.7694 37.0218 87.4243 37.5557C87.0793 38.083 86.9067 39.1833 86.9067 40.8564V44.7041C86.9067 45.0947 86.7114 45.29 86.3208 45.29H84.7583ZM95.3442 40.1631C95.3442 38.5029 95.7707 37.2008 96.6235 36.2568C97.4829 35.3128 98.759 34.8408 100.452 34.8408C102.144 34.8408 103.417 35.3128 104.27 36.2568C105.129 37.2008 105.559 38.5029 105.559 40.1631C105.559 41.8232 105.129 43.1253 104.27 44.0693C103.417 45.0133 102.144 45.4854 100.452 45.4854C98.759 45.4854 97.4829 45.0133 96.6235 44.0693C95.7707 43.1253 95.3442 41.8232 95.3442 40.1631ZM98.2349 40.1631C98.2349 41.4001 98.4237 42.279 98.8013 42.7998C99.1854 43.3141 99.7355 43.5713 100.452 43.5713C101.168 43.5713 101.715 43.3141 102.092 42.7998C102.476 42.279 102.668 41.4001 102.668 40.1631C102.668 38.9261 102.476 38.0505 102.092 37.5361C101.715 37.0153 101.168 36.7549 100.452 36.7549C99.7355 36.7549 99.1854 37.0153 98.8013 37.5361C98.4237 38.0505 98.2349 38.9261 98.2349 40.1631ZM107.649 41.0322V35.6221C107.649 35.2314 107.844 35.0361 108.235 35.0361H109.797C110.188 35.0361 110.383 35.2314 110.383 35.6221V40.3291C110.383 41.7484 110.481 42.6436 110.676 43.0146C110.872 43.3857 111.282 43.5713 111.907 43.5713C112.571 43.5713 113.075 43.3076 113.42 42.7803C113.765 42.2464 113.938 41.1429 113.938 39.4697V35.6221C113.938 35.2314 114.133 35.0361 114.524 35.0361H116.086C116.477 35.0361 116.672 35.2314 116.672 35.6221V44.7041C116.672 45.0947 116.477 45.29 116.086 45.29H114.543C114.153 45.29 113.958 45.0947 113.958 44.7041V44.1377H113.918C113.619 44.652 113.238 45.0068 112.776 45.2021C112.314 45.391 111.767 45.4854 111.135 45.4854C110.139 45.4854 109.309 45.1663 108.645 44.5283C107.981 43.8903 107.649 42.7249 107.649 41.0322ZM119.915 45.29C119.524 45.29 119.329 45.0947 119.329 44.7041V35.6221C119.329 35.2314 119.524 35.0361 119.915 35.0361H121.458C121.848 35.0361 122.043 35.2314 122.043 35.6221V36.1885H122.083C122.382 35.6742 122.763 35.3226 123.225 35.1338C123.687 34.9385 124.244 34.8408 124.895 34.8408C125.911 34.8408 126.75 35.1598 127.415 35.7979C128.079 36.4359 128.411 37.6012 128.411 39.2939V44.7041C128.411 45.0947 128.215 45.29 127.825 45.29H126.262C125.872 45.29 125.676 45.0947 125.676 44.7041V39.9971C125.676 38.5778 125.579 37.6826 125.383 37.3115C125.188 36.9404 124.768 36.7549 124.124 36.7549C123.44 36.7549 122.926 37.0218 122.581 37.5557C122.236 38.083 122.063 39.1833 122.063 40.8564V44.7041C122.063 45.0947 121.868 45.29 121.477 45.29H119.915ZM130.5 40.1631C130.5 38.5029 130.917 37.2008 131.75 36.2568C132.584 35.3128 133.863 34.8408 135.588 34.8408C136.597 34.8408 137.382 34.9743 137.942 35.2412C138.502 35.5081 138.951 35.8988 139.29 36.4131C139.491 36.7191 139.459 36.96 139.192 37.1357L138.157 37.8193C137.864 38.0146 137.607 37.9398 137.385 37.5947C137.275 37.4255 137.063 37.2432 136.75 37.0479C136.438 36.8525 136.051 36.7549 135.588 36.7549C134.853 36.7549 134.303 37.0153 133.938 37.5361C133.573 38.0505 133.391 38.9261 133.391 40.1631C133.391 41.4001 133.573 42.279 133.938 42.7998C134.303 43.3141 134.853 43.5713 135.588 43.5713C136.116 43.5713 136.542 43.4606 136.868 43.2393C137.193 43.0179 137.499 42.7314 137.786 42.3799C138.033 42.0804 138.293 42.0381 138.567 42.2529L139.475 42.9658C139.749 43.1807 139.765 43.4671 139.524 43.8252C139.27 44.2028 138.837 44.5739 138.225 44.9385C137.62 45.3031 136.741 45.4854 135.588 45.4854C133.863 45.4854 132.584 45.0133 131.75 44.0693C130.917 43.1253 130.5 41.8232 130.5 40.1631ZM141.106 40.1631C141.106 38.516 141.516 37.2171 142.336 36.2666C143.163 35.3161 144.329 34.8408 145.833 34.8408C147.577 34.8408 148.873 35.29 149.719 36.1885C150.566 37.0869 150.989 38.5322 150.989 40.5244C150.989 40.915 150.806 41.1104 150.442 41.1104H143.997C144.101 42.1911 144.368 42.8714 144.797 43.1514C145.227 43.4313 145.725 43.5713 146.292 43.5713C146.832 43.5713 147.245 43.4997 147.532 43.3564C147.818 43.2132 148.059 43.0179 148.254 42.7705C148.476 42.484 148.749 42.4385 149.075 42.6338L150.051 43.2295C150.435 43.4639 150.491 43.7438 150.217 44.0693C149.82 44.5446 149.355 44.8994 148.821 45.1338C148.287 45.3682 147.444 45.4854 146.292 45.4854C144.423 45.4854 143.092 45.0101 142.297 44.0596C141.503 43.109 141.106 41.8102 141.106 40.1631ZM144.006 39.1572H148.254C148.254 38.4541 148.079 37.8812 147.727 37.4385C147.375 36.9893 146.816 36.7646 146.047 36.7646C145.435 36.7646 144.95 36.9795 144.592 37.4092C144.234 37.8324 144.039 38.415 144.006 39.1572ZM153.704 45.29C153.313 45.29 153.118 45.0947 153.118 44.7041V35.6221C153.118 35.2314 153.313 35.0361 153.704 35.0361H155.247C155.637 35.0361 155.833 35.2314 155.833 35.6221V36.1885H155.872C156.06 35.7718 156.379 35.443 156.829 35.2021C157.278 34.9613 157.698 34.8408 158.088 34.8408C158.87 34.8408 159.475 35.0231 159.905 35.3877C160.341 35.7523 160.64 36.1592 160.803 36.6084H160.842C161.409 35.8727 161.92 35.3942 162.375 35.1729C162.838 34.9515 163.427 34.8408 164.143 34.8408C165.107 34.8408 165.917 35.1598 166.575 35.7979C167.239 36.4359 167.571 37.6012 167.571 39.2939V44.7041C167.571 45.0947 167.375 45.29 166.985 45.29H165.422C165.032 45.29 164.836 45.0947 164.836 44.7041V39.9971C164.836 38.5778 164.739 37.6826 164.543 37.3115C164.355 36.9404 164.016 36.7549 163.528 36.7549C163.072 36.7549 162.655 37.0218 162.278 37.5557C161.9 38.0895 161.711 39.1898 161.711 40.8564V44.7041C161.711 45.0947 161.516 45.29 161.125 45.29H159.563C159.172 45.29 158.977 45.0947 158.977 44.7041V39.9971C158.977 38.5778 158.879 37.6826 158.684 37.3115C158.495 36.9404 158.157 36.7549 157.668 36.7549C157.213 36.7549 156.796 37.0218 156.418 37.5557C156.041 38.083 155.852 39.1833 155.852 40.8564V44.7041C155.852 45.0947 155.657 45.29 155.266 45.29H153.704ZM169.661 40.1631C169.661 38.516 170.071 37.2171 170.891 36.2666C171.718 35.3161 172.883 34.8408 174.387 34.8408C176.132 34.8408 177.428 35.29 178.274 36.1885C179.12 37.0869 179.543 38.5322 179.543 40.5244C179.543 40.915 179.361 41.1104 178.997 41.1104H172.551C172.655 42.1911 172.922 42.8714 173.352 43.1514C173.782 43.4313 174.28 43.5713 174.846 43.5713C175.387 43.5713 175.8 43.4997 176.086 43.3564C176.373 43.2132 176.614 43.0179 176.809 42.7705C177.03 42.484 177.304 42.4385 177.629 42.6338L178.606 43.2295C178.99 43.4639 179.045 43.7438 178.772 44.0693C178.375 44.5446 177.909 44.8994 177.375 45.1338C176.842 45.3682 175.999 45.4854 174.846 45.4854C172.978 45.4854 171.646 45.0101 170.852 44.0596C170.058 43.109 169.661 41.8102 169.661 40.1631ZM172.561 39.1572H176.809C176.809 38.4541 176.633 37.8812 176.282 37.4385C175.93 36.9893 175.37 36.7646 174.602 36.7646C173.99 36.7646 173.505 36.9795 173.147 37.4092C172.789 37.8324 172.594 38.415 172.561 39.1572ZM182.258 45.29C181.868 45.29 181.672 45.0947 181.672 44.7041V35.6221C181.672 35.2314 181.868 35.0361 182.258 35.0361H183.801C184.192 35.0361 184.387 35.2314 184.387 35.6221V36.1885H184.426C184.726 35.6742 185.107 35.3226 185.569 35.1338C186.031 34.9385 186.588 34.8408 187.239 34.8408C188.254 34.8408 189.094 35.1598 189.758 35.7979C190.422 36.4359 190.754 37.6012 190.754 39.2939V44.7041C190.754 45.0947 190.559 45.29 190.168 45.29H188.606C188.215 45.29 188.02 45.0947 188.02 44.7041V39.9971C188.02 38.5778 187.922 37.6826 187.727 37.3115C187.532 36.9404 187.112 36.7549 186.467 36.7549C185.784 36.7549 185.269 37.0218 184.924 37.5557C184.579 38.083 184.407 39.1833 184.407 40.8564V44.7041C184.407 45.0947 184.211 45.29 183.821 45.29H182.258ZM193.049 36.9893C192.665 36.9893 192.473 36.8265 192.473 36.501V35.5244C192.473 35.1989 192.665 35.0361 193.049 35.0361H193.713V34.6943C193.713 34.4014 193.782 34.1344 193.918 33.8936L194.67 32.5752C194.814 32.3278 194.983 32.2041 195.178 32.2041H195.862C196.252 32.2041 196.448 32.3994 196.448 32.79V35.0361H198.03C198.414 35.0361 198.606 35.1989 198.606 35.5244V36.501C198.606 36.8265 198.414 36.9893 198.03 36.9893H196.448V41.833C196.448 42.4971 196.493 42.9756 196.584 43.2686C196.682 43.555 196.93 43.6982 197.327 43.6982C197.528 43.6982 197.756 43.6657 198.01 43.6006C198.264 43.529 198.463 43.4606 198.606 43.3955C198.834 43.2913 198.984 43.3662 199.055 43.6201L199.348 44.7334C199.407 44.9548 199.322 45.1175 199.094 45.2217C198.879 45.3193 198.583 45.4072 198.206 45.4854C197.834 45.57 197.46 45.6123 197.083 45.6123C196.152 45.6123 195.357 45.4202 194.7 45.0361C194.042 44.652 193.713 43.861 193.713 42.6631V36.9893H193.049Z" fill="white"/>
<path d="M46.929 27.8047H32.1991C31.362 27.8047 30.5591 28.1809 29.9672 28.8505C29.3752 29.5201 29.0427 30.4284 29.0427 31.3754V43.2776C29.0427 44.2246 29.3752 45.1328 29.9672 45.8025C30.5591 46.4721 31.362 46.8483 32.1991 46.8483H44.3933L48.2862 51.264C48.3845 51.3744 48.5011 51.4616 48.6293 51.5209C48.7575 51.5801 48.8948 51.6101 49.0332 51.6092C49.1713 51.6132 49.3082 51.5806 49.4331 51.514C49.6252 51.4247 49.7897 51.2731 49.9058 51.0782C50.0218 50.8833 50.0843 50.654 50.0854 50.419V31.3754C50.0854 30.4284 49.7528 29.5201 49.1609 28.8505C48.5689 28.1809 47.7661 27.8047 46.929 27.8047ZM47.9811 47.5505L45.5717 44.813C45.4734 44.7027 45.3568 44.6154 45.2286 44.5562C45.1004 44.497 44.9632 44.4669 44.8247 44.4679H32.1991C31.9201 44.4679 31.6524 44.3425 31.4551 44.1192C31.2578 43.896 31.147 43.5933 31.147 43.2776V31.3754C31.147 31.0597 31.2578 30.757 31.4551 30.5337C31.6524 30.3105 31.9201 30.1851 32.1991 30.1851H46.929C47.208 30.1851 47.4756 30.3105 47.6729 30.5337C47.8703 30.757 47.9811 31.0597 47.9811 31.3754V47.5505ZM39.564 39.7069C39.3559 39.7069 39.1525 39.7768 38.9795 39.9075C38.8065 40.0383 38.6716 40.2242 38.592 40.4417C38.5124 40.6592 38.4915 40.8985 38.5321 41.1294C38.5727 41.3603 38.6729 41.5723 38.8201 41.7388C38.9672 41.9052 39.1547 42.0186 39.3588 42.0645C39.5629 42.1105 39.7744 42.0869 39.9667 41.9968C40.1589 41.9067 40.3232 41.7542 40.4389 41.5584C40.5545 41.3627 40.6162 41.1326 40.6162 40.8972C40.6162 40.5815 40.5053 40.2788 40.308 40.0556C40.1107 39.8323 39.8431 39.7069 39.564 39.7069ZM39.564 32.5656C39.285 32.5656 39.0174 32.691 38.8201 32.9142C38.6228 33.1374 38.5119 33.4401 38.5119 33.7558V37.3265C38.5119 37.6422 38.6228 37.9449 38.8201 38.1681C39.0174 38.3913 39.285 38.5167 39.564 38.5167C39.8431 38.5167 40.1107 38.3913 40.308 38.1681C40.5053 37.9449 40.6162 37.6422 40.6162 37.3265V33.7558C40.6162 33.4401 40.5053 33.1374 40.308 32.9142C40.1107 32.691 39.8431 32.5656 39.564 32.5656Z" fill="white"/>
<defs>
<filter id="filter0_d_183_389" x="0" y="0" width="219" height="87.4146" filterUnits="userSpaceOnUse" color-interpolation-filters="sRGB">
<feFlood flood-opacity="0" result="BackgroundImageFix"/>
<feColorMatrix in="SourceAlpha" type="matrix" values="0 0 0 0 0 0 0 0 0 0 0 0 0 0 0 0 0 0 127 0" result="hardAlpha"/>
<feMorphology radius="3" operator="dilate" in="SourceAlpha" result="effect1_dropShadow_183_389"/>
<feOffset dy="4"/>
<feGaussianBlur stdDeviation="2"/>
<feComposite in2="hardAlpha" operator="out"/>
<feColorMatrix type="matrix" values="0 0 0 0 0 0 0 0 0 0 0 0 0 0 0 0 0 0 0.25 0"/>
<feBlend mode="normal" in2="BackgroundImageFix" result="effect1_dropShadow_183_389"/>
<feBlend mode="normal" in="SourceGraphic" in2="effect1_dropShadow_183_389" result="shape"/>
</filter>
</defs>
</svg>
