<svg width="236" height="197" viewBox="0 0 236 197" fill="none" xmlns="http://www.w3.org/2000/svg">
<g filter="url(#filter0_d_403_3)">
<rect x="5" y="25" width="226" height="161" rx="22" fill="#35A7FF"/>
<rect x="5.5" y="25.5" width="225" height="160" rx="21.5" stroke="#FFFCFC"/>
</g>
<g filter="url(#filter1_d_403_3)">
<rect x="24" y="1" width="47" height="47" rx="12" fill="#35A7FF"/>
<rect x="24.5" y="1.5" width="46" height="46" rx="11.5" stroke="#FFFCFC"/>
</g>
<path d="M24.8984 71C24.5234 71 24.401 70.8281 24.5312 70.4844L28.3594 60.4297C28.5208 60.0078 28.7656 59.7969 29.0938 59.7969H30.1875C30.5156 59.7969 30.7604 60.0078 30.9219 60.4297L34.75 70.4844C34.8802 70.8281 34.7578 71 34.3828 71H33.1406C32.7969 71 32.5573 70.8203 32.4219 70.4609L31.625 68.3594H27.6562L26.8594 70.4609C26.724 70.8203 26.4844 71 26.1406 71H24.8984ZM28.3828 66.4219H30.8984L29.9375 63.9375C29.8229 63.6458 29.7526 63.4349 29.7266 63.3047C29.7057 63.1693 29.6823 62.9714 29.6562 62.7109H29.625C29.599 62.9714 29.5729 63.1693 29.5469 63.3047C29.526 63.4349 29.4583 63.6458 29.3438 63.9375L28.3828 66.4219ZM35.6797 64.3594C35.3724 64.3594 35.2188 64.2292 35.2188 63.9688V63.1875C35.2188 62.9271 35.3724 62.7969 35.6797 62.7969H36.2109V62.5234C36.2109 62.2891 36.2656 62.0755 36.375 61.8828L36.9766 60.8281C37.0911 60.6302 37.2266 60.5312 37.3828 60.5312H37.9297C38.2422 60.5312 38.3984 60.6875 38.3984 61V62.7969H39.6641C39.9714 62.7969 40.125 62.9271 40.125 63.1875V63.9688C40.125 64.2292 39.9714 64.3594 39.6641 64.3594H38.3984V68.2344C38.3984 68.7656 38.4349 69.1484 38.5078 69.3828C38.5859 69.612 38.7839 69.7266 39.1016 69.7266C39.263 69.7266 39.4453 69.7005 39.6484 69.6484C39.8516 69.5911 40.0104 69.5365 40.125 69.4844C40.3073 69.401 40.4271 69.4609 40.4844 69.6641L40.7188 70.5547C40.7656 70.7318 40.6979 70.862 40.5156 70.9453C40.3438 71.0234 40.1068 71.0938 39.8047 71.1562C39.5078 71.224 39.2083 71.2578 38.9062 71.2578C38.1615 71.2578 37.526 71.1042 37 70.7969C36.474 70.4896 36.2109 69.8568 36.2109 68.8984V64.3594H35.6797ZM41.9141 64.3594C41.6068 64.3594 41.4531 64.2292 41.4531 63.9688V63.1875C41.4531 62.9271 41.6068 62.7969 41.9141 62.7969H42.4453V62.5234C42.4453 62.2891 42.5 62.0755 42.6094 61.8828L43.2109 60.8281C43.3255 60.6302 43.4609 60.5312 43.6172 60.5312H44.1641C44.4766 60.5312 44.6328 60.6875 44.6328 61V62.7969H45.8984C46.2057 62.7969 46.3594 62.9271 46.3594 63.1875V63.9688C46.3594 64.2292 46.2057 64.3594 45.8984 64.3594H44.6328V68.2344C44.6328 68.7656 44.6693 69.1484 44.7422 69.3828C44.8203 69.612 45.0182 69.7266 45.3359 69.7266C45.4974 69.7266 45.6797 69.7005 45.8828 69.6484C46.0859 69.5911 46.2448 69.5365 46.3594 69.4844C46.5417 69.401 46.6615 69.4609 46.7188 69.6641L46.9531 70.5547C47 70.7318 46.9323 70.862 46.75 70.9453C46.5781 71.0234 46.3411 71.0938 46.0391 71.1562C45.7422 71.224 45.4427 71.2578 45.1406 71.2578C44.3958 71.2578 43.7604 71.1042 43.2344 70.7969C42.7083 70.4896 42.4453 69.8568 42.4453 68.8984V64.3594H41.9141ZM47.9844 66.8984C47.9844 65.5807 48.3125 64.5417 48.9688 63.7812C49.6302 63.0208 50.5625 62.6406 51.7656 62.6406C53.1615 62.6406 54.1979 63 54.875 63.7188C55.5521 64.4375 55.8906 65.5938 55.8906 67.1875C55.8906 67.5 55.7448 67.6562 55.4531 67.6562H50.2969C50.3802 68.5208 50.5938 69.0651 50.9375 69.2891C51.2812 69.513 51.6797 69.625 52.1328 69.625C52.5651 69.625 52.8958 69.5677 53.125 69.4531C53.3542 69.3385 53.5469 69.1823 53.7031 68.9844C53.8802 68.7552 54.099 68.7188 54.3594 68.875L55.1406 69.3516C55.4479 69.5391 55.4922 69.763 55.2734 70.0234C54.9557 70.4036 54.5833 70.6875 54.1562 70.875C53.7292 71.0625 53.0547 71.1562 52.1328 71.1562C50.638 71.1562 49.5729 70.776 48.9375 70.0156C48.3021 69.2552 47.9844 68.2161 47.9844 66.8984ZM50.3047 66.0938H53.7031C53.7031 65.5312 53.5625 65.0729 53.2812 64.7188C53 64.3594 52.5521 64.1797 51.9375 64.1797C51.4479 64.1797 51.0599 64.3516 50.7734 64.6953C50.487 65.0339 50.3307 65.5 50.3047 66.0938ZM58.0625 71C57.75 71 57.5938 70.8438 57.5938 70.5312V63.2656C57.5938 62.9531 57.75 62.7969 58.0625 62.7969H59.2969C59.6094 62.7969 59.7656 62.9531 59.7656 63.2656V63.7188H59.7969C60.0365 63.3073 60.3411 63.026 60.7109 62.875C61.0807 62.7188 61.526 62.6406 62.0469 62.6406C62.8594 62.6406 63.5312 62.8958 64.0625 63.4062C64.5938 63.9167 64.8594 64.849 64.8594 66.2031V70.5312C64.8594 70.8438 64.7031 71 64.3906 71H63.1406C62.8281 71 62.6719 70.8438 62.6719 70.5312V66.7656C62.6719 65.6302 62.5938 64.9141 62.4375 64.6172C62.2812 64.3203 61.9453 64.1719 61.4297 64.1719C60.8828 64.1719 60.4714 64.3854 60.1953 64.8125C59.9193 65.2344 59.7812 66.1146 59.7812 67.4531V70.5312C59.7812 70.8438 59.625 71 59.3125 71H58.0625ZM66.5312 66.8984C66.5312 65.7526 66.7786 64.7578 67.2734 63.9141C67.7734 63.0651 68.6354 62.6406 69.8594 62.6406C70.3281 62.6406 70.7292 62.7083 71.0625 62.8438C71.3958 62.9792 71.6979 63.2708 71.9688 63.7188H72C71.9792 63.5104 71.9688 63.3021 71.9688 63.0938V59.9375C71.9688 59.625 72.125 59.4688 72.4375 59.4688H73.6875C74 59.4688 74.1562 59.625 74.1562 59.9375V70.5312C74.1562 70.8438 74 71 73.6875 71H72.4531C72.1927 71 72.0521 70.8438 72.0312 70.5312L72 70.0781H71.9688C71.6979 70.526 71.3958 70.8177 71.0625 70.9531C70.7292 71.0885 70.3281 71.1562 69.8594 71.1562C68.6354 71.1562 67.7734 70.7344 67.2734 69.8906C66.7786 69.0417 66.5312 68.0443 66.5312 66.8984ZM68.8438 66.8984C68.8438 67.7318 68.9505 68.3958 69.1641 68.8906C69.3828 69.3802 69.8438 69.625 70.5469 69.625C70.9375 69.625 71.2708 69.4062 71.5469 68.9688C71.8281 68.526 71.9688 67.9531 71.9688 67.25V66.5469C71.9688 65.8438 71.8281 65.2734 71.5469 64.8359C71.2708 64.3932 70.9375 64.1719 70.5469 64.1719C69.8438 64.1719 69.3828 64.4193 69.1641 64.9141C68.9505 65.4036 68.8438 66.0651 68.8438 66.8984ZM75.8438 68.8125C75.8438 67.7708 76.3411 67.0156 77.3359 66.5469C78.3307 66.0781 79.4661 65.8281 80.7422 65.7969V65.4844C80.7422 65.0052 80.6224 64.6667 80.3828 64.4688C80.1432 64.2708 79.8099 64.1719 79.3828 64.1719C79.0807 64.1719 78.8125 64.2161 78.5781 64.3047C78.349 64.388 78.1484 64.487 77.9766 64.6016C77.8099 64.7109 77.6589 64.8229 77.5234 64.9375C77.2839 65.1458 77.0859 65.1562 76.9297 64.9688L76.2812 64.1719C76.1198 63.974 76.1589 63.7708 76.3984 63.5625C76.5807 63.401 76.7917 63.2604 77.0312 63.1406C77.276 63.0208 77.599 62.9089 78 62.8047C78.401 62.6953 78.9219 62.6406 79.5625 62.6406C80.6458 62.6406 81.4766 62.8906 82.0547 63.3906C82.638 63.8906 82.9297 64.6276 82.9297 65.6016V70.5312C82.9297 70.8438 82.7734 71 82.4609 71H81.1797C80.8984 71 80.7578 70.8438 80.7578 70.5312V70.2969H80.7422C80.4349 70.5938 80.0651 70.8125 79.6328 70.9531C79.2057 71.0885 78.8125 71.1562 78.4531 71.1562C77.599 71.1562 76.9505 70.9479 76.5078 70.5312C76.0651 70.1094 75.8438 69.5365 75.8438 68.8125ZM78.1562 68.7656C78.1562 68.9479 78.1927 69.1068 78.2656 69.2422C78.3385 69.3724 78.4531 69.4688 78.6094 69.5312C78.7656 69.5938 78.9401 69.625 79.1328 69.625C79.3984 69.625 79.6562 69.5885 79.9062 69.5156C80.1562 69.4427 80.4349 69.2708 80.7422 69V67.3047C79.8672 67.4036 79.2812 67.5312 78.9844 67.6875C78.6875 67.8438 78.474 68.0052 78.3438 68.1719C78.2188 68.3385 78.1562 68.5365 78.1562 68.7656ZM85.5312 71C85.2188 71 85.0625 70.8438 85.0625 70.5312V63.2656C85.0625 62.9531 85.2188 62.7969 85.5312 62.7969H86.7656C87.0781 62.7969 87.2344 62.9531 87.2344 63.2656V63.7188H87.2656C87.5052 63.3073 87.8099 63.026 88.1797 62.875C88.5495 62.7188 88.9948 62.6406 89.5156 62.6406C90.3281 62.6406 91 62.8958 91.5312 63.4062C92.0625 63.9167 92.3281 64.849 92.3281 66.2031V70.5312C92.3281 70.8438 92.1719 71 91.8594 71H90.6094C90.2969 71 90.1406 70.8438 90.1406 70.5312V66.7656C90.1406 65.6302 90.0625 64.9141 89.9062 64.6172C89.75 64.3203 89.4141 64.1719 88.8984 64.1719C88.3516 64.1719 87.9401 64.3854 87.6641 64.8125C87.388 65.2344 87.25 66.1146 87.25 67.4531V70.5312C87.25 70.8438 87.0938 71 86.7812 71H85.5312ZM94 66.8984C94 65.5703 94.3333 64.5286 95 63.7734C95.6667 63.0182 96.6901 62.6406 98.0703 62.6406C98.8776 62.6406 99.5052 62.7474 99.9531 62.9609C100.401 63.1745 100.76 63.487 101.031 63.8984C101.193 64.1432 101.167 64.3359 100.953 64.4766L100.125 65.0234C99.8906 65.1797 99.6849 65.1198 99.5078 64.8438C99.4193 64.7083 99.25 64.5625 99 64.4062C98.75 64.25 98.4401 64.1719 98.0703 64.1719C97.4818 64.1719 97.0417 64.3802 96.75 64.7969C96.4583 65.2083 96.3125 65.9089 96.3125 66.8984C96.3125 67.888 96.4583 68.5911 96.75 69.0078C97.0417 69.4193 97.4818 69.625 98.0703 69.625C98.4922 69.625 98.8333 69.5365 99.0938 69.3594C99.3542 69.1823 99.599 68.9531 99.8281 68.6719C100.026 68.4323 100.234 68.3984 100.453 68.5703L101.18 69.1406C101.398 69.3125 101.411 69.5417 101.219 69.8281C101.016 70.1302 100.669 70.4271 100.18 70.7188C99.6953 71.0104 98.9922 71.1562 98.0703 71.1562C96.6901 71.1562 95.6667 70.7786 95 70.0234C94.3333 69.2682 94 68.2266 94 66.8984ZM102.484 66.8984C102.484 65.5807 102.812 64.5417 103.469 63.7812C104.13 63.0208 105.062 62.6406 106.266 62.6406C107.661 62.6406 108.698 63 109.375 63.7188C110.052 64.4375 110.391 65.5938 110.391 67.1875C110.391 67.5 110.245 67.6562 109.953 67.6562H104.797C104.88 68.5208 105.094 69.0651 105.438 69.2891C105.781 69.513 106.18 69.625 106.633 69.625C107.065 69.625 107.396 69.5677 107.625 69.4531C107.854 69.3385 108.047 69.1823 108.203 68.9844C108.38 68.7552 108.599 68.7188 108.859 68.875L109.641 69.3516C109.948 69.5391 109.992 69.763 109.773 70.0234C109.456 70.4036 109.083 70.6875 108.656 70.875C108.229 71.0625 107.555 71.1562 106.633 71.1562C105.138 71.1562 104.073 70.776 103.438 70.0156C102.802 69.2552 102.484 68.2161 102.484 66.8984ZM104.805 66.0938H108.203C108.203 65.5312 108.062 65.0729 107.781 64.7188C107.5 64.3594 107.052 64.1797 106.438 64.1797C105.948 64.1797 105.56 64.3516 105.273 64.6953C104.987 65.0339 104.831 65.5 104.805 66.0938ZM117.352 61.7969C116.961 61.7969 116.766 61.6276 116.766 61.2891V60.3047C116.766 59.9661 116.961 59.7969 117.352 59.7969H125.383C125.773 59.7969 125.969 59.9661 125.969 60.3047V61.2891C125.969 61.6276 125.773 61.7969 125.383 61.7969H122.508V70.5703C122.508 70.8568 122.378 71 122.117 71H120.617C120.357 71 120.227 70.8568 120.227 70.5703V61.7969H117.352ZM125.281 71C124.969 71 124.812 70.8438 124.812 70.5312V63.2656C124.812 62.9531 124.969 62.7969 125.281 62.7969H126.516C126.828 62.7969 126.984 62.9531 126.984 63.2656V63.9062H127.016C127.151 63.5729 127.378 63.2786 127.695 63.0234C128.013 62.7682 128.388 62.6406 128.82 62.6406C129.117 62.6406 129.362 62.6771 129.555 62.75C129.737 62.8177 129.807 62.9427 129.766 63.125L129.547 64.0547C129.5 64.263 129.359 64.3255 129.125 64.2422C128.99 64.1953 128.859 64.1719 128.734 64.1719C128.234 64.1719 127.82 64.4714 127.492 65.0703C127.164 65.6693 127 66.5417 127 67.6875V70.5312C127 70.8438 126.844 71 126.531 71H125.281ZM130.516 68.8125C130.516 67.7708 131.013 67.0156 132.008 66.5469C133.003 66.0781 134.138 65.8281 135.414 65.7969V65.4844C135.414 65.0052 135.294 64.6667 135.055 64.4688C134.815 64.2708 134.482 64.1719 134.055 64.1719C133.753 64.1719 133.484 64.2161 133.25 64.3047C133.021 64.388 132.82 64.487 132.648 64.6016C132.482 64.7109 132.331 64.8229 132.195 64.9375C131.956 65.1458 131.758 65.1562 131.602 64.9688L130.953 64.1719C130.792 63.974 130.831 63.7708 131.07 63.5625C131.253 63.401 131.464 63.2604 131.703 63.1406C131.948 63.0208 132.271 62.9089 132.672 62.8047C133.073 62.6953 133.594 62.6406 134.234 62.6406C135.318 62.6406 136.148 62.8906 136.727 63.3906C137.31 63.8906 137.602 64.6276 137.602 65.6016V70.5312C137.602 70.8438 137.445 71 137.133 71H135.852C135.57 71 135.43 70.8438 135.43 70.5312V70.2969H135.414C135.107 70.5938 134.737 70.8125 134.305 70.9531C133.878 71.0885 133.484 71.1562 133.125 71.1562C132.271 71.1562 131.622 70.9479 131.18 70.5312C130.737 70.1094 130.516 69.5365 130.516 68.8125ZM132.828 68.7656C132.828 68.9479 132.865 69.1068 132.938 69.2422C133.01 69.3724 133.125 69.4688 133.281 69.5312C133.438 69.5938 133.612 69.625 133.805 69.625C134.07 69.625 134.328 69.5885 134.578 69.5156C134.828 69.4427 135.107 69.2708 135.414 69V67.3047C134.539 67.4036 133.953 67.5312 133.656 67.6875C133.359 67.8438 133.146 68.0052 133.016 68.1719C132.891 68.3385 132.828 68.5365 132.828 68.7656ZM139.297 66.8984C139.297 65.5703 139.63 64.5286 140.297 63.7734C140.964 63.0182 141.987 62.6406 143.367 62.6406C144.174 62.6406 144.802 62.7474 145.25 62.9609C145.698 63.1745 146.057 63.487 146.328 63.8984C146.49 64.1432 146.464 64.3359 146.25 64.4766L145.422 65.0234C145.188 65.1797 144.982 65.1198 144.805 64.8438C144.716 64.7083 144.547 64.5625 144.297 64.4062C144.047 64.25 143.737 64.1719 143.367 64.1719C142.779 64.1719 142.339 64.3802 142.047 64.7969C141.755 65.2083 141.609 65.9089 141.609 66.8984C141.609 67.888 141.755 68.5911 142.047 69.0078C142.339 69.4193 142.779 69.625 143.367 69.625C143.789 69.625 144.13 69.5365 144.391 69.3594C144.651 69.1823 144.896 68.9531 145.125 68.6719C145.323 68.4323 145.531 68.3984 145.75 68.5703L146.477 69.1406C146.695 69.3125 146.708 69.5417 146.516 69.8281C146.312 70.1302 145.966 70.4271 145.477 70.7188C144.992 71.0104 144.289 71.1562 143.367 71.1562C141.987 71.1562 140.964 70.7786 140.297 70.0234C139.63 69.2682 139.297 68.2266 139.297 66.8984ZM148.688 71C148.375 71 148.219 70.8438 148.219 70.5312V59.9375C148.219 59.625 148.375 59.4688 148.688 59.4688H149.938C150.25 59.4688 150.406 59.625 150.406 59.9375V65.6797C150.406 65.888 150.396 66.0964 150.375 66.3047H150.406L152.883 63.1172C153.049 62.9036 153.253 62.7969 153.492 62.7969H154.773C155.253 62.7969 155.333 62.9896 155.016 63.375L152.656 66.2266L155.391 70.4219C155.641 70.8073 155.56 71 155.148 71H153.812C153.552 71 153.339 70.8646 153.172 70.5938L151.398 67.7422L150.406 68.9375V70.5312C150.406 70.8438 150.25 71 149.938 71H148.688ZM156.5 66.8984C156.5 65.5807 156.828 64.5417 157.484 63.7812C158.146 63.0208 159.078 62.6406 160.281 62.6406C161.677 62.6406 162.714 63 163.391 63.7188C164.068 64.4375 164.406 65.5938 164.406 67.1875C164.406 67.5 164.26 67.6562 163.969 67.6562H158.812C158.896 68.5208 159.109 69.0651 159.453 69.2891C159.797 69.513 160.195 69.625 160.648 69.625C161.081 69.625 161.411 69.5677 161.641 69.4531C161.87 69.3385 162.062 69.1823 162.219 68.9844C162.396 68.7552 162.615 68.7188 162.875 68.875L163.656 69.3516C163.964 69.5391 164.008 69.763 163.789 70.0234C163.471 70.4036 163.099 70.6875 162.672 70.875C162.245 71.0625 161.57 71.1562 160.648 71.1562C159.154 71.1562 158.089 70.776 157.453 70.0156C156.818 69.2552 156.5 68.2161 156.5 66.8984ZM158.82 66.0938H162.219C162.219 65.5312 162.078 65.0729 161.797 64.7188C161.516 64.3594 161.068 64.1797 160.453 64.1797C159.964 64.1797 159.576 64.3516 159.289 64.6953C159.003 65.0339 158.846 65.5 158.82 66.0938ZM166.578 71C166.266 71 166.109 70.8438 166.109 70.5312V63.2656C166.109 62.9531 166.266 62.7969 166.578 62.7969H167.812C168.125 62.7969 168.281 62.9531 168.281 63.2656V63.9062H168.312C168.448 63.5729 168.674 63.2786 168.992 63.0234C169.31 62.7682 169.685 62.6406 170.117 62.6406C170.414 62.6406 170.659 62.6771 170.852 62.75C171.034 62.8177 171.104 62.9427 171.062 63.125L170.844 64.0547C170.797 64.263 170.656 64.3255 170.422 64.2422C170.286 64.1953 170.156 64.1719 170.031 64.1719C169.531 64.1719 169.117 64.4714 168.789 65.0703C168.461 65.6693 168.297 66.5417 168.297 67.6875V70.5312C168.297 70.8438 168.141 71 167.828 71H166.578ZM24.4619 106.149C24.4619 104.914 24.7752 103.932 25.4019 103.206C26.0285 102.479 26.9326 102.115 28.1143 102.115C28.7946 102.115 29.3711 102.221 29.8438 102.432C30.3164 102.643 30.6494 102.95 30.8428 103.351C30.9717 103.616 30.9502 103.795 30.7783 103.888L30.1338 104.231C29.9082 104.353 29.722 104.285 29.5752 104.027C29.4821 103.863 29.3084 103.714 29.0542 103.582C28.8035 103.449 28.5081 103.383 28.168 103.383C27.416 103.383 26.8896 103.621 26.5889 104.097C26.2881 104.57 26.1377 105.254 26.1377 106.149C26.1377 107.044 26.2881 107.73 26.5889 108.206C26.8896 108.679 27.416 108.915 28.168 108.915C28.5726 108.915 28.9128 108.824 29.1885 108.641C29.4678 108.458 29.6611 108.285 29.7686 108.12C29.944 107.852 30.1302 107.784 30.3271 107.916L30.9717 108.346C31.1471 108.464 31.165 108.643 31.0254 108.883C30.8177 109.241 30.4614 109.547 29.9565 109.801C29.4517 110.056 28.8376 110.183 28.1143 110.183C26.9505 110.183 26.05 109.819 25.4126 109.092C24.7788 108.365 24.4619 107.384 24.4619 106.149ZM32.3359 107.658V104.683C32.3359 104.468 32.4434 104.36 32.6582 104.36H33.5176C33.7324 104.36 33.8398 104.468 33.8398 104.683V107.271C33.8398 108.052 33.8936 108.544 34.001 108.749C34.1084 108.953 34.334 109.055 34.6777 109.055C35.043 109.055 35.3205 108.91 35.5103 108.62C35.7 108.326 35.7949 107.719 35.7949 106.799V104.683C35.7949 104.468 35.9023 104.36 36.1172 104.36H36.9766C37.1914 104.36 37.2988 104.468 37.2988 104.683V109.678C37.2988 109.893 37.1914 110 36.9766 110H36.1279C35.9131 110 35.8057 109.893 35.8057 109.678V109.366H35.7842C35.6195 109.649 35.41 109.844 35.1558 109.952C34.9015 110.056 34.6007 110.107 34.2534 110.107C33.7056 110.107 33.249 109.932 32.8838 109.581C32.5186 109.23 32.3359 108.589 32.3359 107.658ZM38.647 109.624C38.4715 109.499 38.4232 109.364 38.502 109.221L38.7759 108.722C38.8726 108.543 39.0229 108.521 39.2271 108.657C39.4312 108.793 39.6711 108.894 39.9468 108.958C40.2261 109.022 40.4803 109.055 40.7095 109.055C40.8706 109.055 41.021 109.039 41.1606 109.006C41.3003 108.974 41.4185 108.911 41.5151 108.818C41.6118 108.725 41.6602 108.589 41.6602 108.41C41.6602 108.303 41.6315 108.211 41.5742 108.136C41.5169 108.061 41.4435 108.004 41.354 107.964C41.2645 107.925 41.1696 107.893 41.0693 107.868C40.9368 107.835 40.7453 107.782 40.4946 107.707C40.2476 107.631 40.0094 107.544 39.7803 107.443C39.5905 107.361 39.4043 107.246 39.2217 107.1C39.0426 106.949 38.9102 106.783 38.8242 106.6C38.7419 106.417 38.7007 106.192 38.7007 105.923C38.7007 105.562 38.8045 105.245 39.0122 104.973C39.2235 104.701 39.4956 104.513 39.8286 104.409C40.1616 104.305 40.577 104.253 41.0747 104.253C41.4113 104.253 41.7389 104.301 42.0576 104.398C42.3763 104.495 42.6037 104.586 42.7397 104.672C42.9546 104.808 43.0083 104.953 42.9009 105.107L42.5732 105.585C42.473 105.728 42.3118 105.739 42.0898 105.617C41.9215 105.524 41.755 105.449 41.5903 105.392C41.4292 105.334 41.2484 105.306 41.0479 105.306C40.9118 105.306 40.7811 105.32 40.6558 105.349C40.5304 105.377 40.423 105.431 40.3335 105.51C40.2476 105.589 40.2046 105.692 40.2046 105.821C40.2046 105.957 40.244 106.065 40.3228 106.144C40.4051 106.219 40.4982 106.274 40.6021 106.31C40.7095 106.346 40.8115 106.38 40.9082 106.412C41.1087 106.477 41.311 106.539 41.5151 106.6C41.7192 106.657 41.9269 106.727 42.1382 106.81C42.3208 106.881 42.498 106.983 42.6699 107.116C42.8418 107.248 42.9671 107.417 43.0459 107.621C43.1247 107.825 43.1641 108.057 43.1641 108.319C43.1641 108.666 43.0602 108.988 42.8525 109.286C42.6449 109.583 42.3709 109.794 42.0308 109.919C41.6906 110.045 41.2949 110.107 40.8438 110.107C40.3389 110.107 39.9092 110.072 39.5547 110C39.2002 109.928 38.8976 109.803 38.647 109.624ZM43.9751 105.435C43.7638 105.435 43.6582 105.345 43.6582 105.166V104.629C43.6582 104.45 43.7638 104.36 43.9751 104.36H44.3403V104.172C44.3403 104.011 44.3779 103.864 44.4531 103.732L44.8667 103.007C44.9455 102.871 45.0386 102.803 45.146 102.803H45.522C45.7368 102.803 45.8442 102.91 45.8442 103.125V104.36H46.7144C46.9256 104.36 47.0312 104.45 47.0312 104.629V105.166C47.0312 105.345 46.9256 105.435 46.7144 105.435H45.8442V108.099C45.8442 108.464 45.8693 108.727 45.9194 108.888C45.9731 109.046 46.1092 109.125 46.3276 109.125C46.4386 109.125 46.564 109.107 46.7036 109.071C46.8433 109.031 46.9525 108.994 47.0312 108.958C47.1566 108.901 47.2389 108.942 47.2783 109.082L47.4395 109.694C47.4717 109.816 47.4251 109.905 47.2998 109.962C47.1816 110.016 47.0187 110.064 46.811 110.107C46.6069 110.154 46.401 110.177 46.1934 110.177C45.6813 110.177 45.2445 110.072 44.8828 109.86C44.5212 109.649 44.3403 109.214 44.3403 108.555V105.435H43.9751ZM48.1484 107.18C48.1484 106.267 48.383 105.551 48.8521 105.032C49.3247 104.513 50.0265 104.253 50.9575 104.253C51.8885 104.253 52.5885 104.513 53.0576 105.032C53.5303 105.551 53.7666 106.267 53.7666 107.18C53.7666 108.093 53.5303 108.809 53.0576 109.329C52.5885 109.848 51.8885 110.107 50.9575 110.107C50.0265 110.107 49.3247 109.848 48.8521 109.329C48.383 108.809 48.1484 108.093 48.1484 107.18ZM49.7383 107.18C49.7383 107.861 49.8421 108.344 50.0498 108.63C50.2611 108.913 50.5636 109.055 50.9575 109.055C51.3514 109.055 51.6522 108.913 51.8599 108.63C52.0711 108.344 52.1768 107.861 52.1768 107.18C52.1768 106.5 52.0711 106.018 51.8599 105.735C51.6522 105.449 51.3514 105.306 50.9575 105.306C50.5636 105.306 50.2611 105.449 50.0498 105.735C49.8421 106.018 49.7383 106.5 49.7383 107.18ZM55.249 110C55.0342 110 54.9268 109.893 54.9268 109.678V104.683C54.9268 104.468 55.0342 104.36 55.249 104.36H56.0977C56.3125 104.36 56.4199 104.468 56.4199 104.683V104.994H56.4414C56.5452 104.765 56.7207 104.584 56.9678 104.452C57.2148 104.319 57.4458 104.253 57.6606 104.253C58.0903 104.253 58.4233 104.353 58.6597 104.554C58.8996 104.754 59.0643 104.978 59.1538 105.225H59.1753C59.4868 104.82 59.7679 104.557 60.0186 104.436C60.2728 104.314 60.5968 104.253 60.9907 104.253C61.5207 104.253 61.9665 104.428 62.3281 104.779C62.6934 105.13 62.876 105.771 62.876 106.702V109.678C62.876 109.893 62.7686 110 62.5537 110H61.6943C61.4795 110 61.3721 109.893 61.3721 109.678V107.089C61.3721 106.308 61.3184 105.816 61.2109 105.612C61.1071 105.408 60.9209 105.306 60.6523 105.306C60.4017 105.306 60.1725 105.452 59.9648 105.746C59.7572 106.04 59.6533 106.645 59.6533 107.562V109.678C59.6533 109.893 59.5459 110 59.3311 110H58.4717C58.2568 110 58.1494 109.893 58.1494 109.678V107.089C58.1494 106.308 58.0957 105.816 57.9883 105.612C57.8844 105.408 57.6982 105.306 57.4297 105.306C57.179 105.306 56.9499 105.452 56.7422 105.746C56.5345 106.036 56.4307 106.641 56.4307 107.562V109.678C56.4307 109.893 56.3232 110 56.1084 110H55.249ZM67.9731 110C67.7153 110 67.6312 109.882 67.7207 109.646L70.3525 102.733C70.4635 102.443 70.6318 102.298 70.8574 102.298H71.6094C71.835 102.298 72.0033 102.443 72.1143 102.733L74.7461 109.646C74.8356 109.882 74.7515 110 74.4937 110H73.6396C73.4033 110 73.2386 109.876 73.1455 109.629L72.5977 108.185H69.8691L69.3213 109.629C69.2282 109.876 69.0635 110 68.8271 110H67.9731ZM70.3687 106.853H72.0981L71.4375 105.145C71.3587 104.944 71.3104 104.799 71.2925 104.709C71.2782 104.616 71.262 104.48 71.2441 104.301H71.2227C71.2048 104.48 71.1868 104.616 71.1689 104.709C71.1546 104.799 71.1081 104.944 71.0293 105.145L70.3687 106.853ZM75.3853 105.435C75.174 105.435 75.0684 105.345 75.0684 105.166V104.629C75.0684 104.45 75.174 104.36 75.3853 104.36H75.7505V104.172C75.7505 104.011 75.7881 103.864 75.8633 103.732L76.2769 103.007C76.3556 102.871 76.4487 102.803 76.5562 102.803H76.9321C77.147 102.803 77.2544 102.91 77.2544 103.125V104.36H78.1245C78.3358 104.36 78.4414 104.45 78.4414 104.629V105.166C78.4414 105.345 78.3358 105.435 78.1245 105.435H77.2544V108.099C77.2544 108.464 77.2795 108.727 77.3296 108.888C77.3833 109.046 77.5194 109.125 77.7378 109.125C77.8488 109.125 77.9741 109.107 78.1138 109.071C78.2534 109.031 78.3626 108.994 78.4414 108.958C78.5667 108.901 78.6491 108.942 78.6885 109.082L78.8496 109.694C78.8818 109.816 78.8353 109.905 78.71 109.962C78.5918 110.016 78.4289 110.064 78.2212 110.107C78.0171 110.154 77.8112 110.177 77.6035 110.177C77.0915 110.177 76.6546 110.072 76.293 109.86C75.9313 109.649 75.7505 109.214 75.7505 108.555V105.435H75.3853ZM79.6714 105.435C79.4601 105.435 79.3545 105.345 79.3545 105.166V104.629C79.3545 104.45 79.4601 104.36 79.6714 104.36H80.0366V104.172C80.0366 104.011 80.0742 103.864 80.1494 103.732L80.563 103.007C80.6418 102.871 80.7349 102.803 80.8423 102.803H81.2183C81.4331 102.803 81.5405 102.91 81.5405 103.125V104.36H82.4106C82.6219 104.36 82.7275 104.45 82.7275 104.629V105.166C82.7275 105.345 82.6219 105.435 82.4106 105.435H81.5405V108.099C81.5405 108.464 81.5656 108.727 81.6157 108.888C81.6694 109.046 81.8055 109.125 82.0239 109.125C82.1349 109.125 82.2603 109.107 82.3999 109.071C82.5396 109.031 82.6488 108.994 82.7275 108.958C82.8529 108.901 82.9352 108.942 82.9746 109.082L83.1357 109.694C83.168 109.816 83.1214 109.905 82.9961 109.962C82.8779 110.016 82.715 110.064 82.5073 110.107C82.3032 110.154 82.0973 110.177 81.8896 110.177C81.3776 110.177 80.9408 110.072 80.5791 109.86C80.2174 109.649 80.0366 109.214 80.0366 108.555V105.435H79.6714ZM83.8447 107.18C83.8447 106.274 84.0703 105.56 84.5215 105.037C84.9762 104.514 85.6172 104.253 86.4443 104.253C87.404 104.253 88.1165 104.5 88.582 104.994C89.0475 105.488 89.2803 106.283 89.2803 107.379C89.2803 107.594 89.18 107.701 88.9795 107.701H85.4346C85.4919 108.296 85.6387 108.67 85.875 108.824C86.1113 108.978 86.3853 109.055 86.6968 109.055C86.994 109.055 87.2214 109.015 87.3789 108.937C87.5365 108.858 87.6689 108.75 87.7764 108.614C87.8981 108.457 88.0485 108.432 88.2275 108.539L88.7646 108.867C88.9759 108.996 89.0063 109.15 88.856 109.329C88.6375 109.59 88.3815 109.785 88.0879 109.914C87.7943 110.043 87.3306 110.107 86.6968 110.107C85.6691 110.107 84.9368 109.846 84.5 109.323C84.0632 108.8 83.8447 108.086 83.8447 107.18ZM85.4399 106.627H87.7764C87.7764 106.24 87.6797 105.925 87.4863 105.682C87.293 105.435 86.985 105.311 86.5625 105.311C86.2259 105.311 85.9591 105.429 85.7622 105.666C85.5653 105.898 85.4578 106.219 85.4399 106.627ZM90.7734 110C90.5586 110 90.4512 109.893 90.4512 109.678V104.683C90.4512 104.468 90.5586 104.36 90.7734 104.36H91.6221C91.8369 104.36 91.9443 104.468 91.9443 104.683V104.994H91.9658C92.1305 104.711 92.34 104.518 92.5942 104.414C92.8485 104.307 93.1546 104.253 93.5127 104.253C94.0713 104.253 94.5332 104.428 94.8984 104.779C95.2637 105.13 95.4463 105.771 95.4463 106.702V109.678C95.4463 109.893 95.3389 110 95.124 110H94.2646C94.0498 110 93.9424 109.893 93.9424 109.678V107.089C93.9424 106.308 93.8887 105.816 93.7812 105.612C93.6738 105.408 93.4429 105.306 93.0884 105.306C92.7124 105.306 92.4295 105.452 92.2397 105.746C92.05 106.036 91.9551 106.641 91.9551 107.562V109.678C91.9551 109.893 91.8477 110 91.6328 110H90.7734ZM96.5957 107.18C96.5957 106.392 96.7658 105.708 97.106 105.128C97.4497 104.545 98.0423 104.253 98.8838 104.253C99.2061 104.253 99.4818 104.299 99.7109 104.393C99.9401 104.486 100.148 104.686 100.334 104.994H100.355C100.341 104.851 100.334 104.708 100.334 104.564V102.395C100.334 102.18 100.441 102.072 100.656 102.072H101.516C101.73 102.072 101.838 102.18 101.838 102.395V109.678C101.838 109.893 101.73 110 101.516 110H100.667C100.488 110 100.391 109.893 100.377 109.678L100.355 109.366H100.334C100.148 109.674 99.9401 109.875 99.7109 109.968C99.4818 110.061 99.2061 110.107 98.8838 110.107C98.0423 110.107 97.4497 109.817 97.106 109.237C96.7658 108.654 96.5957 107.968 96.5957 107.18ZM98.1855 107.18C98.1855 107.753 98.259 108.21 98.4058 108.55C98.5562 108.886 98.873 109.055 99.3564 109.055C99.625 109.055 99.8542 108.904 100.044 108.604C100.237 108.299 100.334 107.905 100.334 107.422V106.938C100.334 106.455 100.237 106.063 100.044 105.762C99.8542 105.458 99.625 105.306 99.3564 105.306C98.873 105.306 98.5562 105.476 98.4058 105.816C98.259 106.153 98.1855 106.607 98.1855 107.18ZM102.998 108.496C102.998 107.78 103.34 107.261 104.024 106.938C104.708 106.616 105.488 106.444 106.366 106.423V106.208C106.366 105.879 106.283 105.646 106.119 105.51C105.954 105.374 105.725 105.306 105.431 105.306C105.223 105.306 105.039 105.336 104.878 105.397C104.72 105.454 104.583 105.522 104.464 105.601C104.35 105.676 104.246 105.753 104.153 105.832C103.988 105.975 103.852 105.982 103.745 105.854L103.299 105.306C103.188 105.17 103.215 105.03 103.379 104.887C103.505 104.776 103.65 104.679 103.814 104.597C103.983 104.514 104.205 104.437 104.48 104.366C104.756 104.291 105.114 104.253 105.555 104.253C106.299 104.253 106.871 104.425 107.268 104.769C107.669 105.112 107.87 105.619 107.87 106.289V109.678C107.87 109.893 107.762 110 107.547 110H106.667C106.473 110 106.376 109.893 106.376 109.678V109.517H106.366C106.154 109.721 105.9 109.871 105.603 109.968C105.309 110.061 105.039 110.107 104.792 110.107C104.205 110.107 103.759 109.964 103.455 109.678C103.15 109.388 102.998 108.994 102.998 108.496ZM104.588 108.464C104.588 108.589 104.613 108.698 104.663 108.792C104.713 108.881 104.792 108.947 104.899 108.99C105.007 109.033 105.127 109.055 105.259 109.055C105.442 109.055 105.619 109.03 105.791 108.979C105.963 108.929 106.154 108.811 106.366 108.625V107.459C105.764 107.528 105.361 107.615 105.157 107.723C104.953 107.83 104.806 107.941 104.717 108.056C104.631 108.17 104.588 108.306 104.588 108.464ZM109.658 110C109.443 110 109.336 109.893 109.336 109.678V104.683C109.336 104.468 109.443 104.36 109.658 104.36H110.507C110.722 104.36 110.829 104.468 110.829 104.683V104.994H110.851C111.015 104.711 111.225 104.518 111.479 104.414C111.733 104.307 112.039 104.253 112.397 104.253C112.956 104.253 113.418 104.428 113.783 104.779C114.148 105.13 114.331 105.771 114.331 106.702V109.678C114.331 109.893 114.224 110 114.009 110H113.149C112.935 110 112.827 109.893 112.827 109.678V107.089C112.827 106.308 112.773 105.816 112.666 105.612C112.559 105.408 112.328 105.306 111.973 105.306C111.597 105.306 111.314 105.452 111.125 105.746C110.935 106.036 110.84 106.641 110.84 107.562V109.678C110.84 109.893 110.732 110 110.518 110H109.658ZM115.48 107.18C115.48 106.267 115.71 105.551 116.168 105.032C116.626 104.513 117.33 104.253 118.279 104.253C118.834 104.253 119.265 104.326 119.573 104.473C119.881 104.62 120.128 104.835 120.314 105.118C120.425 105.286 120.408 105.418 120.261 105.515L119.691 105.891C119.53 105.999 119.389 105.957 119.267 105.768C119.206 105.674 119.09 105.574 118.918 105.467C118.746 105.359 118.533 105.306 118.279 105.306C117.874 105.306 117.572 105.449 117.371 105.735C117.171 106.018 117.07 106.5 117.07 107.18C117.07 107.861 117.171 108.344 117.371 108.63C117.572 108.913 117.874 109.055 118.279 109.055C118.569 109.055 118.803 108.994 118.982 108.872C119.161 108.75 119.33 108.593 119.487 108.399C119.623 108.235 119.767 108.211 119.917 108.33L120.417 108.722C120.567 108.84 120.576 108.997 120.443 109.194C120.304 109.402 120.066 109.606 119.729 109.807C119.396 110.007 118.913 110.107 118.279 110.107C117.33 110.107 116.626 109.848 116.168 109.329C115.71 108.809 115.48 108.093 115.48 107.18ZM121.313 107.18C121.313 106.274 121.539 105.56 121.99 105.037C122.445 104.514 123.086 104.253 123.913 104.253C124.873 104.253 125.585 104.5 126.051 104.994C126.516 105.488 126.749 106.283 126.749 107.379C126.749 107.594 126.649 107.701 126.448 107.701H122.903C122.961 108.296 123.107 108.67 123.344 108.824C123.58 108.978 123.854 109.055 124.166 109.055C124.463 109.055 124.69 109.015 124.848 108.937C125.005 108.858 125.138 108.75 125.245 108.614C125.367 108.457 125.517 108.432 125.696 108.539L126.233 108.867C126.445 108.996 126.475 109.15 126.325 109.329C126.106 109.59 125.85 109.785 125.557 109.914C125.263 110.043 124.799 110.107 124.166 110.107C123.138 110.107 122.406 109.846 121.969 109.323C121.532 108.8 121.313 108.086 121.313 107.18ZM122.909 106.627H125.245C125.245 106.24 125.148 105.925 124.955 105.682C124.762 105.435 124.454 105.311 124.031 105.311C123.695 105.311 123.428 105.429 123.231 105.666C123.034 105.898 122.927 106.219 122.909 106.627ZM131.535 103.673C131.266 103.673 131.132 103.556 131.132 103.324V102.647C131.132 102.414 131.266 102.298 131.535 102.298H137.056C137.325 102.298 137.459 102.414 137.459 102.647V103.324C137.459 103.556 137.325 103.673 137.056 103.673H135.08V109.705C135.08 109.902 134.99 110 134.811 110H133.78C133.601 110 133.511 109.902 133.511 109.705V103.673H131.535ZM136.986 110C136.771 110 136.664 109.893 136.664 109.678V104.683C136.664 104.468 136.771 104.36 136.986 104.36H137.835C138.05 104.36 138.157 104.468 138.157 104.683V105.123H138.179C138.272 104.894 138.428 104.692 138.646 104.516C138.864 104.341 139.122 104.253 139.419 104.253C139.624 104.253 139.792 104.278 139.924 104.328C140.05 104.375 140.098 104.461 140.069 104.586L139.919 105.225C139.887 105.368 139.79 105.411 139.629 105.354C139.536 105.322 139.446 105.306 139.36 105.306C139.017 105.306 138.732 105.512 138.506 105.923C138.281 106.335 138.168 106.935 138.168 107.723V109.678C138.168 109.893 138.061 110 137.846 110H136.986ZM140.585 108.496C140.585 107.78 140.927 107.261 141.611 106.938C142.295 106.616 143.075 106.444 143.953 106.423V106.208C143.953 105.879 143.87 105.646 143.706 105.51C143.541 105.374 143.312 105.306 143.018 105.306C142.81 105.306 142.626 105.336 142.465 105.397C142.307 105.454 142.169 105.522 142.051 105.601C141.937 105.676 141.833 105.753 141.74 105.832C141.575 105.975 141.439 105.982 141.332 105.854L140.886 105.306C140.775 105.17 140.802 105.03 140.966 104.887C141.092 104.776 141.237 104.679 141.401 104.597C141.57 104.514 141.792 104.437 142.067 104.366C142.343 104.291 142.701 104.253 143.142 104.253C143.886 104.253 144.458 104.425 144.855 104.769C145.256 105.112 145.457 105.619 145.457 106.289V109.678C145.457 109.893 145.349 110 145.134 110H144.253C144.06 110 143.963 109.893 143.963 109.678V109.517H143.953C143.741 109.721 143.487 109.871 143.19 109.968C142.896 110.061 142.626 110.107 142.379 110.107C141.792 110.107 141.346 109.964 141.042 109.678C140.737 109.388 140.585 108.994 140.585 108.496ZM142.175 108.464C142.175 108.589 142.2 108.698 142.25 108.792C142.3 108.881 142.379 108.947 142.486 108.99C142.594 109.033 142.714 109.055 142.846 109.055C143.029 109.055 143.206 109.03 143.378 108.979C143.55 108.929 143.741 108.811 143.953 108.625V107.459C143.351 107.528 142.948 107.615 142.744 107.723C142.54 107.83 142.393 107.941 142.304 108.056C142.218 108.17 142.175 108.306 142.175 108.464ZM146.622 107.18C146.622 106.267 146.851 105.551 147.31 105.032C147.768 104.513 148.472 104.253 149.42 104.253C149.975 104.253 150.407 104.326 150.715 104.473C151.023 104.62 151.27 104.835 151.456 105.118C151.567 105.286 151.549 105.418 151.402 105.515L150.833 105.891C150.672 105.999 150.53 105.957 150.409 105.768C150.348 105.674 150.231 105.574 150.06 105.467C149.888 105.359 149.675 105.306 149.42 105.306C149.016 105.306 148.713 105.449 148.513 105.735C148.312 106.018 148.212 106.5 148.212 107.18C148.212 107.861 148.312 108.344 148.513 108.63C148.713 108.913 149.016 109.055 149.42 109.055C149.71 109.055 149.945 108.994 150.124 108.872C150.303 108.75 150.471 108.593 150.629 108.399C150.765 108.235 150.908 108.211 151.059 108.33L151.558 108.722C151.708 108.84 151.717 108.997 151.585 109.194C151.445 109.402 151.207 109.606 150.871 109.807C150.538 110.007 150.054 110.107 149.42 110.107C148.472 110.107 147.768 109.848 147.31 109.329C146.851 108.809 146.622 108.093 146.622 107.18ZM153.078 110C152.863 110 152.756 109.893 152.756 109.678V102.395C152.756 102.18 152.863 102.072 153.078 102.072H153.938C154.152 102.072 154.26 102.18 154.26 102.395V106.342C154.26 106.486 154.253 106.629 154.238 106.772H154.26L155.962 104.581C156.077 104.434 156.217 104.36 156.381 104.36H157.262C157.592 104.36 157.647 104.493 157.429 104.758L155.807 106.718L157.687 109.603C157.858 109.868 157.803 110 157.52 110H156.602C156.423 110 156.276 109.907 156.161 109.721L154.942 107.76L154.26 108.582V109.678C154.26 109.893 154.152 110 153.938 110H153.078ZM158.449 107.18C158.449 106.274 158.675 105.56 159.126 105.037C159.581 104.514 160.222 104.253 161.049 104.253C162.008 104.253 162.721 104.5 163.187 104.994C163.652 105.488 163.885 106.283 163.885 107.379C163.885 107.594 163.785 107.701 163.584 107.701H160.039C160.096 108.296 160.243 108.67 160.479 108.824C160.716 108.978 160.99 109.055 161.301 109.055C161.598 109.055 161.826 109.015 161.983 108.937C162.141 108.858 162.273 108.75 162.381 108.614C162.503 108.457 162.653 108.432 162.832 108.539L163.369 108.867C163.58 108.996 163.611 109.15 163.46 109.329C163.242 109.59 162.986 109.785 162.692 109.914C162.399 110.043 161.935 110.107 161.301 110.107C160.274 110.107 159.541 109.846 159.104 109.323C158.668 108.8 158.449 108.086 158.449 107.18ZM160.044 106.627H162.381C162.381 106.24 162.284 105.925 162.091 105.682C161.897 105.435 161.59 105.311 161.167 105.311C160.83 105.311 160.564 105.429 160.367 105.666C160.17 105.898 160.062 106.219 160.044 106.627ZM165.378 110C165.163 110 165.056 109.893 165.056 109.678V104.683C165.056 104.468 165.163 104.36 165.378 104.36H166.227C166.441 104.36 166.549 104.468 166.549 104.683V105.123H166.57C166.663 104.894 166.819 104.692 167.038 104.516C167.256 104.341 167.514 104.253 167.811 104.253C168.015 104.253 168.183 104.278 168.316 104.328C168.441 104.375 168.49 104.461 168.461 104.586L168.311 105.225C168.278 105.368 168.182 105.411 168.021 105.354C167.927 105.322 167.838 105.306 167.752 105.306C167.408 105.306 167.124 105.512 166.898 105.923C166.672 106.335 166.56 106.935 166.56 107.723V109.678C166.56 109.893 166.452 110 166.237 110H165.378ZM172.849 105.435C172.638 105.435 172.532 105.345 172.532 105.166V104.629C172.532 104.45 172.638 104.36 172.849 104.36H173.214V104.172C173.214 104.011 173.252 103.864 173.327 103.732L173.741 103.007C173.819 102.871 173.913 102.803 174.02 102.803H174.396C174.611 102.803 174.718 102.91 174.718 103.125V104.36H175.588C175.8 104.36 175.905 104.45 175.905 104.629V105.166C175.905 105.345 175.8 105.435 175.588 105.435H174.718V108.099C174.718 108.464 174.743 108.727 174.793 108.888C174.847 109.046 174.983 109.125 175.202 109.125C175.313 109.125 175.438 109.107 175.578 109.071C175.717 109.031 175.826 108.994 175.905 108.958C176.031 108.901 176.113 108.942 176.152 109.082L176.313 109.694C176.346 109.816 176.299 109.905 176.174 109.962C176.056 110.016 175.893 110.064 175.685 110.107C175.481 110.154 175.275 110.177 175.067 110.177C174.555 110.177 174.118 110.072 173.757 109.86C173.395 109.649 173.214 109.214 173.214 108.555V105.435H172.849ZM177.022 107.18C177.022 106.267 177.257 105.551 177.726 105.032C178.199 104.513 178.901 104.253 179.832 104.253C180.763 104.253 181.463 104.513 181.932 105.032C182.404 105.551 182.641 106.267 182.641 107.18C182.641 108.093 182.404 108.809 181.932 109.329C181.463 109.848 180.763 110.107 179.832 110.107C178.901 110.107 178.199 109.848 177.726 109.329C177.257 108.809 177.022 108.093 177.022 107.18ZM178.612 107.18C178.612 107.861 178.716 108.344 178.924 108.63C179.135 108.913 179.438 109.055 179.832 109.055C180.225 109.055 180.526 108.913 180.734 108.63C180.945 108.344 181.051 107.861 181.051 107.18C181.051 106.5 180.945 106.018 180.734 105.735C180.526 105.449 180.225 105.306 179.832 105.306C179.438 105.306 179.135 105.449 178.924 105.735C178.716 106.018 178.612 106.5 178.612 107.18ZM187.883 110C187.668 110 187.561 109.893 187.561 109.678V102.395C187.561 102.18 187.668 102.072 187.883 102.072H188.742C188.957 102.072 189.064 102.18 189.064 102.395V106.342C189.064 106.486 189.057 106.629 189.043 106.772H189.064L190.767 104.581C190.882 104.434 191.021 104.36 191.186 104.36H192.067C192.396 104.36 192.452 104.493 192.233 104.758L190.611 106.718L192.491 109.603C192.663 109.868 192.608 110 192.325 110H191.406C191.227 110 191.08 109.907 190.966 109.721L189.747 107.76L189.064 108.582V109.678C189.064 109.893 188.957 110 188.742 110H187.883ZM193.254 107.18C193.254 106.274 193.479 105.56 193.931 105.037C194.385 104.514 195.026 104.253 195.854 104.253C196.813 104.253 197.526 104.5 197.991 104.994C198.457 105.488 198.689 106.283 198.689 107.379C198.689 107.594 198.589 107.701 198.389 107.701H194.844C194.901 108.296 195.048 108.67 195.284 108.824C195.521 108.978 195.794 109.055 196.106 109.055C196.403 109.055 196.631 109.015 196.788 108.937C196.946 108.858 197.078 108.75 197.186 108.614C197.307 108.457 197.458 108.432 197.637 108.539L198.174 108.867C198.385 108.996 198.416 109.15 198.265 109.329C198.047 109.59 197.791 109.785 197.497 109.914C197.203 110.043 196.74 110.107 196.106 110.107C195.078 110.107 194.346 109.846 193.909 109.323C193.472 108.8 193.254 108.086 193.254 107.18ZM194.849 106.627H197.186C197.186 106.24 197.089 105.925 196.896 105.682C196.702 105.435 196.394 105.311 195.972 105.311C195.635 105.311 195.368 105.429 195.171 105.666C194.974 105.898 194.867 106.219 194.849 106.627ZM199.56 107.18C199.56 106.274 199.785 105.56 200.236 105.037C200.691 104.514 201.332 104.253 202.159 104.253C203.119 104.253 203.831 104.5 204.297 104.994C204.762 105.488 204.995 106.283 204.995 107.379C204.995 107.594 204.895 107.701 204.694 107.701H201.149C201.207 108.296 201.354 108.67 201.59 108.824C201.826 108.978 202.1 109.055 202.412 109.055C202.709 109.055 202.936 109.015 203.094 108.937C203.251 108.858 203.384 108.75 203.491 108.614C203.613 108.457 203.763 108.432 203.942 108.539L204.479 108.867C204.691 108.996 204.721 109.15 204.571 109.329C204.352 109.59 204.096 109.785 203.803 109.914C203.509 110.043 203.045 110.107 202.412 110.107C201.384 110.107 200.652 109.846 200.215 109.323C199.778 108.8 199.56 108.086 199.56 107.18ZM201.155 106.627H203.491C203.491 106.24 203.395 105.925 203.201 105.682C203.008 105.435 202.7 105.311 202.277 105.311C201.941 105.311 201.674 105.429 201.477 105.666C201.28 105.898 201.173 106.219 201.155 106.627ZM206.488 112.148C206.273 112.148 206.166 112.041 206.166 111.826V104.683C206.166 104.468 206.273 104.36 206.488 104.36H207.337C207.516 104.36 207.613 104.468 207.627 104.683L207.648 104.994H207.67C207.856 104.686 208.064 104.486 208.293 104.393C208.522 104.299 208.798 104.253 209.12 104.253C209.962 104.253 210.552 104.545 210.893 105.128C211.236 105.708 211.408 106.392 211.408 107.18C211.408 107.968 211.236 108.654 210.893 109.237C210.552 109.817 209.962 110.107 209.12 110.107C208.798 110.107 208.522 110.061 208.293 109.968C208.064 109.875 207.856 109.674 207.67 109.366H207.648C207.663 109.509 207.67 109.653 207.67 109.796V111.826C207.67 112.041 207.562 112.148 207.348 112.148H206.488ZM207.67 107.422C207.67 107.905 207.765 108.299 207.955 108.604C208.148 108.904 208.379 109.055 208.647 109.055C209.131 109.055 209.446 108.886 209.593 108.55C209.743 108.21 209.818 107.753 209.818 107.18C209.818 106.607 209.743 106.153 209.593 105.816C209.446 105.476 209.131 105.306 208.647 105.306C208.379 105.306 208.148 105.458 207.955 105.762C207.765 106.063 207.67 106.455 207.67 106.938V107.422ZM24.5425 121.435C24.3312 121.435 24.2256 121.345 24.2256 121.166V120.629C24.2256 120.45 24.3312 120.36 24.5425 120.36H24.9077V120.172C24.9077 120.011 24.9453 119.864 25.0205 119.732L25.4341 119.007C25.5129 118.871 25.606 118.803 25.7134 118.803H26.0894C26.3042 118.803 26.4116 118.91 26.4116 119.125V120.36H27.2817C27.493 120.36 27.5986 120.45 27.5986 120.629V121.166C27.5986 121.345 27.493 121.435 27.2817 121.435H26.4116V124.099C26.4116 124.464 26.4367 124.727 26.4868 124.888C26.5405 125.046 26.6766 125.125 26.895 125.125C27.006 125.125 27.1313 125.107 27.271 125.071C27.4106 125.031 27.5199 124.994 27.5986 124.958C27.724 124.901 27.8063 124.942 27.8457 125.082L28.0068 125.694C28.0391 125.816 27.9925 125.905 27.8672 125.962C27.749 126.016 27.5861 126.064 27.3784 126.107C27.1743 126.154 26.9684 126.177 26.7607 126.177C26.2487 126.177 25.8118 126.072 25.4502 125.86C25.0885 125.649 24.9077 125.214 24.9077 124.555V121.435H24.5425ZM29.3389 126C29.124 126 29.0166 125.893 29.0166 125.678V118.395C29.0166 118.18 29.124 118.072 29.3389 118.072H30.1982C30.4131 118.072 30.5205 118.18 30.5205 118.395V120.564C30.5205 120.708 30.5133 120.851 30.499 120.994H30.5312C30.696 120.711 30.9054 120.518 31.1597 120.414C31.4139 120.307 31.7201 120.253 32.0781 120.253C32.6367 120.253 33.0986 120.428 33.4639 120.779C33.8291 121.13 34.0117 121.771 34.0117 122.702V125.678C34.0117 125.893 33.9043 126 33.6895 126H32.8301C32.6152 126 32.5078 125.893 32.5078 125.678V123.089C32.5078 122.308 32.4541 121.816 32.3467 121.612C32.2393 121.408 32.0083 121.306 31.6538 121.306C31.2778 121.306 30.995 121.452 30.8052 121.746C30.6154 122.036 30.5205 122.641 30.5205 123.562V125.678C30.5205 125.893 30.4131 126 30.1982 126H29.3389ZM35.1611 123.18C35.1611 122.274 35.3867 121.56 35.8379 121.037C36.2926 120.514 36.9336 120.253 37.7607 120.253C38.7204 120.253 39.4329 120.5 39.8984 120.994C40.3639 121.488 40.5967 122.283 40.5967 123.379C40.5967 123.594 40.4964 123.701 40.2959 123.701H36.751C36.8083 124.296 36.9551 124.67 37.1914 124.824C37.4277 124.978 37.7017 125.055 38.0132 125.055C38.3104 125.055 38.5378 125.015 38.6953 124.937C38.8529 124.858 38.9854 124.75 39.0928 124.614C39.2145 124.457 39.3649 124.432 39.5439 124.539L40.0811 124.867C40.2923 124.996 40.3228 125.15 40.1724 125.329C39.9539 125.59 39.6979 125.785 39.4043 125.914C39.1107 126.043 38.647 126.107 38.0132 126.107C36.9855 126.107 36.2533 125.846 35.8164 125.323C35.3796 124.8 35.1611 124.086 35.1611 123.18ZM36.7563 122.627H39.0928C39.0928 122.24 38.9961 121.925 38.8027 121.682C38.6094 121.435 38.3014 121.311 37.8789 121.311C37.5423 121.311 37.2756 121.429 37.0786 121.666C36.8817 121.898 36.7743 122.219 36.7563 122.627ZM45.8496 126C45.6348 126 45.5273 125.893 45.5273 125.678V120.683C45.5273 120.468 45.6348 120.36 45.8496 120.36H46.6982C46.9131 120.36 47.0205 120.468 47.0205 120.683V121.123H47.042C47.1351 120.894 47.2909 120.692 47.5093 120.516C47.7277 120.341 47.9855 120.253 48.2827 120.253C48.4868 120.253 48.6551 120.278 48.7876 120.328C48.9129 120.375 48.9613 120.461 48.9326 120.586L48.7822 121.225C48.75 121.368 48.6533 121.411 48.4922 121.354C48.3991 121.322 48.3096 121.306 48.2236 121.306C47.8799 121.306 47.5952 121.512 47.3696 121.923C47.144 122.335 47.0312 122.935 47.0312 123.723V125.678C47.0312 125.893 46.9238 126 46.709 126H45.8496ZM49.4482 123.18C49.4482 122.274 49.6738 121.56 50.125 121.037C50.5798 120.514 51.2207 120.253 52.0479 120.253C53.0075 120.253 53.7201 120.5 54.1855 120.994C54.651 121.488 54.8838 122.283 54.8838 123.379C54.8838 123.594 54.7835 123.701 54.583 123.701H51.0381C51.0954 124.296 51.2422 124.67 51.4785 124.824C51.7148 124.978 51.9888 125.055 52.3003 125.055C52.5975 125.055 52.8249 125.015 52.9824 124.937C53.14 124.858 53.2725 124.75 53.3799 124.614C53.5016 124.457 53.652 124.432 53.8311 124.539L54.3682 124.867C54.5794 124.996 54.6099 125.15 54.4595 125.329C54.241 125.59 53.985 125.785 53.6914 125.914C53.3978 126.043 52.9341 126.107 52.3003 126.107C51.2726 126.107 50.5404 125.846 50.1035 125.323C49.6667 124.8 49.4482 124.086 49.4482 123.18ZM51.0435 122.627H53.3799C53.3799 122.24 53.2832 121.925 53.0898 121.682C52.8965 121.435 52.5885 121.311 52.166 121.311C51.8294 121.311 51.5627 121.429 51.3657 121.666C51.1688 121.898 51.0614 122.219 51.0435 122.627ZM55.7539 123.18C55.7539 122.267 55.9831 121.551 56.4414 121.032C56.8997 120.513 57.6034 120.253 58.5522 120.253C59.1073 120.253 59.5387 120.326 59.8467 120.473C60.1546 120.62 60.4017 120.835 60.5879 121.118C60.6989 121.286 60.681 121.418 60.5342 121.515L59.9648 121.891C59.8037 121.999 59.6623 121.957 59.5405 121.768C59.4797 121.674 59.3633 121.574 59.1914 121.467C59.0195 121.359 58.8065 121.306 58.5522 121.306C58.1476 121.306 57.8451 121.449 57.6445 121.735C57.444 122.018 57.3438 122.5 57.3438 123.18C57.3438 123.861 57.444 124.344 57.6445 124.63C57.8451 124.913 58.1476 125.055 58.5522 125.055C58.8423 125.055 59.0768 124.994 59.2559 124.872C59.4349 124.75 59.6032 124.593 59.7607 124.399C59.8968 124.235 60.04 124.211 60.1904 124.33L60.6899 124.722C60.8403 124.84 60.8493 124.997 60.7168 125.194C60.5771 125.402 60.339 125.606 60.0024 125.807C59.6694 126.007 59.186 126.107 58.5522 126.107C57.6034 126.107 56.8997 125.848 56.4414 125.329C55.9831 124.809 55.7539 124.093 55.7539 123.18ZM61.5869 123.18C61.5869 122.267 61.8215 121.551 62.2905 121.032C62.7632 120.513 63.465 120.253 64.396 120.253C65.327 120.253 66.027 120.513 66.4961 121.032C66.9688 121.551 67.2051 122.267 67.2051 123.18C67.2051 124.093 66.9688 124.809 66.4961 125.329C66.027 125.848 65.327 126.107 64.396 126.107C63.465 126.107 62.7632 125.848 62.2905 125.329C61.8215 124.809 61.5869 124.093 61.5869 123.18ZM63.1768 123.18C63.1768 123.861 63.2806 124.344 63.4883 124.63C63.6995 124.913 64.0021 125.055 64.396 125.055C64.7899 125.055 65.0907 124.913 65.2983 124.63C65.5096 124.344 65.6152 123.861 65.6152 123.18C65.6152 122.5 65.5096 122.018 65.2983 121.735C65.0907 121.449 64.7899 121.306 64.396 121.306C64.0021 121.306 63.6995 121.449 63.4883 121.735C63.2806 122.018 63.1768 122.5 63.1768 123.18ZM68.6875 126C68.4727 126 68.3652 125.893 68.3652 125.678V120.683C68.3652 120.468 68.4727 120.36 68.6875 120.36H69.5361C69.751 120.36 69.8584 120.468 69.8584 120.683V121.123H69.8799C69.973 120.894 70.1287 120.692 70.3472 120.516C70.5656 120.341 70.8234 120.253 71.1206 120.253C71.3247 120.253 71.493 120.278 71.6255 120.328C71.7508 120.375 71.7992 120.461 71.7705 120.586L71.6201 121.225C71.5879 121.368 71.4912 121.411 71.3301 121.354C71.237 121.322 71.1475 121.306 71.0615 121.306C70.7178 121.306 70.4331 121.512 70.2075 121.923C69.9819 122.335 69.8691 122.935 69.8691 123.723V125.678C69.8691 125.893 69.7617 126 69.5469 126H68.6875ZM72.2861 123.18C72.2861 122.392 72.4562 121.708 72.7964 121.128C73.1401 120.545 73.7327 120.253 74.5742 120.253C74.8965 120.253 75.1722 120.299 75.4014 120.393C75.6305 120.486 75.8382 120.686 76.0244 120.994H76.0459C76.0316 120.851 76.0244 120.708 76.0244 120.564V118.395C76.0244 118.18 76.1318 118.072 76.3467 118.072H77.2061C77.4209 118.072 77.5283 118.18 77.5283 118.395V125.678C77.5283 125.893 77.4209 126 77.2061 126H76.3574C76.1784 126 76.0817 125.893 76.0674 125.678L76.0459 125.366H76.0244C75.8382 125.674 75.6305 125.875 75.4014 125.968C75.1722 126.061 74.8965 126.107 74.5742 126.107C73.7327 126.107 73.1401 125.817 72.7964 125.237C72.4562 124.654 72.2861 123.968 72.2861 123.18ZM73.876 123.18C73.876 123.753 73.9494 124.21 74.0962 124.55C74.2466 124.886 74.5635 125.055 75.0469 125.055C75.3154 125.055 75.5446 124.904 75.7344 124.604C75.9277 124.299 76.0244 123.905 76.0244 123.422V122.938C76.0244 122.455 75.9277 122.063 75.7344 121.762C75.5446 121.458 75.3154 121.306 75.0469 121.306C74.5635 121.306 74.2466 121.476 74.0962 121.816C73.9494 122.153 73.876 122.607 73.876 123.18ZM82.4482 123.18C82.4482 122.267 82.6828 121.551 83.1519 121.032C83.6245 120.513 84.3263 120.253 85.2573 120.253C86.1883 120.253 86.8883 120.513 87.3574 121.032C87.8301 121.551 88.0664 122.267 88.0664 123.18C88.0664 124.093 87.8301 124.809 87.3574 125.329C86.8883 125.848 86.1883 126.107 85.2573 126.107C84.3263 126.107 83.6245 125.848 83.1519 125.329C82.6828 124.809 82.4482 124.093 82.4482 123.18ZM84.0381 123.18C84.0381 123.861 84.1419 124.344 84.3496 124.63C84.5609 124.913 84.8634 125.055 85.2573 125.055C85.6512 125.055 85.952 124.913 86.1597 124.63C86.3709 124.344 86.4766 123.861 86.4766 123.18C86.4766 122.5 86.3709 122.018 86.1597 121.735C85.952 121.449 85.6512 121.306 85.2573 121.306C84.8634 121.306 84.5609 121.449 84.3496 121.735C84.1419 122.018 84.0381 122.5 84.0381 123.18ZM89.0386 121.435C88.8273 121.435 88.7217 121.345 88.7217 121.166V120.629C88.7217 120.45 88.8273 120.36 89.0386 120.36H89.3394V119.608C89.3394 118.95 89.5273 118.511 89.9033 118.292C90.2793 118.074 90.7269 117.965 91.2461 117.965C91.4932 117.965 91.7044 117.979 91.8799 118.008C92.0589 118.036 92.2165 118.072 92.3525 118.115C92.4814 118.158 92.528 118.248 92.4922 118.384L92.3311 118.991C92.2988 119.109 92.2165 119.145 92.084 119.098C92.0052 119.069 91.8942 119.05 91.751 119.039C91.6113 119.025 91.5003 119.018 91.418 119.018C91.1566 119.018 90.9954 119.109 90.9346 119.292C90.8737 119.474 90.8433 119.759 90.8433 120.146V120.36H91.5522C91.7635 120.36 91.8691 120.45 91.8691 120.629V121.166C91.8691 121.345 91.7635 121.435 91.5522 121.435H90.8433V125.678C90.8433 125.893 90.7358 126 90.521 126H89.6616C89.4468 126 89.3394 125.893 89.3394 125.678V121.435H89.0386ZM96.4614 121.435C96.2502 121.435 96.1445 121.345 96.1445 121.166V120.629C96.1445 120.45 96.2502 120.36 96.4614 120.36H96.8267V120.172C96.8267 120.011 96.8643 119.864 96.9395 119.732L97.353 119.007C97.4318 118.871 97.5249 118.803 97.6323 118.803H98.0083C98.2231 118.803 98.3306 118.91 98.3306 119.125V120.36H99.2007C99.4119 120.36 99.5176 120.45 99.5176 120.629V121.166C99.5176 121.345 99.4119 121.435 99.2007 121.435H98.3306V124.099C98.3306 124.464 98.3556 124.727 98.4058 124.888C98.4595 125.046 98.5955 125.125 98.814 125.125C98.925 125.125 99.0503 125.107 99.1899 125.071C99.3296 125.031 99.4388 124.994 99.5176 124.958C99.6429 124.901 99.7253 124.942 99.7646 125.082L99.9258 125.694C99.958 125.816 99.9115 125.905 99.7861 125.962C99.668 126.016 99.505 126.064 99.2974 126.107C99.0933 126.154 98.8874 126.177 98.6797 126.177C98.1676 126.177 97.7308 126.072 97.3691 125.86C97.0075 125.649 96.8267 125.214 96.8267 124.555V121.435H96.4614ZM101.258 126C101.043 126 100.936 125.893 100.936 125.678V118.395C100.936 118.18 101.043 118.072 101.258 118.072H102.117C102.332 118.072 102.439 118.18 102.439 118.395V120.564C102.439 120.708 102.432 120.851 102.418 120.994H102.45C102.615 120.711 102.824 120.518 103.079 120.414C103.333 120.307 103.639 120.253 103.997 120.253C104.556 120.253 105.018 120.428 105.383 120.779C105.748 121.13 105.931 121.771 105.931 122.702V125.678C105.931 125.893 105.823 126 105.608 126H104.749C104.534 126 104.427 125.893 104.427 125.678V123.089C104.427 122.308 104.373 121.816 104.266 121.612C104.158 121.408 103.927 121.306 103.573 121.306C103.197 121.306 102.914 121.452 102.724 121.746C102.534 122.036 102.439 122.641 102.439 123.562V125.678C102.439 125.893 102.332 126 102.117 126H101.258ZM107.08 123.18C107.08 122.274 107.306 121.56 107.757 121.037C108.212 120.514 108.853 120.253 109.68 120.253C110.639 120.253 111.352 120.5 111.817 120.994C112.283 121.488 112.516 122.283 112.516 123.379C112.516 123.594 112.415 123.701 112.215 123.701H108.67C108.727 124.296 108.874 124.67 109.11 124.824C109.347 124.978 109.621 125.055 109.932 125.055C110.229 125.055 110.457 125.015 110.614 124.937C110.772 124.858 110.904 124.75 111.012 124.614C111.133 124.457 111.284 124.432 111.463 124.539L112 124.867C112.211 124.996 112.242 125.15 112.091 125.329C111.873 125.59 111.617 125.785 111.323 125.914C111.03 126.043 110.566 126.107 109.932 126.107C108.904 126.107 108.172 125.846 107.735 125.323C107.299 124.8 107.08 124.086 107.08 123.18ZM108.675 122.627H111.012C111.012 122.24 110.915 121.925 110.722 121.682C110.528 121.435 110.22 121.311 109.798 121.311C109.461 121.311 109.194 121.429 108.998 121.666C108.801 121.898 108.693 122.219 108.675 122.627ZM117.333 126C117.076 126 116.992 125.882 117.081 125.646L119.713 118.733C119.824 118.443 119.992 118.298 120.218 118.298H120.97C121.195 118.298 121.364 118.443 121.475 118.733L124.106 125.646C124.196 125.882 124.112 126 123.854 126H123C122.764 126 122.599 125.876 122.506 125.629L121.958 124.185H119.229L118.682 125.629C118.589 125.876 118.424 126 118.188 126H117.333ZM119.729 122.853H121.458L120.798 121.145C120.719 120.944 120.671 120.799 120.653 120.709C120.639 120.616 120.622 120.48 120.604 120.301H120.583C120.565 120.48 120.547 120.616 120.529 120.709C120.515 120.799 120.468 120.944 120.39 121.145L119.729 122.853ZM124.746 121.435C124.534 121.435 124.429 121.345 124.429 121.166V120.629C124.429 120.45 124.534 120.36 124.746 120.36H125.111V120.172C125.111 120.011 125.148 119.864 125.224 119.732L125.637 119.007C125.716 118.871 125.809 118.803 125.917 118.803H126.292C126.507 118.803 126.615 118.91 126.615 119.125V120.36H127.485C127.696 120.36 127.802 120.45 127.802 120.629V121.166C127.802 121.345 127.696 121.435 127.485 121.435H126.615V124.099C126.615 124.464 126.64 124.727 126.69 124.888C126.744 125.046 126.88 125.125 127.098 125.125C127.209 125.125 127.334 125.107 127.474 125.071C127.614 125.031 127.723 124.994 127.802 124.958C127.927 124.901 128.009 124.942 128.049 125.082L128.21 125.694C128.242 125.816 128.196 125.905 128.07 125.962C127.952 126.016 127.789 126.064 127.582 126.107C127.377 126.154 127.172 126.177 126.964 126.177C126.452 126.177 126.015 126.072 125.653 125.86C125.292 125.649 125.111 125.214 125.111 124.555V121.435H124.746ZM129.032 121.435C128.82 121.435 128.715 121.345 128.715 121.166V120.629C128.715 120.45 128.82 120.36 129.032 120.36H129.397V120.172C129.397 120.011 129.435 119.864 129.51 119.732L129.923 119.007C130.002 118.871 130.095 118.803 130.203 118.803H130.579C130.793 118.803 130.901 118.91 130.901 119.125V120.36H131.771C131.982 120.36 132.088 120.45 132.088 120.629V121.166C132.088 121.345 131.982 121.435 131.771 121.435H130.901V124.099C130.901 124.464 130.926 124.727 130.976 124.888C131.03 125.046 131.166 125.125 131.384 125.125C131.495 125.125 131.621 125.107 131.76 125.071C131.9 125.031 132.009 124.994 132.088 124.958C132.213 124.901 132.296 124.942 132.335 125.082L132.496 125.694C132.528 125.816 132.482 125.905 132.356 125.962C132.238 126.016 132.075 126.064 131.868 126.107C131.664 126.154 131.458 126.177 131.25 126.177C130.738 126.177 130.301 126.072 129.939 125.86C129.578 125.649 129.397 125.214 129.397 124.555V121.435H129.032ZM133.205 123.18C133.205 122.274 133.431 121.56 133.882 121.037C134.337 120.514 134.978 120.253 135.805 120.253C136.764 120.253 137.477 120.5 137.942 120.994C138.408 121.488 138.641 122.283 138.641 123.379C138.641 123.594 138.54 123.701 138.34 123.701H134.795C134.852 124.296 134.999 124.67 135.235 124.824C135.472 124.978 135.746 125.055 136.057 125.055C136.354 125.055 136.582 125.015 136.739 124.937C136.897 124.858 137.029 124.75 137.137 124.614C137.258 124.457 137.409 124.432 137.588 124.539L138.125 124.867C138.336 124.996 138.367 125.15 138.216 125.329C137.998 125.59 137.742 125.785 137.448 125.914C137.155 126.043 136.691 126.107 136.057 126.107C135.029 126.107 134.297 125.846 133.86 125.323C133.424 124.8 133.205 124.086 133.205 123.18ZM134.8 122.627H137.137C137.137 122.24 137.04 121.925 136.847 121.682C136.653 121.435 136.345 121.311 135.923 121.311C135.586 121.311 135.319 121.429 135.123 121.666C134.926 121.898 134.818 122.219 134.8 122.627ZM140.134 126C139.919 126 139.812 125.893 139.812 125.678V120.683C139.812 120.468 139.919 120.36 140.134 120.36H140.982C141.197 120.36 141.305 120.468 141.305 120.683V120.994H141.326C141.491 120.711 141.7 120.518 141.955 120.414C142.209 120.307 142.515 120.253 142.873 120.253C143.432 120.253 143.894 120.428 144.259 120.779C144.624 121.13 144.807 121.771 144.807 122.702V125.678C144.807 125.893 144.699 126 144.484 126H143.625C143.41 126 143.303 125.893 143.303 125.678V123.089C143.303 122.308 143.249 121.816 143.142 121.612C143.034 121.408 142.803 121.306 142.449 121.306C142.073 121.306 141.79 121.452 141.6 121.746C141.41 122.036 141.315 122.641 141.315 123.562V125.678C141.315 125.893 141.208 126 140.993 126H140.134ZM145.956 123.18C145.956 122.392 146.126 121.708 146.466 121.128C146.81 120.545 147.403 120.253 148.244 120.253C148.566 120.253 148.842 120.299 149.071 120.393C149.3 120.486 149.508 120.686 149.694 120.994H149.716C149.701 120.851 149.694 120.708 149.694 120.564V118.395C149.694 118.18 149.802 118.072 150.017 118.072H150.876C151.091 118.072 151.198 118.18 151.198 118.395V125.678C151.198 125.893 151.091 126 150.876 126H150.027C149.848 126 149.752 125.893 149.737 125.678L149.716 125.366H149.694C149.508 125.674 149.3 125.875 149.071 125.968C148.842 126.061 148.566 126.107 148.244 126.107C147.403 126.107 146.81 125.817 146.466 125.237C146.126 124.654 145.956 123.968 145.956 123.18ZM147.546 123.18C147.546 123.753 147.619 124.21 147.766 124.55C147.917 124.886 148.233 125.055 148.717 125.055C148.985 125.055 149.215 124.904 149.404 124.604C149.598 124.299 149.694 123.905 149.694 123.422V122.938C149.694 122.455 149.598 122.063 149.404 121.762C149.215 121.458 148.985 121.306 148.717 121.306C148.233 121.306 147.917 121.476 147.766 121.816C147.619 122.153 147.546 122.607 147.546 123.18ZM152.358 124.496C152.358 123.78 152.7 123.261 153.384 122.938C154.068 122.616 154.849 122.444 155.726 122.423V122.208C155.726 121.879 155.644 121.646 155.479 121.51C155.314 121.374 155.085 121.306 154.792 121.306C154.584 121.306 154.399 121.336 154.238 121.397C154.081 121.454 153.943 121.522 153.825 121.601C153.71 121.676 153.606 121.753 153.513 121.832C153.348 121.975 153.212 121.982 153.105 121.854L152.659 121.306C152.548 121.17 152.575 121.03 152.74 120.887C152.865 120.776 153.01 120.679 153.175 120.597C153.343 120.514 153.565 120.437 153.841 120.366C154.117 120.291 154.475 120.253 154.915 120.253C155.66 120.253 156.231 120.425 156.628 120.769C157.029 121.112 157.23 121.619 157.23 122.289V125.678C157.23 125.893 157.123 126 156.908 126H156.027C155.833 126 155.737 125.893 155.737 125.678V125.517H155.726C155.515 125.721 155.261 125.871 154.963 125.968C154.67 126.061 154.399 126.107 154.152 126.107C153.565 126.107 153.119 125.964 152.815 125.678C152.511 125.388 152.358 124.994 152.358 124.496ZM153.948 124.464C153.948 124.589 153.973 124.698 154.023 124.792C154.074 124.881 154.152 124.947 154.26 124.99C154.367 125.033 154.487 125.055 154.62 125.055C154.802 125.055 154.979 125.03 155.151 124.979C155.323 124.929 155.515 124.811 155.726 124.625V123.459C155.125 123.528 154.722 123.615 154.518 123.723C154.313 123.83 154.167 123.941 154.077 124.056C153.991 124.17 153.948 124.306 153.948 124.464ZM159.019 126C158.804 126 158.696 125.893 158.696 125.678V120.683C158.696 120.468 158.804 120.36 159.019 120.36H159.867C160.082 120.36 160.189 120.468 160.189 120.683V120.994H160.211C160.376 120.711 160.585 120.518 160.839 120.414C161.094 120.307 161.4 120.253 161.758 120.253C162.316 120.253 162.778 120.428 163.144 120.779C163.509 121.13 163.691 121.771 163.691 122.702V125.678C163.691 125.893 163.584 126 163.369 126H162.51C162.295 126 162.188 125.893 162.188 125.678V123.089C162.188 122.308 162.134 121.816 162.026 121.612C161.919 121.408 161.688 121.306 161.333 121.306C160.958 121.306 160.675 121.452 160.485 121.746C160.295 122.036 160.2 122.641 160.2 123.562V125.678C160.2 125.893 160.093 126 159.878 126H159.019ZM164.841 123.18C164.841 122.267 165.07 121.551 165.528 121.032C165.987 120.513 166.69 120.253 167.639 120.253C168.194 120.253 168.626 120.326 168.934 120.473C169.242 120.62 169.489 120.835 169.675 121.118C169.786 121.286 169.768 121.418 169.621 121.515L169.052 121.891C168.891 121.999 168.749 121.957 168.627 121.768C168.567 121.674 168.45 121.574 168.278 121.467C168.106 121.359 167.893 121.306 167.639 121.306C167.235 121.306 166.932 121.449 166.731 121.735C166.531 122.018 166.431 122.5 166.431 123.18C166.431 123.861 166.531 124.344 166.731 124.63C166.932 124.913 167.235 125.055 167.639 125.055C167.929 125.055 168.164 124.994 168.343 124.872C168.522 124.75 168.69 124.593 168.848 124.399C168.984 124.235 169.127 124.211 169.277 124.33L169.777 124.722C169.927 124.84 169.936 124.997 169.804 125.194C169.664 125.402 169.426 125.606 169.089 125.807C168.756 126.007 168.273 126.107 167.639 126.107C166.69 126.107 165.987 125.848 165.528 125.329C165.07 124.809 164.841 124.093 164.841 123.18ZM170.674 123.18C170.674 122.274 170.899 121.56 171.351 121.037C171.805 120.514 172.446 120.253 173.273 120.253C174.233 120.253 174.946 120.5 175.411 120.994C175.877 121.488 176.109 122.283 176.109 123.379C176.109 123.594 176.009 123.701 175.809 123.701H172.264C172.321 124.296 172.468 124.67 172.704 124.824C172.94 124.978 173.214 125.055 173.526 125.055C173.823 125.055 174.05 125.015 174.208 124.937C174.366 124.858 174.498 124.75 174.605 124.614C174.727 124.457 174.878 124.432 175.057 124.539L175.594 124.867C175.805 124.996 175.835 125.15 175.685 125.329C175.467 125.59 175.211 125.785 174.917 125.914C174.623 126.043 174.16 126.107 173.526 126.107C172.498 126.107 171.766 125.846 171.329 125.323C170.892 124.8 170.674 124.086 170.674 123.18ZM172.269 122.627H174.605C174.605 122.24 174.509 121.925 174.315 121.682C174.122 121.435 173.814 121.311 173.392 121.311C173.055 121.311 172.788 121.429 172.591 121.666C172.394 121.898 172.287 122.219 172.269 122.627ZM180.739 123.18C180.739 122.267 180.974 121.551 181.443 121.032C181.916 120.513 182.617 120.253 183.548 120.253C184.479 120.253 185.179 120.513 185.648 121.032C186.121 121.551 186.357 122.267 186.357 123.18C186.357 124.093 186.121 124.809 185.648 125.329C185.179 125.848 184.479 126.107 183.548 126.107C182.617 126.107 181.916 125.848 181.443 125.329C180.974 124.809 180.739 124.093 180.739 123.18ZM182.329 123.18C182.329 123.861 182.433 124.344 182.641 124.63C182.852 124.913 183.154 125.055 183.548 125.055C183.942 125.055 184.243 124.913 184.451 124.63C184.662 124.344 184.768 123.861 184.768 123.18C184.768 122.5 184.662 122.018 184.451 121.735C184.243 121.449 183.942 121.306 183.548 121.306C183.154 121.306 182.852 121.449 182.641 121.735C182.433 122.018 182.329 122.5 182.329 123.18ZM187.33 121.435C187.118 121.435 187.013 121.345 187.013 121.166V120.629C187.013 120.45 187.118 120.36 187.33 120.36H187.63V119.608C187.63 118.95 187.818 118.511 188.194 118.292C188.57 118.074 189.018 117.965 189.537 117.965C189.784 117.965 189.995 117.979 190.171 118.008C190.35 118.036 190.507 118.072 190.644 118.115C190.772 118.158 190.819 118.248 190.783 118.384L190.622 118.991C190.59 119.109 190.507 119.145 190.375 119.098C190.296 119.069 190.185 119.05 190.042 119.039C189.902 119.025 189.791 119.018 189.709 119.018C189.448 119.018 189.286 119.109 189.226 119.292C189.165 119.474 189.134 119.759 189.134 120.146V120.36H189.843C190.055 120.36 190.16 120.45 190.16 120.629V121.166C190.16 121.345 190.055 121.435 189.843 121.435H189.134V125.678C189.134 125.893 189.027 126 188.812 126H187.953C187.738 126 187.63 125.893 187.63 125.678V121.435H187.33ZM24.9507 141.425C24.7287 141.257 24.675 141.087 24.7896 140.915L25.2031 140.292C25.3392 140.088 25.5379 140.077 25.7993 140.26C25.9998 140.399 26.2612 140.544 26.5835 140.695C26.9093 140.842 27.2513 140.915 27.6094 140.915C27.86 140.915 28.1017 140.886 28.3345 140.829C28.5672 140.772 28.7445 140.661 28.8662 140.496C28.988 140.331 29.0488 140.136 29.0488 139.911C29.0488 139.75 29.022 139.608 28.9683 139.486C28.9146 139.365 28.8268 139.264 28.7051 139.186C28.5833 139.107 28.458 139.041 28.3291 138.987C28.1035 138.894 27.8188 138.802 27.4751 138.713C27.1349 138.62 26.7983 138.509 26.4653 138.38C26.1681 138.265 25.896 138.108 25.6489 137.907C25.4019 137.707 25.2103 137.481 25.0742 137.23C24.9382 136.98 24.8701 136.645 24.8701 136.226C24.8701 135.728 25.0312 135.302 25.3535 134.948C25.6758 134.593 26.0464 134.366 26.4653 134.266C26.8843 134.165 27.3068 134.115 27.7329 134.115C28.1554 134.115 28.5905 134.18 29.0381 134.309C29.4893 134.438 29.8294 134.599 30.0586 134.792C30.2842 134.982 30.3397 135.154 30.2251 135.308L29.79 135.893C29.6432 136.094 29.4463 136.11 29.1992 135.941C29.0417 135.834 28.825 135.714 28.5493 135.582C28.2772 135.449 27.9925 135.383 27.6953 135.383C27.484 135.383 27.2889 135.401 27.1099 135.437C26.9344 135.472 26.7786 135.558 26.6426 135.694C26.5065 135.83 26.4385 135.999 26.4385 136.199C26.4385 136.393 26.4886 136.55 26.5889 136.672C26.6891 136.79 26.8001 136.88 26.9219 136.94C27.0436 136.998 27.1672 137.046 27.2925 137.085C27.6792 137.211 28.0247 137.322 28.3291 137.418C28.6335 137.512 28.9146 137.615 29.1724 137.73C29.5304 137.891 29.8044 138.052 29.9941 138.213C30.1839 138.375 30.3397 138.595 30.4614 138.874C30.5868 139.153 30.6494 139.486 30.6494 139.873C30.6494 140.446 30.4668 140.92 30.1016 141.296C29.7363 141.669 29.3299 141.909 28.8823 142.016C28.4383 142.127 28.005 142.183 27.5825 142.183C26.9595 142.183 26.4528 142.122 26.0625 142C25.6722 141.882 25.3016 141.69 24.9507 141.425ZM31.5679 137.435C31.3566 137.435 31.251 137.345 31.251 137.166V136.629C31.251 136.45 31.3566 136.36 31.5679 136.36H31.9331V136.172C31.9331 136.011 31.9707 135.864 32.0459 135.732L32.4595 135.007C32.5382 134.871 32.6313 134.803 32.7388 134.803H33.1147C33.3296 134.803 33.437 134.91 33.437 135.125V136.36H34.3071C34.5184 136.36 34.624 136.45 34.624 136.629V137.166C34.624 137.345 34.5184 137.435 34.3071 137.435H33.437V140.099C33.437 140.464 33.4621 140.727 33.5122 140.888C33.5659 141.046 33.702 141.125 33.9204 141.125C34.0314 141.125 34.1567 141.107 34.2964 141.071C34.436 141.031 34.5452 140.994 34.624 140.958C34.7493 140.901 34.8317 140.942 34.8711 141.082L35.0322 141.694C35.0645 141.816 35.0179 141.905 34.8926 141.962C34.7744 142.016 34.6115 142.064 34.4038 142.107C34.1997 142.154 33.9938 142.177 33.7861 142.177C33.2741 142.177 32.8372 142.072 32.4756 141.86C32.1139 141.649 31.9331 141.214 31.9331 140.555V137.435H31.5679ZM36.0312 139.658V136.683C36.0312 136.468 36.1387 136.36 36.3535 136.36H37.2129C37.4277 136.36 37.5352 136.468 37.5352 136.683V139.271C37.5352 140.052 37.5889 140.544 37.6963 140.749C37.8037 140.953 38.0293 141.055 38.373 141.055C38.7383 141.055 39.0158 140.91 39.2056 140.62C39.3953 140.326 39.4902 139.719 39.4902 138.799V136.683C39.4902 136.468 39.5977 136.36 39.8125 136.36H40.6719C40.8867 136.36 40.9941 136.468 40.9941 136.683V141.678C40.9941 141.893 40.8867 142 40.6719 142H39.8232C39.6084 142 39.501 141.893 39.501 141.678V141.366H39.4795C39.3148 141.649 39.1053 141.844 38.8511 141.952C38.5968 142.056 38.2961 142.107 37.9487 142.107C37.4009 142.107 36.9443 141.932 36.5791 141.581C36.2139 141.23 36.0312 140.589 36.0312 139.658ZM42.1543 139.18C42.1543 138.392 42.3244 137.708 42.6646 137.128C43.0083 136.545 43.6009 136.253 44.4424 136.253C44.7646 136.253 45.0404 136.299 45.2695 136.393C45.4987 136.486 45.7064 136.686 45.8926 136.994H45.9141C45.8997 136.851 45.8926 136.708 45.8926 136.564V134.395C45.8926 134.18 46 134.072 46.2148 134.072H47.0742C47.2891 134.072 47.3965 134.18 47.3965 134.395V141.678C47.3965 141.893 47.2891 142 47.0742 142H46.2256C46.0465 142 45.9499 141.893 45.9355 141.678L45.9141 141.366H45.8926C45.7064 141.674 45.4987 141.875 45.2695 141.968C45.0404 142.061 44.7646 142.107 44.4424 142.107C43.6009 142.107 43.0083 141.817 42.6646 141.237C42.3244 140.654 42.1543 139.968 42.1543 139.18ZM43.7441 139.18C43.7441 139.753 43.8175 140.21 43.9644 140.55C44.1147 140.886 44.4316 141.055 44.915 141.055C45.1836 141.055 45.4128 140.904 45.6025 140.604C45.7959 140.299 45.8926 139.905 45.8926 139.422V138.938C45.8926 138.455 45.7959 138.063 45.6025 137.762C45.4128 137.458 45.1836 137.306 44.915 137.306C44.4316 137.306 44.1147 137.476 43.9644 137.816C43.8175 138.153 43.7441 138.607 43.7441 139.18ZM48.5566 139.18C48.5566 138.274 48.7822 137.56 49.2334 137.037C49.6882 136.514 50.3291 136.253 51.1562 136.253C52.1159 136.253 52.8285 136.5 53.2939 136.994C53.7594 137.488 53.9922 138.283 53.9922 139.379C53.9922 139.594 53.8919 139.701 53.6914 139.701H50.1465C50.2038 140.296 50.3506 140.67 50.5869 140.824C50.8232 140.978 51.0972 141.055 51.4087 141.055C51.7059 141.055 51.9333 141.015 52.0908 140.937C52.2484 140.858 52.3809 140.75 52.4883 140.614C52.61 140.457 52.7604 140.432 52.9395 140.539L53.4766 140.867C53.6878 140.996 53.7183 141.15 53.5679 141.329C53.3494 141.59 53.0934 141.785 52.7998 141.914C52.5062 142.043 52.0425 142.107 51.4087 142.107C50.381 142.107 49.6488 141.846 49.2119 141.323C48.7751 140.8 48.5566 140.086 48.5566 139.18ZM50.1519 138.627H52.4883C52.4883 138.24 52.3916 137.925 52.1982 137.682C52.0049 137.435 51.6969 137.311 51.2744 137.311C50.9378 137.311 50.6711 137.429 50.4741 137.666C50.2772 137.898 50.1698 138.219 50.1519 138.627ZM55.4854 142C55.2705 142 55.1631 141.893 55.1631 141.678V136.683C55.1631 136.468 55.2705 136.36 55.4854 136.36H56.334C56.5488 136.36 56.6562 136.468 56.6562 136.683V136.994H56.6777C56.8424 136.711 57.0519 136.518 57.3062 136.414C57.5604 136.307 57.8665 136.253 58.2246 136.253C58.7832 136.253 59.2451 136.428 59.6104 136.779C59.9756 137.13 60.1582 137.771 60.1582 138.702V141.678C60.1582 141.893 60.0508 142 59.8359 142H58.9766C58.7617 142 58.6543 141.893 58.6543 141.678V139.089C58.6543 138.308 58.6006 137.816 58.4932 137.612C58.3857 137.408 58.1548 137.306 57.8003 137.306C57.4243 137.306 57.1414 137.452 56.9517 137.746C56.7619 138.036 56.667 138.641 56.667 139.562V141.678C56.667 141.893 56.5596 142 56.3447 142H55.4854ZM61.4204 137.435C61.2091 137.435 61.1035 137.345 61.1035 137.166V136.629C61.1035 136.45 61.2091 136.36 61.4204 136.36H61.7856V136.172C61.7856 136.011 61.8232 135.864 61.8984 135.732L62.312 135.007C62.3908 134.871 62.4839 134.803 62.5913 134.803H62.9673C63.1821 134.803 63.2896 134.91 63.2896 135.125V136.36H64.1597C64.3709 136.36 64.4766 136.45 64.4766 136.629V137.166C64.4766 137.345 64.3709 137.435 64.1597 137.435H63.2896V140.099C63.2896 140.464 63.3146 140.727 63.3647 140.888C63.4185 141.046 63.5545 141.125 63.7729 141.125C63.884 141.125 64.0093 141.107 64.1489 141.071C64.2886 141.031 64.3978 140.994 64.4766 140.958C64.6019 140.901 64.6842 140.942 64.7236 141.082L64.8848 141.694C64.917 141.816 64.8704 141.905 64.7451 141.962C64.627 142.016 64.464 142.064 64.2563 142.107C64.0522 142.154 63.8464 142.177 63.6387 142.177C63.1266 142.177 62.6898 142.072 62.3281 141.86C61.9665 141.649 61.7856 141.214 61.7856 140.555V137.435H61.4204ZM65.7817 141.624C65.6063 141.499 65.5579 141.364 65.6367 141.221L65.9106 140.722C66.0073 140.543 66.1577 140.521 66.3618 140.657C66.5659 140.793 66.8058 140.894 67.0815 140.958C67.3608 141.022 67.6151 141.055 67.8442 141.055C68.0054 141.055 68.1558 141.039 68.2954 141.006C68.4351 140.974 68.5532 140.911 68.6499 140.818C68.7466 140.725 68.7949 140.589 68.7949 140.41C68.7949 140.303 68.7663 140.211 68.709 140.136C68.6517 140.061 68.5783 140.004 68.4888 139.964C68.3993 139.925 68.3044 139.893 68.2041 139.868C68.0716 139.835 67.88 139.782 67.6294 139.707C67.3823 139.631 67.1442 139.544 66.915 139.443C66.7253 139.361 66.5391 139.246 66.3564 139.1C66.1774 138.949 66.0449 138.783 65.959 138.6C65.8766 138.417 65.8354 138.192 65.8354 137.923C65.8354 137.562 65.9393 137.245 66.147 136.973C66.3582 136.701 66.6304 136.513 66.9634 136.409C67.2964 136.305 67.7118 136.253 68.2095 136.253C68.5461 136.253 68.8737 136.301 69.1924 136.398C69.5111 136.495 69.7384 136.586 69.8745 136.672C70.0894 136.808 70.1431 136.953 70.0356 137.107L69.708 137.585C69.6077 137.728 69.4466 137.739 69.2246 137.617C69.0563 137.524 68.8898 137.449 68.7251 137.392C68.564 137.334 68.3831 137.306 68.1826 137.306C68.0465 137.306 67.9159 137.32 67.7905 137.349C67.6652 137.377 67.5578 137.431 67.4683 137.51C67.3823 137.589 67.3394 137.692 67.3394 137.821C67.3394 137.957 67.3787 138.065 67.4575 138.144C67.5399 138.219 67.633 138.274 67.7368 138.31C67.8442 138.346 67.9463 138.38 68.043 138.412C68.2435 138.477 68.4458 138.539 68.6499 138.6C68.854 138.657 69.0617 138.727 69.2729 138.81C69.4556 138.881 69.6328 138.983 69.8047 139.116C69.9766 139.248 70.1019 139.417 70.1807 139.621C70.2594 139.825 70.2988 140.057 70.2988 140.319C70.2988 140.666 70.195 140.988 69.9873 141.286C69.7796 141.583 69.5057 141.794 69.1655 141.919C68.8254 142.045 68.4297 142.107 67.9785 142.107C67.4736 142.107 67.0439 142.072 66.6895 142C66.335 141.928 66.0324 141.803 65.7817 141.624ZM75.3799 142C75.165 142 75.0576 141.893 75.0576 141.678V136.683C75.0576 136.468 75.165 136.36 75.3799 136.36H76.2393C76.4541 136.36 76.5615 136.468 76.5615 136.683V141.678C76.5615 141.893 76.4541 142 76.2393 142H75.3799ZM75.3799 135.533C75.165 135.533 75.0576 135.426 75.0576 135.211V134.523C75.0576 134.309 75.165 134.201 75.3799 134.201H76.2393C76.4541 134.201 76.5615 134.309 76.5615 134.523V135.211C76.5615 135.426 76.4541 135.533 76.2393 135.533H75.3799ZM78.3447 142C78.1299 142 78.0225 141.893 78.0225 141.678V136.683C78.0225 136.468 78.1299 136.36 78.3447 136.36H79.1934C79.4082 136.36 79.5156 136.468 79.5156 136.683V136.994H79.5371C79.7018 136.711 79.9113 136.518 80.1655 136.414C80.4198 136.307 80.7259 136.253 81.084 136.253C81.6426 136.253 82.1045 136.428 82.4697 136.779C82.835 137.13 83.0176 137.771 83.0176 138.702V141.678C83.0176 141.893 82.9102 142 82.6953 142H81.8359C81.6211 142 81.5137 141.893 81.5137 141.678V139.089C81.5137 138.308 81.46 137.816 81.3525 137.612C81.2451 137.408 81.0142 137.306 80.6597 137.306C80.2837 137.306 80.0008 137.452 79.811 137.746C79.6213 138.036 79.5264 138.641 79.5264 139.562V141.678C79.5264 141.893 79.4189 142 79.2041 142H78.3447ZM87.9268 139.18C87.9268 138.274 88.1523 137.56 88.6035 137.037C89.0583 136.514 89.6992 136.253 90.5264 136.253C91.486 136.253 92.1986 136.5 92.6641 136.994C93.1296 137.488 93.3623 138.283 93.3623 139.379C93.3623 139.594 93.262 139.701 93.0615 139.701H89.5166C89.5739 140.296 89.7207 140.67 89.957 140.824C90.1934 140.978 90.4673 141.055 90.7788 141.055C91.076 141.055 91.3034 141.015 91.4609 140.937C91.6185 140.858 91.751 140.75 91.8584 140.614C91.9801 140.457 92.1305 140.432 92.3096 140.539L92.8467 140.867C93.0579 140.996 93.0884 141.15 92.938 141.329C92.7196 141.59 92.4635 141.785 92.1699 141.914C91.8763 142.043 91.4126 142.107 90.7788 142.107C89.7511 142.107 89.0189 141.846 88.582 141.323C88.1452 140.8 87.9268 140.086 87.9268 139.18ZM89.522 138.627H91.8584C91.8584 138.24 91.7617 137.925 91.5684 137.682C91.375 137.435 91.0671 137.311 90.6445 137.311C90.3079 137.311 90.0412 137.429 89.8442 137.666C89.6473 137.898 89.5399 138.219 89.522 138.627ZM94.2324 140.496C94.2324 139.78 94.5744 139.261 95.2583 138.938C95.9422 138.616 96.7228 138.444 97.6001 138.423V138.208C97.6001 137.879 97.5177 137.646 97.353 137.51C97.1883 137.374 96.9591 137.306 96.6655 137.306C96.4578 137.306 96.2734 137.336 96.1123 137.397C95.9548 137.454 95.8169 137.522 95.6987 137.601C95.5841 137.676 95.4803 137.753 95.3872 137.832C95.2225 137.975 95.0864 137.982 94.979 137.854L94.5332 137.306C94.4222 137.17 94.4491 137.03 94.6138 136.887C94.7391 136.776 94.8841 136.679 95.0488 136.597C95.2171 136.514 95.4391 136.437 95.7148 136.366C95.9906 136.291 96.3486 136.253 96.7891 136.253C97.5339 136.253 98.105 136.425 98.5024 136.769C98.9035 137.112 99.104 137.619 99.104 138.289V141.678C99.104 141.893 98.9966 142 98.7817 142H97.9009C97.7075 142 97.6108 141.893 97.6108 141.678V141.517H97.6001C97.3888 141.721 97.1346 141.871 96.8374 141.968C96.5438 142.061 96.2734 142.107 96.0264 142.107C95.4391 142.107 94.9933 141.964 94.689 141.678C94.3846 141.388 94.2324 140.994 94.2324 140.496ZM95.8223 140.464C95.8223 140.589 95.8473 140.698 95.8975 140.792C95.9476 140.881 96.0264 140.947 96.1338 140.99C96.2412 141.033 96.3612 141.055 96.4937 141.055C96.6763 141.055 96.8535 141.03 97.0254 140.979C97.1973 140.929 97.3888 140.811 97.6001 140.625V139.459C96.9985 139.528 96.5957 139.615 96.3916 139.723C96.1875 139.83 96.0407 139.941 95.9512 140.056C95.8652 140.17 95.8223 140.306 95.8223 140.464ZM100.27 139.18C100.27 138.267 100.499 137.551 100.957 137.032C101.415 136.513 102.119 136.253 103.068 136.253C103.623 136.253 104.054 136.326 104.362 136.473C104.67 136.62 104.917 136.835 105.104 137.118C105.215 137.286 105.197 137.418 105.05 137.515L104.48 137.891C104.319 137.999 104.178 137.957 104.056 137.768C103.995 137.674 103.879 137.574 103.707 137.467C103.535 137.359 103.322 137.306 103.068 137.306C102.663 137.306 102.361 137.449 102.16 137.735C101.96 138.018 101.859 138.5 101.859 139.18C101.859 139.861 101.96 140.344 102.16 140.63C102.361 140.913 102.663 141.055 103.068 141.055C103.358 141.055 103.592 140.994 103.771 140.872C103.951 140.75 104.119 140.593 104.276 140.399C104.412 140.235 104.556 140.211 104.706 140.33L105.206 140.722C105.356 140.84 105.365 140.997 105.232 141.194C105.093 141.402 104.855 141.606 104.518 141.807C104.185 142.007 103.702 142.107 103.068 142.107C102.119 142.107 101.415 141.848 100.957 141.329C100.499 140.809 100.27 140.093 100.27 139.18ZM106.726 142C106.511 142 106.403 141.893 106.403 141.678V134.395C106.403 134.18 106.511 134.072 106.726 134.072H107.585C107.8 134.072 107.907 134.18 107.907 134.395V136.564C107.907 136.708 107.9 136.851 107.886 136.994H107.918C108.083 136.711 108.292 136.518 108.546 136.414C108.801 136.307 109.107 136.253 109.465 136.253C110.023 136.253 110.485 136.428 110.851 136.779C111.216 137.13 111.398 137.771 111.398 138.702V141.678C111.398 141.893 111.291 142 111.076 142H110.217C110.002 142 109.895 141.893 109.895 141.678V139.089C109.895 138.308 109.841 137.816 109.733 137.612C109.626 137.408 109.395 137.306 109.041 137.306C108.665 137.306 108.382 137.452 108.192 137.746C108.002 138.036 107.907 138.641 107.907 139.562V141.678C107.907 141.893 107.8 142 107.585 142H106.726ZM117.113 142C116.863 142 116.737 141.866 116.737 141.597V134.701C116.737 134.432 116.863 134.298 117.113 134.298H117.983C118.198 134.298 118.306 134.432 118.306 134.701V140.668H121.437C121.706 140.668 121.84 140.784 121.84 141.017V141.651C121.84 141.884 121.706 142 121.437 142H117.113ZM122.549 139.18C122.549 138.274 122.774 137.56 123.226 137.037C123.68 136.514 124.321 136.253 125.148 136.253C126.108 136.253 126.821 136.5 127.286 136.994C127.752 137.488 127.984 138.283 127.984 139.379C127.984 139.594 127.884 139.701 127.684 139.701H124.139C124.196 140.296 124.343 140.67 124.579 140.824C124.815 140.978 125.089 141.055 125.401 141.055C125.698 141.055 125.925 141.015 126.083 140.937C126.241 140.858 126.373 140.75 126.48 140.614C126.602 140.457 126.753 140.432 126.932 140.539L127.469 140.867C127.68 140.996 127.71 141.15 127.56 141.329C127.342 141.59 127.086 141.785 126.792 141.914C126.498 142.043 126.035 142.107 125.401 142.107C124.373 142.107 123.641 141.846 123.204 141.323C122.767 140.8 122.549 140.086 122.549 139.18ZM124.144 138.627H126.48C126.48 138.24 126.384 137.925 126.19 137.682C125.997 137.435 125.689 137.311 125.267 137.311C124.93 137.311 124.663 137.429 124.466 137.666C124.269 137.898 124.162 138.219 124.144 138.627ZM128.854 139.18C128.854 138.267 129.084 137.551 129.542 137.032C130 136.513 130.704 136.253 131.653 136.253C132.208 136.253 132.639 136.326 132.947 136.473C133.255 136.62 133.502 136.835 133.688 137.118C133.799 137.286 133.782 137.418 133.635 137.515L133.065 137.891C132.904 137.999 132.763 137.957 132.641 137.768C132.58 137.674 132.464 137.574 132.292 137.467C132.12 137.359 131.907 137.306 131.653 137.306C131.248 137.306 130.946 137.449 130.745 137.735C130.545 138.018 130.444 138.5 130.444 139.18C130.444 139.861 130.545 140.344 130.745 140.63C130.946 140.913 131.248 141.055 131.653 141.055C131.943 141.055 132.177 140.994 132.356 140.872C132.535 140.75 132.704 140.593 132.861 140.399C132.997 140.235 133.141 140.211 133.291 140.33L133.791 140.722C133.941 140.84 133.95 140.997 133.817 141.194C133.678 141.402 133.44 141.606 133.103 141.807C132.77 142.007 132.287 142.107 131.653 142.107C130.704 142.107 130 141.848 129.542 141.329C129.084 140.809 128.854 140.093 128.854 139.18ZM134.8 137.435C134.589 137.435 134.483 137.345 134.483 137.166V136.629C134.483 136.45 134.589 136.36 134.8 136.36H135.166V136.172C135.166 136.011 135.203 135.864 135.278 135.732L135.692 135.007C135.771 134.871 135.864 134.803 135.971 134.803H136.347C136.562 134.803 136.669 134.91 136.669 135.125V136.36H137.54C137.751 136.36 137.856 136.45 137.856 136.629V137.166C137.856 137.345 137.751 137.435 137.54 137.435H136.669V140.099C136.669 140.464 136.694 140.727 136.745 140.888C136.798 141.046 136.934 141.125 137.153 141.125C137.264 141.125 137.389 141.107 137.529 141.071C137.668 141.031 137.778 140.994 137.856 140.958C137.982 140.901 138.064 140.942 138.104 141.082L138.265 141.694C138.297 141.816 138.25 141.905 138.125 141.962C138.007 142.016 137.844 142.064 137.636 142.107C137.432 142.154 137.226 142.177 137.019 142.177C136.507 142.177 136.07 142.072 135.708 141.86C135.346 141.649 135.166 141.214 135.166 140.555V137.435H134.8ZM139.264 139.658V136.683C139.264 136.468 139.371 136.36 139.586 136.36H140.445C140.66 136.36 140.768 136.468 140.768 136.683V139.271C140.768 140.052 140.821 140.544 140.929 140.749C141.036 140.953 141.262 141.055 141.605 141.055C141.971 141.055 142.248 140.91 142.438 140.62C142.628 140.326 142.723 139.719 142.723 138.799V136.683C142.723 136.468 142.83 136.36 143.045 136.36H143.904C144.119 136.36 144.227 136.468 144.227 136.683V141.678C144.227 141.893 144.119 142 143.904 142H143.056C142.841 142 142.733 141.893 142.733 141.678V141.366H142.712C142.547 141.649 142.338 141.844 142.083 141.952C141.829 142.056 141.528 142.107 141.181 142.107C140.633 142.107 140.177 141.932 139.812 141.581C139.446 141.23 139.264 140.589 139.264 139.658ZM146.01 142C145.795 142 145.688 141.893 145.688 141.678V136.683C145.688 136.468 145.795 136.36 146.01 136.36H146.858C147.073 136.36 147.181 136.468 147.181 136.683V137.123H147.202C147.295 136.894 147.451 136.692 147.669 136.516C147.888 136.341 148.146 136.253 148.443 136.253C148.647 136.253 148.815 136.278 148.948 136.328C149.073 136.375 149.121 136.461 149.093 136.586L148.942 137.225C148.91 137.368 148.813 137.411 148.652 137.354C148.559 137.322 148.47 137.306 148.384 137.306C148.04 137.306 147.755 137.512 147.53 137.923C147.304 138.335 147.191 138.935 147.191 139.723V141.678C147.191 141.893 147.084 142 146.869 142H146.01ZM149.608 139.18C149.608 138.274 149.834 137.56 150.285 137.037C150.74 136.514 151.381 136.253 152.208 136.253C153.168 136.253 153.88 136.5 154.346 136.994C154.811 137.488 155.044 138.283 155.044 139.379C155.044 139.594 154.944 139.701 154.743 139.701H151.198C151.256 140.296 151.402 140.67 151.639 140.824C151.875 140.978 152.149 141.055 152.46 141.055C152.758 141.055 152.985 141.015 153.143 140.937C153.3 140.858 153.433 140.75 153.54 140.614C153.662 140.457 153.812 140.432 153.991 140.539L154.528 140.867C154.74 140.996 154.77 141.15 154.62 141.329C154.401 141.59 154.145 141.785 153.852 141.914C153.558 142.043 153.094 142.107 152.46 142.107C151.433 142.107 150.701 141.846 150.264 141.323C149.827 140.8 149.608 140.086 149.608 139.18ZM151.204 138.627H153.54C153.54 138.24 153.443 137.925 153.25 137.682C153.057 137.435 152.749 137.311 152.326 137.311C151.99 137.311 151.723 137.429 151.526 137.666C151.329 137.898 151.222 138.219 151.204 138.627Z" fill="white"/>
<path d="M47.5 28.2C47.7868 28.2 48.0671 28.1062 48.3056 27.9304C48.544 27.7545 48.7299 27.5047 48.8396 27.2123C48.9494 26.9199 48.9781 26.5982 48.9221 26.2879C48.8662 25.9775 48.7281 25.6924 48.5253 25.4686C48.3225 25.2449 48.0642 25.0925 47.7829 25.0307C47.5016 24.969 47.2101 25.0007 46.9451 25.1218C46.6802 25.2429 46.4537 25.448 46.2944 25.7111C46.135 25.9742 46.05 26.2836 46.05 26.6C46.05 27.0243 46.2028 27.4313 46.4747 27.7314C46.7466 28.0314 47.1154 28.2 47.5 28.2ZM54.75 28.2C55.0368 28.2 55.3171 28.1062 55.5556 27.9304C55.794 27.7545 55.9799 27.5047 56.0896 27.2123C56.1994 26.9199 56.2281 26.5982 56.1721 26.2879C56.1162 25.9775 55.9781 25.6924 55.7753 25.4686C55.5725 25.2449 55.3142 25.0925 55.0329 25.0307C54.7516 24.969 54.4601 25.0007 54.1951 25.1218C53.9302 25.2429 53.7037 25.448 53.5444 25.7111C53.385 25.9742 53.3 26.2836 53.3 26.6C53.3 27.0243 53.4528 27.4313 53.7247 27.7314C53.9966 28.0314 54.3654 28.2 54.75 28.2ZM47.5 34.6C47.7868 34.6 48.0671 34.5062 48.3056 34.3304C48.544 34.1545 48.7299 33.9047 48.8396 33.6123C48.9494 33.3199 48.9781 32.9982 48.9221 32.6879C48.8662 32.3775 48.7281 32.0924 48.5253 31.8686C48.3225 31.6449 48.0642 31.4925 47.7829 31.4307C47.5016 31.369 47.2101 31.4007 46.9451 31.5218C46.6802 31.6429 46.4537 31.848 46.2944 32.1111C46.135 32.3742 46.05 32.6835 46.05 33C46.05 33.4243 46.2028 33.8313 46.4747 34.1314C46.7466 34.4314 47.1154 34.6 47.5 34.6ZM54.75 34.6C55.0368 34.6 55.3171 34.5062 55.5556 34.3304C55.794 34.1545 55.9799 33.9047 56.0896 33.6123C56.1994 33.3199 56.2281 32.9982 56.1721 32.6879C56.1162 32.3775 55.9781 32.0924 55.7753 31.8686C55.5725 31.6449 55.3142 31.4925 55.0329 31.4307C54.7516 31.369 54.4601 31.4007 54.1951 31.5218C53.9302 31.6429 53.7037 31.848 53.5444 32.1111C53.385 32.3742 53.3 32.6835 53.3 33C53.3 33.4243 53.4528 33.8313 53.7247 34.1314C53.9966 34.4314 54.3654 34.6 54.75 34.6ZM40.25 28.2C40.5368 28.2 40.8171 28.1062 41.0556 27.9304C41.294 27.7545 41.4799 27.5047 41.5896 27.2123C41.6994 26.9199 41.7281 26.5982 41.6721 26.2879C41.6162 25.9775 41.4781 25.6924 41.2753 25.4686C41.0725 25.2449 40.8142 25.0925 40.5329 25.0307C40.2516 24.969 39.9601 25.0007 39.6951 25.1218C39.4302 25.2429 39.2037 25.448 39.0444 25.7111C38.885 25.9742 38.8 26.2836 38.8 26.6C38.8 27.0243 38.9528 27.4313 39.2247 27.7314C39.4966 28.0314 39.8654 28.2 40.25 28.2ZM57.65 12.2H56.2V10.6C56.2 10.1757 56.0472 9.76869 55.7753 9.46863C55.5034 9.16857 55.1346 9 54.75 9C54.3654 9 53.9966 9.16857 53.7247 9.46863C53.4528 9.76869 53.3 10.1757 53.3 10.6V12.2H41.7V10.6C41.7 10.1757 41.5472 9.76869 41.2753 9.46863C41.0034 9.16857 40.6346 9 40.25 9C39.8654 9 39.4966 9.16857 39.2247 9.46863C38.9528 9.76869 38.8 10.1757 38.8 10.6V12.2H37.35C36.1963 12.2 35.0899 12.7057 34.2741 13.6059C33.4583 14.5061 33 15.727 33 17V36.2C33 37.473 33.4583 38.6939 34.2741 39.5941C35.0899 40.4943 36.1963 41 37.35 41H57.65C58.8037 41 59.9101 40.4943 60.7259 39.5941C61.5417 38.6939 62 37.473 62 36.2V17C62 15.727 61.5417 14.5061 60.7259 13.6059C59.9101 12.7057 58.8037 12.2 57.65 12.2ZM59.1 36.2C59.1 36.6243 58.9472 37.0313 58.6753 37.3314C58.4034 37.6314 58.0346 37.8 57.65 37.8H37.35C36.9654 37.8 36.5966 37.6314 36.3247 37.3314C36.0528 37.0313 35.9 36.6243 35.9 36.2V21.8H59.1V36.2ZM59.1 18.6H35.9V17C35.9 16.5757 36.0528 16.1687 36.3247 15.8686C36.5966 15.5686 36.9654 15.4 37.35 15.4H57.65C58.0346 15.4 58.4034 15.5686 58.6753 15.8686C58.9472 16.1687 59.1 16.5757 59.1 17V18.6ZM40.25 34.6C40.5368 34.6 40.8171 34.5062 41.0556 34.3304C41.294 34.1545 41.4799 33.9047 41.5896 33.6123C41.6994 33.3199 41.7281 32.9982 41.6721 32.6879C41.6162 32.3775 41.4781 32.0924 41.2753 31.8686C41.0725 31.6449 40.8142 31.4925 40.5329 31.4307C40.2516 31.369 39.9601 31.4007 39.6951 31.5218C39.4302 31.6429 39.2037 31.848 39.0444 32.1111C38.885 32.3742 38.8 32.6835 38.8 33C38.8 33.4243 38.9528 33.8313 39.2247 34.1314C39.4966 34.4314 39.8654 34.6 40.25 34.6Z" fill="white"/>
<defs>
<filter id="filter0_d_403_3" x="0" y="24" width="236" height="171" filterUnits="userSpaceOnUse" color-interpolation-filters="sRGB">
<feFlood flood-opacity="0" result="BackgroundImageFix"/>
<feColorMatrix in="SourceAlpha" type="matrix" values="0 0 0 0 0 0 0 0 0 0 0 0 0 0 0 0 0 0 127 0" result="hardAlpha"/>
<feMorphology radius="1" operator="dilate" in="SourceAlpha" result="effect1_dropShadow_403_3"/>
<feOffset dy="4"/>
<feGaussianBlur stdDeviation="2"/>
<feComposite in2="hardAlpha" operator="out"/>
<feColorMatrix type="matrix" values="0 0 0 0 0 0 0 0 0 0 0 0 0 0 0 0 0 0 0.25 0"/>
<feBlend mode="normal" in2="BackgroundImageFix" result="effect1_dropShadow_403_3"/>
<feBlend mode="normal" in="SourceGraphic" in2="effect1_dropShadow_403_3" result="shape"/>
</filter>
<filter id="filter1_d_403_3" x="19" y="0" width="57" height="57" filterUnits="userSpaceOnUse" color-interpolation-filters="sRGB">
<feFlood flood-opacity="0" result="BackgroundImageFix"/>
<feColorMatrix in="SourceAlpha" type="matrix" values="0 0 0 0 0 0 0 0 0 0 0 0 0 0 0 0 0 0 127 0" result="hardAlpha"/>
<feMorphology radius="1" operator="dilate" in="SourceAlpha" result="effect1_dropShadow_403_3"/>
<feOffset dy="4"/>
<feGaussianBlur stdDeviation="2"/>
<feComposite in2="hardAlpha" operator="out"/>
<feColorMatrix type="matrix" values="0 0 0 0 0.117647 0 0 0 0 0.117647 0 0 0 0 0.117647 0 0 0 1 0"/>
<feBlend mode="normal" in2="BackgroundImageFix" result="effect1_dropShadow_403_3"/>
<feBlend mode="normal" in="SourceGraphic" in2="effect1_dropShadow_403_3" result="shape"/>
</filter>
</defs>
</svg>
